<svg xmlns="http://www.w3.org/2000/svg" xmlns:xlink="http://www.w3.org/1999/xlink" width="2200" height="2656" viewBox="0 0 2200 2656">
  <defs>
    <linearGradient id="addprofile-a" x1="50%" x2="50%" y1="0%" y2="100%">
      <stop offset="0%" stop-color="#BEAB94"/>
      <stop offset="100%" stop-color="#89725B"/>
    </linearGradient>
    <linearGradient id="addprofile-b" x1="50%" x2="50%" y1="0%" y2="100%">
      <stop offset="0%" stop-color="#313131"/>
      <stop offset="100%" stop-color="#161616"/>
    </linearGradient>
    <linearGradient id="addprofile-c" x1="50%" x2="50%" y1="0%" y2="100%">
      <stop offset="0%" stop-color="#BEAB94"/>
      <stop offset="100%" stop-color="#89725B"/>
    </linearGradient>
    <linearGradient id="addprofile-d" x1="50%" x2="50%" y1="0%" y2="100%">
      <stop offset="0%" stop-color="#53B7DD"/>
      <stop offset="100%" stop-color="#2980B9"/>
    </linearGradient>
    <linearGradient id="addprofile-e" x1="50%" x2="50%" y1="0%" y2="100%">
      <stop offset="0%" stop-color="#DCA800"/>
      <stop offset="100%" stop-color="#B76F00"/>
    </linearGradient>
    <linearGradient id="addprofile-f" x1="50%" x2="50%" y1="0%" y2="100%">
      <stop offset="0%" stop-color="#F6CA00"/>
      <stop offset="100%" stop-color="#EA9A00"/>
    </linearGradient>
    <linearGradient id="addprofile-g" x1="50%" x2="50%" y1="0%" y2="100%">
      <stop offset="0%" stop-color="#BEAB94"/>
      <stop offset="100%" stop-color="#89725B"/>
    </linearGradient>
    <linearGradient id="addprofile-h" x1="50%" x2="50%" y1="0%" y2="100%">
      <stop offset="0%" stop-color="#478BB0"/>
      <stop offset="100%" stop-color="#032844"/>
    </linearGradient>
    <path id="addprofile-i" d="M126,145.25 C73.9305,145.25 31.5,173.25875 31.5,207.71625 L31.5,241.5 L220.5,241.5 L220.5,207.71625 C220.5,173.25875 178.0695,145.25 126,145.25 Z M126,126 L125.999998,126 C157.314557,126 182.699998,100.144459 182.699998,68.25 C182.699998,36.3555412 157.314557,10.5 125.999998,10.5 C94.685438,10.5 69.2999975,36.3555412 69.2999975,68.25 L69.2999975,68.2499938 C69.2999975,100.144453 94.685438,126 125.999998,126 C125.999998,126 125.999999,126 126,126 L126,126 Z"/>
  </defs>
  <g fill="none" fill-rule="evenodd">
    <g fill-rule="nonzero" transform="translate(462.58 297.52)">
      <path fill="#030525" d="M1782.19,1976.32 C1781.42,1987.32 1780.83,1998.32 1780.31,2009.4 C1779.83,2019.4 1779.4,2029.4 1778.84,2039.4 C1778.15,2051.93 1777.24,2064.46 1775.59,2076.9 C1775.59,2076.9 1775.59,2076.81 1775.59,2076.77 C1774.49552,2085.18165 1772.94322,2093.52737 1770.94,2101.77 C1768.94966,2109.89409 1766.35921,2117.8593 1763.19,2125.6 C1763.04,2125.95 1762.89,2126.3 1762.75,2126.6 C1760.08901,2132.89535 1757.02258,2139.01152 1753.57,2144.91 C1749.87879,2151.18861 1745.79396,2157.22734 1741.34,2162.99 L1741.28,2163.07 C1729.5,2178.3 1715.51,2191.68 1700.67,2203.89 C1700.52994,2204.03285 1700.48851,2204.24544 1700.56468,2204.43042 C1700.64086,2204.61541 1700.81996,2204.73719 1701.02,2204.74 C1701.15316,2204.74 1701.28137,2204.68946 1701.38,2204.6 C1710.44825,2197.19302 1719.07627,2189.26285 1727.22,2180.85 C1734.15742,2173.65941 1740.56108,2165.97235 1746.38,2157.85 C1756.5066,2143.7266 1764.24928,2128.03855 1769.3,2111.41 C1774.3,2095.05 1776.79,2078.04 1778.3,2061.04 C1779.13,2051.7 1779.67,2042.33 1780.15,2032.97 C1780.68,2022.75 1781.15,2012.52 1781.62,2002.3 C1782.04667,1993.6 1782.56,1984.90667 1783.16,1976.22 C1783.15468,1975.94609 1782.93391,1975.72532 1782.66,1975.72 C1782.38386,1975.72 1782.16,1975.94386 1782.16,1976.22 L1782.19,1976.32 Z"/>
      <path fill="url(#addprofile-a)" d="M530.38,246.34 C528.70506,246.342965 527.033048,246.48007 525.38,246.75 C522.873802,247.160998 520.423976,247.862387 518.08,248.84 C514.203031,250.432618 510.586293,252.596594 507.35,255.26 C507.046739,255.551679 506.944709,255.995115 507.09,256.39 C503.513593,257.883071 500.129376,259.800122 497.01,262.1 C490.37447,267.094042 484.685003,273.233925 480.21,280.23 C475.370971,287.710896 471.500097,295.775217 468.69,304.23 C465.652243,313.09236 463.413321,322.208687 462,331.47 C460.58526,340.653173 459.853254,349.928591 459.81,359.22 C459.77832,365.677041 460.112188,372.130698 460.81,378.55 L460.75,378.55 C460.374353,378.572903 460.005539,378.660877 459.66,378.81 C458.564153,379.224478 457.548955,379.826829 456.66,380.59 C454.960256,382.150604 453.759933,384.178976 453.21,386.42 C452.547819,388.915662 452.42847,391.524299 452.86,394.07 C453.312055,396.744352 454.294678,399.301212 455.75,401.59 C457.325794,404.090691 459.479635,406.175938 462.03,407.67 C464.136012,408.891245 466.45297,409.705403 468.86,410.07 L468.86,410.17 L468.95,410.38 C473.696884,421.664954 479.972271,432.243944 487.6,441.82 C495.288507,451.579791 504.416128,460.113965 514.67,467.13 C519.453691,470.411036 524.520421,473.25898 529.81,475.64 C529.81,476.64 529.9,477.64 529.97,478.64 C530.16,481.64 530.36,484.64 530.54,487.57 C530.7,490.17 530.86,493.25 530.86,496.37 C530.885359,499.231624 530.714961,502.091631 530.35,504.93 L530.35,504.86 C530.013722,507.025643 529.563092,509.171977 529,511.29 C528.71,512.37 528.37,513.49 528,514.6 C527.76,515.31 527.5,516.01 527.24,516.72 L527.11,517.06 L527.11,517.16 L527,517.47 L526.9,517.47 C526.638555,517.543705 526.418343,517.720597 526.29,517.96 C526.172117,518.167173 526.150216,518.415386 526.23,518.64 C526.864995,520.387483 527.927274,521.948241 529.32,523.18 C530.909767,524.609533 532.673726,525.832545 534.57,526.82 C536.64511,527.937065 538.793338,528.91262 541,529.74 C542.89,530.48 545,531.2 547.46,531.96 C549.04,532.45 550.73,532.96 552.96,533.54 C556.202776,534.435783 559.504136,535.104075 562.84,535.54 C567.089011,536.070745 571.36804,536.324614 575.65,536.301632 C578.04,536.301632 580.65,536.24 583.65,536.11 C586.65,535.98 589.44,535.8 593.12,535.56 L594.12,535.5 L598.43,535.24 L600.28,535.13 L603.17,534.95 C608.951046,534.719633 614.685942,533.820304 620.26,532.27 C625.038641,530.83005 629.465671,528.412211 633.26,525.17 C633.84,524.66 634.47,524.07 635.26,523.25 C635.944139,522.578529 636.572855,521.85283 637.14,521.08 C637.368667,520.670342 637.303798,520.159504 636.98,519.82 C636.786853,519.632123 636.529406,519.524854 636.26,519.52 C635.617781,518.05526 634.865633,516.641222 634.01,515.29 C633.22,513.96 632.37,512.64 631.54,511.37 L631.29,510.97 L631.1,510.68 L630.52,509.78 C627.848184,505.871601 625.506747,501.747327 623.52,497.45 L623.52,497.55 C623.17,496.55 622.89,495.76 622.64,495 C622.24,493.71 621.91,492.4 621.64,491.29 C621.1,488.95 620.64,486.47 620.27,483.7 C619.51,477.95 619.27,472.07 619.02,466.39 L619.02,466.25 C618.88,462.92 618.72,459.14 618.44,455.47 C621.664328,451.422905 624.582417,447.141036 627.17,442.66 C629.856802,438.009868 632.244961,433.193468 634.32,428.24 C636.495958,423.269859 638.392253,418.181915 640,413 C641.52,408 642.87,402.62 644,396.95 C645.141209,391.165584 645.969082,385.323737 646.48,379.45 C647.418394,368.677034 646.968036,357.828127 645.14,347.17 C641.677079,327.437605 632.453269,309.170913 618.63,294.67 C612.294778,288.042984 605.225964,282.158456 597.56,277.13 C593.56,274.51 589.38,272.01 584.98,269.69 C581.21,267.69 577.05,265.69 572.26,263.69 C568.844225,260.887943 565.238978,258.325177 561.47,256.02 C556.868333,253.157593 551.939757,250.857814 546.79,249.17 C543.37516,248.064478 539.845929,247.349909 536.27,247.04 C535.185028,246.797133 534.086353,246.620143 532.98,246.51 C532.129314,246.425781 531.274834,246.385727 530.42,246.39 L530.38,246.34 Z"/>
      <path fill="url(#addprofile-b)" d="M539.12,233 C533.796163,232.982422 528.489051,233.596718 523.31,234.83 C519.4493,235.777357 515.6491,236.956153 511.93,238.36 C507.632358,239.927539 503.471545,241.8474 499.49,244.1 C497.623606,245.158312 495.832663,246.344477 494.13,247.65 C492.587401,248.805872 491.169714,250.119662 489.9,251.57 C489.66,251.86 489.42,252.15 489.19,252.45 C488.19,252.79 487.19,253.2 486.11,253.71 C482.750613,255.305163 479.630475,257.361694 476.84,259.82 C473.93177,262.378542 471.324916,265.260509 469.07,268.41 C466.753651,271.616615 464.782704,275.059069 463.19,278.68 C460.613917,284.363006 459.063365,290.45688 458.61,296.68 C457.937862,296.758393 457.270284,296.871881 456.61,297.02 C456.38627,297.068868 456.189583,297.201185 456.06,297.39 C453.827828,297.457813 451.614805,297.824408 449.48,298.48 C446.611767,299.364966 443.908913,300.716394 441.48,302.48 C436.285325,306.418537 432.057998,311.490645 429.12,317.31 C427.494105,320.426687 426.116502,323.666729 425,327 C423.842626,330.392049 422.936839,333.86479 422.29,337.39 C420.935149,344.359168 420.641834,351.493133 421.42,358.55 C422.26,365.71 424.23,371.8 427.29,376.64 C428.892622,379.193896 430.922149,381.453435 433.29,383.32 C435.308302,385.052845 437.746278,386.22528 440.36,386.72 C440.893042,386.800276 441.430984,386.843712 441.97,386.85 C442.53564,386.845296 443.100295,386.801861 443.66,386.72 C444.643187,386.573063 445.610652,386.335382 446.55,386.01 C447.63,385.65 448.73,385.21 449.7,384.81 L449.91,384.73 C450.42,384.52 450.91,384.31 451.45,384.12 C453.321082,383.364036 455.274455,382.830382 457.27,382.53 C458.002822,382.435154 458.741067,382.388387 459.48,382.39 C460.047876,382.389272 460.615375,382.419316 461.18,382.48 C462.209797,382.629495 463.217338,382.904889 464.18,383.3 C465.109186,383.711775 465.988231,384.228465 466.8,384.84 C467.988885,385.761931 469.063188,386.822805 470,388 C472.221532,391.148341 474.10842,394.519937 475.63,398.06 L475.93,398.69 C476.17,399.2 476.41,399.69 476.66,400.21 C476.83852,400.52762 477.175661,400.723009 477.54,400.720034 C477.723826,400.720034 477.903749,400.666845 478.06,400.57 C478.285943,400.437903 478.451092,400.22249 478.52,399.97 C479.539031,397.336004 480.240641,394.589988 480.61,391.79 C480.81,390.53 480.99,389.12 481.18,387.33 L481.18,386.92 C481.3,385.78 481.42,384.61 481.43,383.46 C481.442574,382.336995 481.379095,381.214428 481.24,380.1 C481.11,378.99 480.93,377.78 480.67,376.31 C480.51,375.42 480.35,374.54 480.18,373.66 C479.9,372.14 479.58,370.42 479.33,368.73 L479.33,368.51 L479.33,368.36 C479.04689,366.463448 478.989824,364.540001 479.16,362.63 C479.225258,362.184509 479.31878,361.74362 479.44,361.31 L479.66,361.13 C479.92,360.9 480.19,360.67 480.47,360.46 L481.55,359.6 L481.93,359.29 L482.62,358.73 C483.28,358.2 483.96,357.65 484.62,357.07 C485.274599,356.428583 485.848809,355.709981 486.33,354.93 L486.46,354.74 C488.154436,352.174019 489.550153,349.422845 490.62,346.54 C491.654728,343.816729 492.3793,340.985534 492.78,338.1 C492.88,337.39 492.96,336.66 493.03,335.87 C495.317874,336.389128 497.635616,336.766512 499.97,337 C501.46,337.15 502.97,337.22 504.46,337.22 C505.57,337.22 506.69,337.22 507.79,337.1 C513.380661,336.539829 518.895365,335.38325 524.24,333.65 L528.89,332.22 C534.68095,330.229673 540.628396,328.727759 546.67,327.73 L546.54,327.73 C548.31,327.52 550,327.4 551.69,327.36 L552.43,327.36 C554.024625,327.362788 555.617591,327.462974 557.2,327.66 C558.55,327.86 559.9,328.13 561.2,328.45 C562.50439,328.776371 563.784214,329.194068 565.03,329.7 C566.187138,330.212013 567.281091,330.856305 568.29,331.62 C569.98519,333.030293 571.530066,334.612031 572.9,336.34 L573.49,337.07 C574.620901,338.510518 575.843433,339.87668 577.15,341.16 C577.889465,341.834044 578.685757,342.442973 579.53,342.98 C580.372782,343.493529 581.267822,343.915907 582.2,344.24 C582.916026,344.489525 583.657039,344.660528 584.41,344.75 C584.66548,344.781579 584.922581,344.798273 585.18,344.8 C585.639634,344.797697 586.098136,344.754189 586.55,344.67 C587.814302,344.426983 588.985224,343.834594 589.93,342.96 C590.409913,342.527169 590.842353,342.044445 591.22,341.52 C591.65874,340.944609 592.046855,340.332325 592.38,339.69 C593.112622,338.292799 593.711939,336.829664 594.17,335.32 C594.74,333.56 595.17,331.77 595.47,330.41 C595.82,328.87 596.13,327.32 596.47,325.78 L596.95,323.38 L597.01,323.09 C597.25,321.92 597.5,320.72 597.84,319.56 C597.99,319.78 598.16,319.99 598.33,320.21 C600.13,322.56 601.85,325.05 603.5,327.46 C605.994224,331.259549 608.722847,334.89994 611.67,338.36 C614.088117,341.13306 616.909698,343.526516 620.04,345.46 C623.520978,347.513083 627.375933,348.852459 631.38,349.4 L631.67,349.4 C631.837526,349.400838 632.002578,349.359575 632.15,349.28 C632.460634,349.100659 632.651424,348.768685 632.65,348.41 C632.78,347.12 632.85,345.8 632.92,344.53 L632.98,343.28 C633.08,341.59 633.24,339.37 633.52,337.17 C633.781421,334.977566 634.308628,332.825083 635.09,330.76 C635.393456,330.054542 635.772326,329.383975 636.22,328.76 C636.499913,328.411924 636.814906,328.093581 637.16,327.81 C637.428496,327.613876 637.716724,327.446302 638.02,327.31 C638.342814,327.187 638.678156,327.099811 639.02,327.05 L639.58,327.05 C639.823112,327.03533 640.066888,327.03533 640.31,327.05 C640.914113,327.152483 641.50688,327.313233 642.08,327.53 C643.095803,327.952809 643.977327,328.6442 644.63,329.53 C645.102304,330.17546 645.498275,330.873442 645.81,331.61 C646.432716,333.349197 646.832567,335.160285 647,337 C647.26,339 647.38,341 647.5,343 L647.59,344.47 C647.68,345.82 647.78,346.93 647.92,347.96 C648.039337,348.979519 648.260439,349.98453 648.58,350.96 C648.648908,351.21249 648.814057,351.427903 649.04,351.56 C649.200177,351.655123 649.383742,351.703612 649.57,351.7 C649.743726,351.703909 649.914562,351.655099 650.06,351.56 C650.699159,351.120444 651.265953,350.584014 651.74,349.97 C652.254258,349.266041 652.677604,348.499987 653,347.69 C653.685069,345.873285 654.102758,343.966734 654.24,342.03 C654.504572,338.860494 654.564697,335.677236 654.42,332.5 C654.42,331.5 654.37,330.44 654.36,329.41 C654.36,328.6 654.36,327.78 654.36,326.96 C654.36,326.14 654.49,325.17 654.57,324.3 L654.67,323.38 C654.94,320.51 655.18,317.92 655.26,315.32 C655.345392,312.916492 655.214868,310.51017 654.87,308.13 C654.51129,305.687204 653.839081,303.30086 652.87,301.03 C652.36,299.83 651.76,298.6 651.1,297.39 C650.44,296.18 649.66,294.95 648.83,293.63 C647.44,291.42 645.95,289.22 644.26,286.88 C641.088337,282.49493 637.648434,278.310271 633.96,274.35 C626.57415,266.381134 618.183871,259.406042 609,253.6 C604.413203,250.727045 599.6316,248.177525 594.69,245.97 C592.29,244.89 589.78,243.87 587.22,242.97 C584.66,242.07 582.16,241.24 579.13,240.34 C573.94,238.79 567.13,236.82 560.06,235.34 C553.659784,233.954632 547.145641,233.161285 540.6,232.97 L539.12,233 Z"/>
      <path fill="#161616" d="M638.14,314.94 C637.638247,315.167213 637.414696,315.757387 637.64,316.26 L638.41,317.9 C638.166539,317.799982 637.893461,317.799982 637.65,317.9 C637.240923,318.083383 637.003879,318.516603 637.07,318.96 C637.21,319.64 637.37,320.32 637.55,320.96 C637.417035,321.171632 637.357304,321.421097 637.38,321.67 C637.789331,324.788801 638.502728,327.860088 639.51,330.84 C640.214608,333.009769 641.052878,335.133833 642.02,337.2 C642.47,338.2 642.95,339.2 643.47,340.2 C643.703592,342.003842 644.037442,343.793278 644.47,345.56 L644.47,345.77 C644.414999,345.93897 644.414999,346.12103 644.47,346.29 C644.57,346.69 644.66,347.08 644.75,347.49 C644.75,347.59 644.75,347.7 644.82,347.81 C644.82,348.08 644.91,348.35 644.95,348.62 C644.960561,348.740178 644.998166,348.85641 645.06,348.96 C645.151791,349.589699 645.208545,350.224008 645.23,350.86 C645.241465,352.54529 645.039867,354.22527 644.63,355.86 C644.55,356.15 644.46,356.44 644.38,356.73 C644.215235,357.151992 644.354735,357.632034 644.72,357.9 C644.931798,358.058778 645.197908,358.127104 645.46,358.09 C645.718817,358.041999 645.950515,357.899416 646.11,357.69 C649.061002,354.504379 651.351753,350.765764 652.85,346.69 C652.999783,346.311533 652.905229,345.880046 652.610903,345.598898 C652.316577,345.317751 651.881213,345.243049 651.51,345.41 C651.278273,345.522857 651.094035,345.71418 650.99,345.95 C650.9,346.13 650.8,346.31 650.7,346.49 C650.6,346.67 650.44,346.95 650.31,347.18 L650.31,347.07 C650.47,345.71 650.56,344.34 650.61,342.97 C650.705018,340.115774 650.594734,337.258411 650.28,334.42 C649.723757,328.934445 648.418274,323.551013 646.4,318.42 C646.247611,318.076713 645.923465,317.840966 645.549926,317.801755 C645.176388,317.762544 644.810353,317.92584 644.59,318.23 C644.420501,318.452049 644.351607,318.734875 644.4,319.01 C644.9,320.79 645.4,322.58 645.78,324.37 C646.16,326.16 646.64,328.1 646.99,329.98 C647.396667,332.206667 647.7,334.45 647.9,336.71 C647.42,334.87 646.873333,333.05 646.26,331.25 C644.315206,325.828811 642.061516,320.523457 639.51,315.36 C639.345984,314.99496 638.98013,314.762859 638.58,314.76984 C638.442941,314.772401 638.307439,314.799501 638.18,314.85 L638.14,314.94 Z M650.6,346.74 L650.54,346.84 L650.6,346.74 Z M644.63,355.78 L644.63,355.88 C644.635595,355.846901 644.635595,355.813099 644.63,355.78 Z"/>
      <path fill="url(#addprofile-c)" d="M828.78,1.24 C816.08,3.38 805.67,9.87 800.22,19.04 C798.768857,21.4958983 797.674556,24.1457909 796.97,26.91 C796.23036,29.8840482 795.91391,32.9475577 796.03,36.01 C796.092781,37.6854253 796.25977,39.3553196 796.53,41.01 C796.880116,42.9768405 797.337465,44.9230762 797.9,46.84 C799.34,51.92 801.13,56.84 802.9,61.64 L803.1,62.19 C804.43,65.86 805.8,69.65 807.03,73.42 C809.62,81.53 810.91,87.83 811.2,93.84 C811.310664,95.6558926 811.206611,97.4785006 810.89,99.27 C810.759665,99.8498042 810.565132,100.413281 810.31,100.95 C810.186909,101.178617 810.039379,101.393206 809.87,101.59 C809.757977,101.718706 809.630323,101.832923 809.49,101.93 L809.13,102.1 C808.978681,102.137176 808.824985,102.163906 808.67,102.18 C808.417973,102.17814 808.166749,102.151343 807.92,102.1 C807.490845,101.984332 807.075183,101.82343 806.68,101.62 C805.598578,101.020416 804.591627,100.295411 803.68,99.46 C802.646193,98.5239319 801.674155,97.5218307 800.77,96.46 C800.104106,95.6317523 799.48962,94.7634567 798.93,93.86 L798.88,93.78 L798.4,93.04 C797.7,91.94 796.97,90.81 796.21,89.72 C795.39533,88.4993248 794.38119,87.4243358 793.21,86.54 C792.712449,86.191803 792.146642,85.9532094 791.55,85.84 C791.380325,85.8251257 791.209675,85.8251257 791.04,85.84 C790.59001,85.8446999 790.145175,85.9363834 789.73,86.11 C789.436275,86.2364988 789.160555,86.4012584 788.91,86.6 C788.627943,86.8153368 788.37278,87.0637841 788.15,87.34 C787.551404,88.0611342 787.050426,88.857991 786.66,89.71 C786.368138,90.3489391 786.153297,91.0203201 786.02,91.71 C785.858861,92.4832927 785.771801,93.2701848 785.759078,94.06 C785.744309,95.802034 785.928853,97.5401013 786.31,99.24 C786.706873,101.122418 787.228014,102.976478 787.87,104.79 C788.43,106.41 789.11,108.13 790.02,110.22 C793.420336,117.898502 797.78914,125.110389 803.02,131.68 C804.57,133.68 806.25,135.6 808.02,137.49 C808.8,138.32 809.64,139.18 810.59,140.12 C811.15,140.67 811.72,141.22 812.3,141.76 L813.52,142.93 C816.58,145.93 819.52,149.02 822.46,152.04 L824.88,154.57 C828.28,158.11 831.99,161.88 836,165.44 L836,165.99 C836.350094,166.030524 836.624745,166.309337 836.66,166.66 C836.75,174.19 836.56,181.74 837.2,189.26 C837.903179,196.468544 839.156837,203.612726 840.95,210.63 C840.948723,210.606684 840.948723,210.583316 840.95,210.56 C841.74,213.79 842.58,217 843.44,220.21 C843.85,221.75 844.28,223.29 844.68,224.84 C845.08,226.39 845.44,227.94 845.78,229.49 C847.18,235.85 848.24,242.29 849.78,248.62 C849.78,248.56 849.78,248.49 849.78,248.43 C849.98,249.2 850.17,249.98 850.38,250.75 C850.9,252.75 851.51,254.65 852.05,256.6 C852.59,258.55 853.05,260.55 853.6,262.53 C854.6,266.53 855.6,270.47 856.71,274.4 C857.01,275.4 857.32,276.45 857.65,277.47 C857.8,277.95 857.95,278.47 858.09,278.93 C858.23,279.39 858.36,279.93 858.49,280.37 C859.936667,284.143333 861.433333,287.873333 862.98,291.56 L863.13,291.73 C863.385803,291.981 863.66358,292.208576 863.96,292.41 C864.277921,292.673908 864.330878,293.141699 864.08,293.47 C864.018153,293.542808 863.943613,293.603795 863.86,293.65 C864.76,295.75 865.69,297.88 866.66,300.01 C867.26,301.34 867.87,302.67 868.49,304.01 C868.75,304.57 869.01,305.11 869.28,305.66 C869.29796,305.780521 869.331577,305.898182 869.38,306.01 L869.46,306.43 C869.482425,306.539305 869.522985,306.644085 869.58,306.74 C869.66,307.1 869.73,307.46 869.8,307.82 L869.93,308.53 L870.11,309.45 L870.24,310.13 C869.05,311.03 867.9,311.93 866.78,312.87 C864.63,314.64 862.46,316.58 860.16,318.8 C855.736675,323.096656 851.601062,327.679903 847.78,332.52 C844,337.26 840.3,342.43 836.46,348.34 C832.97,353.73 829.52,359.55 826.2,365.65 C823.14,371.26 820.14,377.22 817.02,383.88 C814.31,389.65 811.65,395.73 808.89,402.45 C806.61,408 804.3,414 801.89,420.78 C800.03,425.91 798.25,430.99 796.61,435.89 C796.7,435.61 796.77,435.34 796.84,435.06 C796.863352,435.002272 796.863352,434.937728 796.84,434.88 C796.802509,434.818079 796.740901,434.774591 796.67,434.76 C796.53779,434.751839 796.419184,434.840793 796.39,434.97 C796.14,435.97 795.93,436.88 795.71,437.84 C795.49,438.8 795.32,439.58 795.1,440.45 C794.971195,440.326034 794.798755,440.257776 794.62,440.26 C794.326882,440.261548 794.052046,440.40268 793.88,440.64 C793.606837,441.034931 793.705304,441.576498 794.1,441.85 L794.6,442.26 C794.51,442.53 794.42,442.82 794.35,443.1 C794.303353,443.243401 794.366664,443.399566 794.5,443.47 L794.62,443.47 C794.741113,443.47203 794.851565,443.401025 794.9,443.29 C794.98,443.08 795.06,442.87 795.13,442.66 C796.52,443.82 797.89,445 799.13,446.18 L799.2,446.23 L799.26,446.23 C807.891954,454.219465 815.63982,463.11392 822.37,472.76 C823.57,474.44 824.84,476.31 826.25,478.46 C827.85,480.93 829.39,483.41 830.81,485.84 L831.15,486.42 C831.68,487.32 832.22,488.25 832.71,489.18 C833.2,490.11 833.5,490.83 833.79,491.53 C834.23,492.58 834.64,493.64 835.04,494.71 C835.925412,497.217045 837.019235,499.645532 838.31,501.97 C838.979637,503.123833 839.800208,504.183176 840.75,505.12 C841.719448,506.058559 842.883683,506.772122 844.16,507.21 C845.025841,507.488335 845.930546,507.626741 846.84,507.62 L847.84,507.62 C847.689581,507.824204 847.552624,508.03799 847.43,508.26 C847.122834,508.785643 846.848962,509.330046 846.61,509.89 C846.362658,510.509895 846.165361,511.148603 846.02,511.8 C845.998573,511.932707 846.068039,512.063468 846.19,512.12 L846.31,512.12 C846.399463,512.12 846.484732,512.081269 846.55,512.02 C847.93,510.49 849.26,508.93 850.62,507.33 L851.03,506.85 L851.09,506.77 C851.376667,506.65 851.656667,506.52 851.93,506.38 C852.373348,506.135484 852.803909,505.868469 853.22,505.58 C853.653376,505.292967 854.05262,504.957468 854.41,504.58 C854.608002,504.405392 854.732965,504.162606 854.76,503.9 C854.788771,503.624355 854.701858,503.349131 854.52,503.14 C854.450666,503.05485 854.365839,502.983596 854.27,502.93 L854.47,502.71 L854.67,502.46 C857.34,499.16 860.03,495.71 862.67,492.19 C867.91,485.19 873.14,477.73 878.23,469.93 C883.32,462.13 888.14,454.2 892.82,445.99 C897.5,437.78 902.01,429.3 906.23,420.8 C908.38,416.45 910.45,412.13 912.36,407.97 C914.27,403.81 916.12,399.58 918.02,395.1 C919.92,390.62 921.61,386.41 923.2,382.27 C924.79,378.13 926.31,373.96 927.84,369.55 C929.26,365.45 930.59,361.32 931.84,357.26 C932.15,356.26 932.45,355.19 932.75,354.15 C932.597253,353.982079 932.527563,353.754671 932.56,353.53 C932.94167,351.394862 933.462786,349.287016 934.12,347.22 C934.68,345.22 935.26,343.22 935.8,341.15 C936.34,339.08 936.8,337.08 937.16,335.01 C937.34,333.93 937.48,332.85 937.59,331.76 L937.59,331.1 C937.44,327.83 937.04,324.57 936.67,321.81 L936.46,320.2 C936.13,317.73 935.79,315.2 935.52,312.67 C935.16,309.31 934.7,305.97 934.17,302.67 C932.67,295.08 930.93,287.54 929.17,280.02 L928.95,279.19 C927.39,273.46 925.8,267.74 924.24,262.03 C921.5,252.03 918.8,241.95 916.35,231.85 C915.13,226.856667 913.796667,221.893333 912.35,216.96 C910.93,212.03 909.45,207.11 908,202.19 C906.55,197.27 905.15,192.33 903.88,187.37 C903.56,186.11 903.24,184.85 902.94,183.59 C902.88,183.37 902.83,183.14 902.78,182.91 C902.721384,182.727214 902.677904,182.539916 902.65,182.35 L902.44,181.5 L902.02,179.78 C899.92,171.14 897.74,162.44 896.94,153.58 C896.87,153.14 896.82,152.7 896.78,152.26 L896.51,151.8 C896.25,149.8 896.01,147.65 895.79,145.22 C895.57,142.79 895.42,140.56 895.29,137.98 C894.95,130.06 895.15,122.16 895.42,114.8 C895.51,112.1 895.63,109.4 895.74,106.69 C895.95,101.47 896.17,96.07 896.29,90.75 C896.527647,82.8120167 896.334029,74.8669845 895.71,66.95 C895.139191,59.3154178 893.730729,51.766734 891.51,44.44 C890.383677,40.840554 888.996674,37.3279274 887.36,33.93 C885.688165,30.4977762 883.724263,27.2156842 881.49,24.12 C879.155284,20.8882333 876.531114,17.8757937 873.65,15.12 C872.21,13.74 870.65,12.38 868.91,10.96 C867.558956,9.86231382 866.150286,8.83752278 864.69,7.89 C859.438965,4.5715845 853.583154,2.32510113 847.46,1.28 C844.400144,0.734459956 841.298107,0.46 838.19,0.46 C835.130993,0.46 832.077396,0.717149789 829.06,1.22 L828.78,1.24 Z M848.12,507.78 L848.29,507.5 L848.83,507.41 C849.1,507.35 849.37,507.29 849.64,507.21 L849.53,507.31 L848.93,508.04 L847.19,510.09 L846.67,510.69 C846.83,510.26 847.01,509.82 847.23,509.36 C847.492945,508.816974 847.786759,508.289444 848.11,507.78 L848.12,507.78 Z"/>
      <path fill="#89725B" d="M861.88,284.21 C861.831502,284.978376 861.868394,285.74976 861.99,286.51 C862.092339,287.183246 862.229186,287.850792 862.4,288.51 C862.4,288.93 862.51,289.34 862.6,289.75 L862.69,290.11 C862.634823,290.209531 862.634823,290.330469 862.69,290.43 C862.77,290.66 862.86,290.88 862.96,291.1 C862.930136,291.180658 862.930136,291.269342 862.96,291.35 L863.25,292.01 C863.239493,292.062816 863.239493,292.117184 863.25,292.17 L863.79,293.3 C863.88,293.53 863.98,293.75 864.08,293.97 C864.18,294.19 864.31,294.46 864.41,294.71 C864.47697,294.890875 864.671651,294.989963 864.857301,294.937668 C865.04295,294.885372 865.157286,294.699236 865.12,294.51 C865.299121,294.399188 865.374589,294.176978 865.3,293.98 C865.244722,293.849463 865.181263,293.722544 865.11,293.6 C864.96,293.31 864.82,293.02 864.68,292.72 L864.68,292.65 C864.69889,292.584671 864.69889,292.515329 864.68,292.45 C864.44,291.77 864.16,291.1 863.88,290.45 C863.851068,290.375339 863.802739,290.30975 863.74,290.26 C863.49,289.56 863.28,288.85 863.09,288.13 L863.09,287.91 C863.085722,287.847241 863.061153,287.787575 863.02,287.74 C862.756427,286.717687 862.625353,285.665734 862.63,284.61 L862.63,284.7 C862.63,284.59 862.63,284.48 862.63,284.37 C862.660077,284.185055 862.534853,284.010637 862.35,283.97998 C862.180134,283.978155 862.034972,284.101969 862.01,284.27 L861.88,284.21 Z"/>
      <path fill="#89725B" d="M862.25,288.07 C862.142883,288.12143 862.076215,288.231236 862.08,288.35 C862.137798,288.956958 862.241427,289.558675 862.39,290.15 C862.57,290.87 862.79,291.58 863.02,292.28 C863.237739,292.933523 863.49146,293.574502 863.78,294.2 C863.91,294.49 864.07,294.77 864.23,295.05 C864.427649,295.364652 864.655384,295.659368 864.91,295.93 C864.946842,295.971015 864.990907,296.004912 865.04,296.03 C865.157967,296.07813 865.293247,296.051695 865.384417,295.962695 C865.475587,295.873696 865.505274,295.739093 865.46,295.62 C865.37,295.38 865.28,295.13 865.17,294.89 C865.06,294.65 864.93,294.4 864.81,294.16 C864.55,293.65 864.27,293.16 864.02,292.64 C863.76128,292.122931 863.530938,291.592144 863.33,291.05 C863.12531,290.497723 862.954985,289.933312 862.82,289.36 L862.82,289.27 C862.904511,289.314452 863.005489,289.314452 863.09,289.27 C863.185286,289.172789 863.185286,289.017211 863.09,288.92 L863.02,288.79 C862.95,288.67 862.89,288.55 862.81,288.43 C862.723308,288.301665 862.610942,288.192703 862.48,288.11 C862.432501,288.078469 862.377001,288.061125 862.32,288.06 L862.25,288.07 Z"/>
      <path fill="url(#addprofile-d)" d="M791.78,439.44 C789.070607,439.467038 786.368081,439.717892 783.7,440.19 C779.975983,440.837771 776.300713,441.739882 772.7,442.89 C769.41,443.89 765.96,445.13 761.83,446.75 C758.13,448.2 754.42,449.75 750.83,451.34 L746.35,453.25 C745.09,453.78 743.84,454.25 742.59,454.79 L741.65,455.17 C739.403333,456.09 737.153333,457.026667 734.9,457.98 C730.29,459.93 725.72,461.98 721.31,463.98 C711.76,468.38 703.07,472.79 694.75,477.45 C687.66,481.45 680.81,485.56 674.39,489.76 C671.13,491.9 667.83,494.16 664.58,496.48 C661.77,498.48 658.79,500.71 655.46,503.29 C654.96,503.67 654.46,504.03 653.91,504.39 L653.71,504.53 L652.6,505.29 L651.1,506.29 C649.39,507.47 647.39,508.89 645.52,510.47 C644.736445,511.122472 643.994963,511.823874 643.3,512.57 C642.73189,513.157383 642.262498,513.832766 641.91,514.57 C641.770444,514.886165 641.689139,515.224935 641.67,515.57 C641.496481,515.509481 641.319499,515.459392 641.14,515.42 C639.463664,515.016944 637.763643,514.719691 636.05,514.53 C634.768581,514.384174 633.479676,514.314052 632.19,514.32 L631.04,514.32 C629.125898,514.379601 627.218113,514.570046 625.33,514.89 C624.76,514.98 624.2,515.08 623.63,515.19 L622.88,515.33 L620.4,515.79 L616.99,516.43 L616.66,516.49 L615.42,516.73 L611.76,517.44 L604.88,518.75 C598.88,519.89 591.71,521.18 584.27,522.18 C580.99,522.61 578.01,522.95 575.18,523.18 C571.99,523.47 568.73,523.66 565.48,523.76 C564.18,523.76 562.87,523.76 561.57,523.76 C556.478505,523.771002 551.391498,523.457031 546.34,522.82 L546.19,522.82 C543.78,522.48 541.44,522.08 539.25,521.65 C538.25,521.44 537.13,521.2 535.71,520.86 C534.77,520.63 533.71,520.41 532.59,520.18 C531.59,519.99 530.75,519.86 529.94,519.76 C529.13,519.66 528.23,519.58 527.23,519.51 C526.47,519.46 525.72,519.43 524.99,519.43 C523.99,519.43 522.89,519.49 521.86,519.59 C520.336948,519.7408 518.828658,520.015035 517.35,520.41 C515.580144,520.880052 513.845804,521.474874 512.16,522.19 C510.7,522.79 509.16,523.5 507.16,524.49 C505.71,525.23 504.22,526.01 502.47,526.97 L503.04,526.54 L503.39,526.26 C503.441942,526.219088 503.471583,526.156101 503.47,526.09 C503.476523,526.011495 503.447103,525.934266 503.39,525.88 C503.345956,525.826462 503.279253,525.796816 503.21,525.8 C503.137181,525.799117 503.066375,525.823899 503.01,525.87 L502.46,526.33 L501.95,526.76 L501.72,526.96 L501.61,527.05 C501.591001,526.759382 501.383761,526.51557 501.1,526.45 C501.033745,526.439519 500.966255,526.439519 500.9,526.45 C500.555919,526.450362 500.25384,526.678962 500.16,527.01 C499.751964,528.840875 499.751964,530.739125 500.16,532.57 C500.595987,534.665643 501.249528,536.710053 502.11,538.67 C503.18,541.24 504.43,543.78 505.54,546.02 L505.61,546.18 C506.49,547.96 507.4,549.81 508.22,551.66 L508.48,552.25 L508.61,552.54 L508.71,552.79 L508.71,552.58 C509.589057,554.658303 510.259027,556.818958 510.71,559.03 C511.27,562.22 511.78,565.56 512.24,568.95 L512.24,568.84 C513.03,575.07 513.65,581.41 514.06,587.69 C514.26,590.69 514.41,593.9 514.52,597.11 C514.58,598.65 514.61,600.19 514.64,601.74 L514.64,603.95 C514.64,604.95 514.56,605.86 514.51,606.81 L514.51,607.18 L514.44,608.43 C514.37,609.84 514.28,611.71 514.27,613.61 C514.25513,615.336942 514.341947,617.063263 514.53,618.78 C514.685912,620.355481 515.042119,621.904646 515.59,623.39 C515.874336,624.132769 516.254197,624.835345 516.72,625.48 C517.191825,626.13112 517.782125,626.687495 518.46,627.12 C518.874287,627.38563 519.32594,627.587863 519.8,627.72 C519.503487,627.738069 519.209072,627.781562 518.92,627.85 C518.653432,627.91516 518.425355,628.087001 518.289207,628.325261 C518.153058,628.563521 518.120804,628.847261 518.2,629.11 C518.274202,629.367879 518.44175,629.588899 518.67,629.73 C518.823841,629.812775 518.995324,629.857361 519.17,629.86 C519.266604,629.864921 519.363396,629.864921 519.46,629.86 C520.4,629.69 521.35,629.55 522.3,629.43 L522,629.43 C524.17,629.2 526,629.02 527.77,628.9 C529.65,628.78 531.61,628.71 534.15,628.68 L535.54,628.68 C539.08,628.68 542.63,628.82 546.54,628.98 L548.38,629.05 L548.69,629.05 C551.99,629.18 555.41,629.32 558.78,629.37 L560.49,629.37 L562.76,629.37 L563.53,629.37 L564.8,629.37 L571.74,629.37 L572.87,629.37 C589.2,629.37 606.2,629.75 624.87,630.53 C633.07,630.87 641.74,631.31 651.38,631.86 C655.813333,632.12 660.24,632.39 664.66,632.67 L666.36,632.78 C669.77,632.99 673.19,633.21 676.61,633.46 C680.54,633.75 684.54,634.12 688.4,634.46 L693.96,634.95 C699.37,635.43 706.5,636.01 713.67,636.32 C717.27,636.47 720.53,636.55 723.61,636.55 C727.1,636.55 730.48,636.45 733.67,636.26 C736.86,636.07 739.95,635.75 743.07,635.31 C746.037545,634.890162 748.978923,634.302554 751.88,633.55 C754.559515,632.842527 757.180592,631.92983 759.72,630.82 C760.65,630.41 761.56,629.95 762.44,629.51 L763.39,629.03 L764.1,628.68 L764.4,628.53 C765.08,628.2 765.76,627.87 766.4,627.53 C766.962129,627.254371 767.478232,626.893435 767.93,626.46 C768.110332,626.279415 768.259066,626.069835 768.37,625.84 C768.437975,625.702549 768.491593,625.558453 768.53,625.41 C768.572338,625.226203 768.595793,625.038563 768.6,624.85 C768.599622,624.5756 768.559196,624.302724 768.48,624.04 C768.401132,623.767213 768.304252,623.49996 768.19,623.24 L768.14,623.14 L768.02,622.87 L769.11,621.79 L770.57,620.35 L771.57,619.41 C773.24,617.76 774.76,616.31 776.22,614.98 C777.68,613.65 779.33,612.17 780.99,610.77 C782.94,609.12 784.44,607.89 785.87,606.77 L786.01,606.66 C786.37,606.38 786.74,606.11 787.09,605.82 L787.96,605.09 L788.48,604.65 L788.57,604.57 C789,604.21 789.43,603.85 789.85,603.48 C790.27,603.11 790.6,602.8 790.97,602.48 L791.4,602.07 L792.01,601.5 C792.69,600.87 793.37,600.24 794.01,599.62 L796.92,596.98 C798.6,595.42 800.56,593.6 802.46,591.74 C804.36,589.88 806.16,587.97 807.81,586.13 C809.46,584.29 810.81,582.67 812.32,580.73 C813.53,579.22 814.75,577.73 815.95,576.19 C818.85,572.55 821.41,569.26 823.77,566.13 C829.400518,558.786345 834.576839,551.105353 839.27,543.13 C841.579448,539.166191 843.672514,535.080206 845.54,530.89 C847.318504,526.911558 848.779722,522.798747 849.91,518.59 C850.970758,514.652383 851.574733,510.60575 851.71,506.53 C851.79678,502.330801 851.295246,498.140129 850.22,494.08 C849.142923,490.000175 847.585359,486.062627 845.58,482.35 C843.547455,478.578843 841.170678,475.003634 838.48,471.67 C833.465289,465.485538 827.791827,459.865726 821.56,454.91 C815.655453,450.161204 809.496306,445.737969 803.11,441.66 C802.963334,441.567618 802.793333,441.519047 802.62,441.52 C799.938644,440.321786 797.054319,439.643121 794.12,439.52 C793.36,439.46 792.58,439.44 791.81,439.44 L791.78,439.44 Z M733.84,459.91 L733.92,459.91 L733.17,460.22 L733.76,459.97 L733.84,459.91 Z"/>
      <path fill="#553285" d="M46.78,572.198444 C46.4555624,572.176767 46.1716961,572.41628 46.14,572.74 C42.6466667,633.406667 39.15,694.096667 35.65,754.81 C31.9633333,818.67 28.2766667,882.526667 24.59,946.38 C20.7766667,1012.46 16.96,1078.53667 13.14,1144.61 C9.28,1211.53 5.42333333,1278.44333 1.57,1345.35 L0.69676446,1360.48 C0.682548701,1360.66606 0.736135835,1360.85182 0.85,1361 C0.964841428,1361.14183 1.12925712,1361.23476 1.31,1361.26 L43.01,1363.65 C43.0748461,1363.68493 43.1464886,1363.7054 43.22,1363.71 C44.11,1363.78 45.01,1363.81 45.89,1363.87 L50.06,1364.11 L60.83,1364.74 L86.05,1366.19 L137.69,1369.19 L242.58,1375.19 C312.786667,1379.25 383,1383.29667 453.22,1387.33 C591.886667,1395.33 730.553333,1403.30667 869.22,1411.26 C940.02,1415.34 1010.82,1419.41 1081.62,1423.47739 C1081.82096,1423.4992 1082.0248,1423.44096 1082.18,1423.31 C1082.33568,1423.18819 1082.43353,1423.00699 1082.45,1422.81 C1083.60333,1402.99 1084.74667,1383.16 1085.88,1363.32 C1085.88,1363.18 1085.88,1363.04 1085.88,1362.9 C1085.88496,1362.8401 1085.88496,1362.7799 1085.88,1362.72 C1085.88963,1362.64029 1085.88963,1362.55971 1085.88,1362.48 C1085.98,1360.48 1086.1,1358.54 1086.21,1356.57 C1086.4,1353.07 1086.6,1349.57 1086.8,1346.08 L1088.06,1323.95 L1090.91,1274.47 L1096.76,1172.88 L1108.76,964.53 C1115.08,854.703333 1121.41333,744.88 1127.76357,635.06 C1127.77847,634.87385 1127.72478,634.687712 1127.61,634.54 C1127.49769,634.396814 1127.33124,634.306353 1127.15,634.29 C1098.33,632.63 1069.50667,630.963333 1040.68,629.29 L1006.6,627.29 L993.48,626.54 C992.86,626.54 992.24,626.48 991.62,626.46 L989.62,626.36 L986.14,626.18 L981.54,625.95 C981.419666,625.947991 981.300305,625.971863 981.19,626.02 L819,616.74 L438.34,594.74 L240.59,583.34 L202.29,581.13 L166.22,579.07 L64.4,573.21 L46.82,572.21 L46.78,572.198444 Z M22.28,1361.11 L2.08,1359.9 L6.02,1291.53 L8.55,1247.67 L11.85,1190.36 L13.49,1161.67 L13.67,1158.5 L18.54,1073.65 L21.88,1015.52 L25.03,960.52 L33.65,810.64 C37.8833333,736.5 42.1466667,662.356667 46.44,588.21 L46.54,586.42 L47.28,573.42 L47.33,573.42 L146.68,579.14 L150.56,579.36 L178.86,581 L180.86,581.11 L185.01,581.35 C199.27,582.176667 213.53,583 227.79,583.82 L315.98,588.89 L320.05,589.12 L361.16,591.48 L421.91,594.96 L805.6,616.96 C861.76,620.193333 917.92,623.413333 974.08,626.62 L977.59,626.83 L981.26,627.04 C981.331494,627.097522 981.418558,627.132348 981.51,627.14 L985.51,627.4 L989.51,627.66 L990.06,627.66 L992.3,627.82 L993.05,627.87 L995.82,628.03 L1005.17,628.58 L1040.51,630.58 L1097.51,633.86 L1126.33,635.57 C1118.33,774.81 1110.31333,914.056667 1102.28,1053.31 L1093,1216 L1088.62,1292 L1088.48,1294.44 L1088.4,1295.84 C1087.68667,1308.22667 1086.97,1320.61333 1086.25,1333 L1085.59,1344.32 L1085.25,1350.16 L1084.82,1357.56 L1084.75,1358.75 C1084.68,1359.95 1084.61,1361.15 1084.52,1362.37 C1084.5132,1362.42312 1084.5132,1362.47688 1084.52,1362.53 L1084.52,1362.8 L1084.52,1363.34 L1082.26,1402.64 L1081,1422 L995.64,1417.07 L969.32,1415.55 L871.6,1409.92 L860.05,1409.25 L851.05,1408.73 L840.96,1408.15 L748.8,1402.84 L663.25,1397.91 C523.75,1389.86333 384.246667,1381.83 244.74,1373.81 L193.79,1370.88 L139.79,1367.78 L113.13,1366.25 L88.01,1364.81 L62.7,1363.36 L61.77,1363.3 L51.92,1362.74 L50.3,1362.65 L49.3,1362.59 L47.18,1362.47 L46.11,1362.41 C45.2,1362.35 44.27,1362.29 43.35,1362.26 C43.2635979,1362.25042 43.1764021,1362.25042 43.09,1362.26 L22.24,1361.06 L22.28,1361.11 Z"/>
      <path fill="#553285" d="M116.08 695.37C115.923357 695.490998 115.825262 695.672656 115.81 695.87L112.73 749.36C111.156667 776.76 109.583333 804.156667 108.01 831.55L107.24 844.89C106.426667 858.83 105.623333 872.78 104.83 886.74 104.596667 890.88 104.363333 895.016667 104.13 899.15L104.13 899.42C103.863333 904.18 103.596667 908.936667 103.33 913.69L103.28 914.56 102.82 922.46 101.659733 942.72C101.655633 942.881353 101.704867 943.039603 101.8 943.17 101.914536 943.310528 102.079778 943.400333 102.26 943.42L156.2 946.51 182.94 948.05 237.11 951.15 372.11 958.89C383.37 959.556667 394.633333 960.19 405.9 960.79 416.406667 961.37 426.926667 961.97 437.46 962.59L440.76 962.780939C440.897096 962.787946 441.032331 962.74524 441.14 962.66 441.257682 962.5706 441.333581 962.436874 441.35 962.29L441.96 951.65 442.13 948.73 442.3 945.81C442.64 939.903333 442.973333 933.993333 443.3 928.08 443.6 922.613333 443.903333 917.14 444.21 911.66 444.516667 906.18 444.82 900.706667 445.12 895.24 446.333333 873.306667 447.55 851.366667 448.77 829.42L451.05 788.85 451.83 774.66 451.83 774.11 452.21 767.4 452.57 760.7C452.75 757.46 452.936667 754.213333 453.13 750.96L453.35 747.04 454.15 733.19 454.95 719.32C454.952741 719.265246 454.932886 719.211768 454.895078 719.172069 454.857269 719.13237 454.804822 719.109931 454.75 719.11 454.646904 719.109483 454.560308 719.18742 454.55 719.29L453.55 736.19 452.64 752.08C452.186667 759.833333 451.726667 767.576667 451.26 775.31L450.65 785.63C449.316667 807.79 447.983333 829.976667 446.65 852.19 446.05 862.236667 445.446667 872.296667 444.84 882.37L443.41 906.43C443.163333 910.556667 442.916667 914.69 442.67 918.83L442.67 919.3 442.51 921.89 442.33 924.78 442.19 927.08 442.1 928.73C442.01 930.12 441.93 931.51 441.85 932.92 441.296667 942.466667 440.73 952.036667 440.15 961.63L436.61 961.42C426.756667 960.86 416.91 960.29 407.07 959.71 397.736667 959.136667 388.383333 958.583333 379.01 958.05L374.5 957.79 374.17 957.79 306.51 953.87 171.74 946.08 137.88 944.08 103.06 942 103.62 932.29C104.08 924.343333 104.543333 916.39 105.01 908.43 105.676667 897.55 106.313333 886.673333 106.92 875.8 107.5 865.8 108.076667 855.8 108.65 845.8L109.46 831.8 109.46 830.99 110.74 808.67C112.893333 771.376667 115.06 734.07 117.24 696.75L125.8 697.24 130.8 697.53 135.71 697.81 151.3 698.71C161.666667 699.33 172.036667 699.933333 182.41 700.52L182.79 700.52 201.38 701.6 210.69 702.13 223.83 702.88 224.59 702.88 250.59 704.37 342.79 709.68 388 712.29 421.45 714.22 455 716.2C455.182616 716.211881 455.362472 716.15073 455.5 716.03 455.679178 715.894706 455.786132 715.684487 455.79 715.46 455.79 715.273019 455.72099 715.092571 455.6 714.95 455.481779 714.801946 455.308593 714.708137 455.12 714.69L318.2 706.82 249.45 702.82 219.35 701.08 218.35 701.02 181.71 699 181.34 699 151 697.19 125.6 695.73 125.3 695.73 116.61 695.228442C116.43213 695.218031 116.256531 695.27537 116.12 695.39L116.08 695.37zM549.29 740.19C549.150659 740.29551 549.06327 740.455723 549.05 740.63L547.68 764.4 547.34 770.4C547.03 775.71 546.73 781.03 546.41 786.34 546.163333 790.46 545.92 794.586667 545.68 798.72L545.38 803.93 544.74 815.09 544.11 826.25C542.41 855.943333 540.706667 885.636667 539 915.33L538.62 921.87C538.14 930.22 537.62 938.57 537.169526 946.99 537.157097 947.333001 537.409258 947.628637 537.75 947.67L544.29 948.06 547.56 948.24 553.3 948.57 559.04 948.9 570.38 949.56 581.72 950.22 625.35 952.74 627.86 952.88 694.99 956.76 720.29 958.21C782.45 961.796667 844.616667 965.376667 906.79 968.95L949.94 971.43 963.78 972.23 1007.95 974.770638 1008.01 974.770638C1008.17641 974.777161 1008.3398 974.723883 1008.47 974.62 1008.61716 974.511097 1008.70867 974.342723 1008.72 974.16 1009.08667 967.746667 1009.45333 961.34 1009.82 954.94L1009.82 954.06 1009.87 953.3C1010.29 945.853333 1010.71333 938.406667 1011.14 930.96L1012.71 903.79 1013.71 885.68 1016.35 839.85 1019.02 793.55 1019.08 792.55 1020.51022 767.8C1020.51022 767.640132 1020.46091 767.484065 1020.36 767.36 1020.25244 767.216389 1020.08876 767.125452 1019.91 767.11L998.91 765.9 991.75 765.49 989.75 765.37 989.3 765.37 988.15 765.31 982.27 764.97 980.84 764.88 978.39 764.74 978.28 764.74 975.91 764.61 974.24 764.51 972.55 764.42 972.24 764.42C971.95 764.42 971.66 764.42 971.36 764.42L971.09 764.42C971.027327 764.407065 970.962673 764.407065 970.9 764.42L964.65 764.1C964.425801 764.093575 964.21413 764.20319 964.09 764.39L961.37 764.23 956.96 763.97 945.25 763.27 934.17 762.62C903.216667 760.78 872.266667 758.956667 841.32 757.15L840.22 757.08 797.52 754.57 795.41 754.45 655.25 746.23 603.58 743.23 565.22 741 564.73 741 549.73 740.129328C549.572677 740.122614 549.418594 740.176364 549.3 740.28L549.29 740.19zM935.29 969.19L916.67 968.12 870.49 965.45 824.32 962.79 638.2 952 587.26 949.08C579.26 948.613333 571.236667 948.153333 563.19 947.7L561.88 947.62 555.71 947.27 549.63 946.92 549.45 946.92 546.08 946.72 538.56 946.28C539.36 932.2 540.17 918.12 540.99 904.04L541.2 900.34 542.4 879.71 543.58 859.08 545.92 818.93 546.04 816.73 546.19 814.25C546.576667 807.37 546.97 800.49 547.37 793.61 547.543333 790.67 547.71 787.726667 547.87 784.78L547.87 784.34C548.03 781.55 548.18 778.75 548.34 775.95 549.006667 764.443333 549.673333 752.933333 550.34 741.42 581.246667 743.2 612.163333 744.97 643.09 746.73L680.3 748.84 698.3 749.84 735.3 751.94C751.613333 752.866667 767.926667 753.786667 784.24 754.7L797.09 755.43 827.99 757.16 842.99 758.01C869.39 759.503333 895.79 760.99 922.19 762.47L943.12 763.64 964.06 764.82C964.142805 765.015005 964.328567 765.146587 964.54 765.16L965.13 765.16 968.13 765.35 969.03 765.41 969.92 765.41 970.03 765.41C970.341956 765.414226 970.653023 765.44433 970.96 765.5 971.02309 765.507844 971.08691 765.507844 971.15 765.5L971.3 765.5C971.586667 765.5 971.876667 765.52 972.17 765.56L972.43 765.56 975.22 765.73 975.79 765.73 977.03 765.8 978.26 765.87C978.97 765.93 979.67 765.96 980.38 766L981.06 766 982.15 766.06 982.28 766.06 987.08 766.34 991.61 766.6 997.86 766.96C1004.95333 767.373333 1012.05333 767.79 1019.16 768.21L1016.43 815.7 1013.84 860.7 1012.21 889.08C1011.03667 909.68 1009.85333 930.276667 1008.66 950.87L1008.11 960.23 1007.69 967.14 1007.34 972.99C983.34 971.603333 959.34 970.22 935.34 968.84L935.29 969.19zM71.78 1073.64C71.6113336 1073.7665 71.5055959 1073.95974 71.49 1074.17L69.36 1111.17 68.59 1124.63 68.54 1125.45 67.83 1137.74 66.39 1162.74C64.7566667 1190.95333 63.1166667 1219.19333 61.4695865 1247.46 61.4565374 1247.88961 61.7732839 1248.25843 62.2 1248.31L66.2 1248.55 67.03 1248.55 69.49 1248.69 70.13 1248.69 76.75 1249.08 87.99 1249.73 98.09 1250.32 98.94 1250.32 144.29 1252.95C174.356667 1254.70333 204.43 1256.44333 234.51 1258.17L358.85 1265.35 417.98 1268.75 603.51 1279.44 789.04 1290.13 870.81 1294.84 1039.54 1304.56078 1039.63 1304.56078C1039.85556 1304.56933 1040.07654 1304.49448 1040.25 1304.35 1040.45028 1304.19874 1040.57738 1303.96996 1040.6 1303.72L1045.6 1217.15 1050.60021 1130.5 1050.60021 1130.39C1050.60021 1130.1729 1050.53397 1129.9609 1050.4 1129.79 1050.24762 1129.59772 1050.02405 1129.47512 1049.78 1129.45L1040.46 1128.91 1033.33 1128.5 1015.93 1127.5 1012.73 1127.32 1005.43 1126.91 998.14 1126.49 994.63 1126.29 991.12 1126.1 989.23 1125.99 987.34 1125.89 986.73 1125.89 984.19 1125.76C983.866318 1125.76378 983.564489 1125.92401 983.38 1126.19L975.53 1125.73 966.91 1125.22 921.72 1122.57 876.53 1119.92C829.143333 1117.14 781.75 1114.37667 734.35 1111.63L733.86 1111.63 697.3 1109.51C618.953333 1104.95 540.62 1100.41 462.3 1095.89L439.06 1094.55 333.33 1088.44 308 1087.06 201.92 1080.93 137.11 1077.2 72.29 1073.46884C72.0984387 1073.45956 71.9097488 1073.52008 71.76 1073.64L71.78 1073.64zM855.12 1292.17L681.46 1282.17 640.16 1279.79 619.57 1278.6 310.89 1260.85 180.66 1253.37 119.85 1249.89 87.42 1248 82.66 1247.73C79.28 1247.54 75.91 1247.34 72.53 1247.16L69 1247 63.26 1246.66C64.8066667 1219.26667 66.3666667 1191.88 67.94 1164.5 68.92 1147.3 69.92 1130.1 70.94 1112.9 71.6533333 1100.70667 72.3566667 1088.52 73.05 1076.34L73.13 1075.15 117.6 1077.72 143.26 1079.2 249 1085.26 339.78 1090.46 430.55 1095.67 492.06 1099.19 611.32 1106.02 710.57 1111.69 741.98 1113.48 793.86 1116.48C832.62 1118.7 871.38 1120.9 910.14 1123.08L925.42 1123.95 944.65 1125.04 945.37 1125.04 983.37 1127.19C983.502227 1127.46996 983.771853 1127.65984 984.08 1127.69 984.48 1127.69 984.89 1127.76 985.29 1127.78L989.57 1128.03 993.75 1128.28 997.93 1128.52 998.29 1128.52 999.62 1128.59 1012.52 1129.34 1032.28 1130.49 1048.66 1131.49 1045.2 1191.58 1038.77 1302.76 855.13 1292.19 855.12 1292.17z"/>
      <path fill="#D4CDCD" d="M47.33,573.42 L47.28,573.42 L46.54,586.42 L46.44,588.21 C42.1466667,662.35 37.8833333,736.496667 33.65,810.65 L25,960.53 L21.85,1015.53 L18.51,1073.66 L13.65,1158.51 L13.47,1161.68 L11.82,1190.37 L8.52,1247.68 L6,1291.53 L2.07,1359.9 L22.25,1361.11 L43.11,1362.31 C43.1964021,1362.30042 43.2835979,1362.30042 43.37,1362.31 C44.29,1362.31 45.22,1362.4 46.13,1362.45 L47.2,1362.52 L49.32,1362.64 L50.32,1362.7 L51.94,1362.79 L61.79,1363.35 L62.72,1363.41 L88.03,1364.86 L113.15,1366.29 L139.81,1367.83 L193.81,1370.93 L244.76,1373.86 C384.26,1381.86 523.763333,1389.89333 663.27,1397.96 L748.82,1402.89 L840.98,1408.2 L851.07,1408.78 L860.07,1409.3 L871.62,1409.97 L969.34,1415.6 L995.66,1417.12 L1081,1422 L1082.15,1402.67 L1084.42,1363.37 C1084.42,1363.17 1084.42,1363 1084.42,1362.83 L1084.42,1362.56 C1084.41388,1362.50684 1084.41388,1362.45316 1084.42,1362.4 C1084.51,1361.18 1084.58,1359.98 1084.65,1358.78 L1084.72,1357.59 L1085.15,1350.19 L1085.49,1344.35 L1086.15,1333.03 C1086.87,1320.64333 1087.58667,1308.25667 1088.3,1295.87 L1088.38,1294.47 L1088.52,1292.03 L1092.9,1216.03 C1096.02,1161.83 1099.14,1107.63333 1102.26,1053.44 C1110.26,914.2 1118.27667,774.953333 1126.31,635.7 L1097.59,634 L1040.59,630.72 L1005.25,628.72 L995.9,628.18 L993.13,628.01 L992.38,627.96 L990.14,627.8 L989.59,627.8 L985.59,627.54 L981.59,627.28 C981.497438,627.277403 981.408819,627.241955 981.34,627.18 L977.67,626.97 L974.16,626.76 C918,623.56 861.84,620.34 805.68,617.1 L421.99,595.1 L361.24,591.62 L320,589.12 L315.93,588.89 L227.74,583.82 L185,581.36 L180.85,581.11 L178.85,581 L150.54,579.36 L146.66,579.14 L47.31,573.42 L47.33,573.42 Z M1020.21,680.42 L1021.21,680.42 L1022.55,680.42 L1022.72,680.42 L1023.06,680.42 C1022.87755,680.768223 1022.72048,681.129161 1022.59,681.5 C1022.36,682.11 1022.16,682.73 1021.96,683.35 C1021.79,683.12 1021.6,682.89 1021.41,682.66 L1020.92,682.08 C1020.36,681.41 1019.98,680.92 1019.66,680.46 C1019.83632,680.475636 1020.01368,680.475636 1020.19,680.46 L1020.21,680.42 Z M440.74,962.82 L437.44,962.62 L405.88,960.82 C394.613333,960.2 383.35,959.566667 372.09,958.92 C327.103333,956.346667 282.103333,953.766667 237.09,951.18 L182.92,948.08 L156.18,946.55 L102.24,943.45 C102.059778,943.430333 101.894536,943.340528 101.78,943.2 C101.681977,943.070523 101.629992,942.912396 101.629992,942.75 L102.8,922.49 L103.26,914.59 L103.31,913.72 C103.576667,908.973333 103.843333,904.216667 104.11,899.45 L104.11,899.19 C104.343333,895.05 104.576667,890.91 104.81,886.77 C105.61,872.823333 106.41,858.873333 107.21,844.92 L107.98,831.58 C109.56,804.193333 111.136667,776.796667 112.71,749.39 L115.78,695.9 C115.802961,695.705005 115.899544,695.526148 116.05,695.4 C116.19106,695.28651 116.369259,695.229486 116.55,695.238767 L125.24,695.74 L125.54,695.74 L150.94,697.2 L181.32,698.93 L181.69,698.93 C193.89,699.596667 206.09,700.3 218.29,701.04 L219.29,701.1 L249.4,702.84 L318.15,706.84 L455.02,714.71 C455.21119,714.719247 455.387806,714.814914 455.5,714.97 C455.63559,715.123271 455.702663,715.325291 455.688262,715.529222 C455.668675,715.733154 455.569089,715.921285 455.41,716.05 C455.267814,716.169478 455.085436,716.230271 454.9,716.22 L421.46,714.3 L388.01,712.37 L342.8,709.77 L250.6,704.45 L224.6,702.96 L223.84,702.96 L210.7,702.21 L201.39,701.67 L182.8,700.6 L182.42,700.6 C172.046667,700.013333 161.676667,699.41 151.31,698.79 L135.72,697.89 L130.82,697.61 L125.82,697.32 L117.26,696.83 C115.06,734.163333 112.893333,771.47 110.76,808.75 L109.51,831 L109.51,831.81 L108.71,845.81 L106.97,875.81 C106.336667,886.69 105.7,897.566667 105.06,908.44 C104.58,916.386667 104.116667,924.34 103.67,932.3 L103.12,942.01 L137.98,944.07 L171.84,946.07 L306.61,953.85 L374.27,957.78 L374.6,957.78 L379.11,958.04 C388.443333,958.58 397.796667,959.13 407.17,959.69 C417.01,960.276667 426.856667,960.85 436.71,961.41 L440.25,961.62 C440.836667,952.02 441.403333,942.45 441.95,932.91 C442.03,931.51 442.11,930.11 442.2,928.72 L442.29,927.07 L442.43,924.77 L442.61,921.88 L442.77,919.29 L442.77,918.82 C443.01,914.68 443.253333,910.546667 443.5,906.42 L444.94,882.36 C445.546667,872.3 446.15,862.236667 446.75,852.17 C448.083333,829.95 449.416667,807.766667 450.75,785.62 L451.36,775.3 C451.82,767.56 452.276667,759.816667 452.73,752.07 L453.65,736.18 L454.65,719.28 C454.665025,719.175865 454.754792,719.098922 454.86,719.1 C454.914822,719.099931 454.967269,719.12237 455.005078,719.162069 C455.042886,719.201768 455.062741,719.255246 455.06,719.31 L454.26,733.18 L453.47,747.03 L453.24,750.95 C453.046667,754.19 452.863333,757.436667 452.69,760.69 L452.32,767.39 L451.94,774.1 L451.94,774.65 L451.15,788.84 C450.39,802.36 449.629992,815.883333 448.87,829.41 C447.65,851.35 446.433333,873.29 445.22,895.23 C444.92,900.703333 444.616667,906.176667 444.31,911.65 C444.003333,917.123333 443.7,922.596667 443.4,928.07 C443.08,933.983333 442.746667,939.893333 442.4,945.8 L442.23,948.72 L442.06,951.64 L441.45,962.28 C441.433581,962.426874 441.357682,962.5606 441.24,962.65 C441.132857,962.737205 440.998106,962.783304 440.86,962.78 L440.74,962.82 Z M1008.01,974.82 L1008,974.82 L963.83,972.28 L949.99,971.48 L906.84,969 L720.34,958.27 L695.04,956.81 L627.91,952.93 L625.4,952.79 L581.77,950.27 L570.43,949.61 L559.09,948.96 L553.35,948.62 L547.61,948.29 L544.34,948.11 L537.8,947.72 C537.627807,947.699936 537.470094,947.613911 537.36,947.48 C537.264912,947.353389 537.219724,947.19828 537.219724,947.04 C537.71,938.62 538.22,930.27 538.67,921.92 L539.05,915.38 C540.75,885.686667 542.453333,855.993333 544.16,826.3 L544.79,815.14 L545.43,803.98 L545.73,798.77 C545.97,794.643333 546.213333,790.516667 546.46,786.39 C546.78,781.08 547.08,775.76 547.39,770.45 L547.73,764.45 L549.1,740.67 C549.111978,740.495344 549.19964,740.33463 549.34,740.23 C549.458594,740.126364 549.612677,740.072614 549.77,740.079328 L564.77,740.95 L565.26,740.95 L603.62,743.18 L655.29,746.18 L795.45,754.4 L797.56,754.52 L840.26,757.03 L841.36,757.1 L934.21,762.57 L945.29,763.22 L957,763.92 L961.41,764.18 L964.13,764.34 C964.256661,764.156035 964.466665,764.047283 964.69,764.05 L970.94,764.37 C971.002751,764.357856 971.067249,764.357856 971.13,764.37 L971.4,764.37 L972.28,764.37 L972.59,764.37 L974.27,764.46 L975.95,764.56 L978.32,764.69 L978.43,764.69 L980.88,764.83 L982.31,764.92 L988.19,765.26 L989.34,765.32 L989.79,765.32 L991.79,765.44 L998.95,765.85 L1019.95,767.06 C1020.12731,767.080084 1020.28928,767.170068 1020.4,767.31 C1020.49939,767.434902 1020.55008,767.590398 1020.55008,767.75 L1019.12,792.51 L1019.07,793.51 L1016.39,839.81 L1013.75,885.64 L1012.75,903.75 L1011.18,930.92 C1010.76,938.373333 1010.33667,945.82 1009.91,953.26 L1009.91,954.02 L1009.91,954.9 C1009.55,961.306667 1009.18333,967.713333 1008.81,974.12 C1008.79734,974.302339 1008.70612,974.470192 1008.56,974.58 C1008.4298,974.683883 1008.26641,974.737161 1008.1,974.73 L1008.01,974.82 Z M1039.67,1304.82 L1039.59,1304.82 L870.85,1295 L789.08,1290.29 L603.55,1279.61 L418,1268.91 L358.87,1265.51 L234.53,1258.33 L144.31,1253.12 L99,1250.48 L98.15,1250.48 L88.05,1249.9 L76.81,1249.24 L70.19,1248.85 L69.55,1248.85 L67.09,1248.71 L66.26,1248.71 C64.91,1248.64 63.57,1248.56 62.26,1248.47 C61.8292992,1248.42322 61.5070273,1248.05304 61.5196218,1247.62 C63.1666667,1219.32 64.8066667,1191.08 66.44,1162.9 L67.88,1137.9 L68.59,1125.61 L68.64,1124.79 L69.41,1111.33 C70.1233333,1098.99 70.8333333,1086.65667 71.54,1074.33 C71.5555959,1074.11974 71.6613336,1073.9265 71.83,1073.8 C71.9797488,1073.68008 72.1684387,1073.61956 72.36,1073.62884 L137.18,1077.36 L201.99,1081.09 L308,1087.06 L333.29,1088.53 L439.02,1094.64 L462.26,1095.98 C540.6,1100.51333 618.933333,1105.05333 697.26,1109.6 L733.82,1111.72 L734.31,1111.72 C781.703333,1114.47333 829.096667,1117.23667 876.49,1120.01 L921.68,1122.66 L966.87,1125.31 L975.49,1125.82 L983.34,1126.28 C983.524489,1126.01401 983.826318,1125.85378 984.15,1125.85 C985.05,1125.85 985.88,1125.93 986.69,1125.98 L987.3,1125.98 L989.19,1126.08 L991.08,1126.19 L994.59,1126.38 L998.1,1126.58 L1005.39,1127 L1012.69,1127.41 L1015.88,1127.59 L1033.29,1128.59 L1040.42,1129 L1049.74,1129.54 C1050.21645,1129.59191 1050.57324,1130.00091 1050.56036,1130.48 L1050.56036,1130.59 L1045.56,1217.24 L1040.56,1303.81 C1040.54494,1304.05981 1040.42055,1304.29029 1040.22,1304.44 C1040.04005,1304.57972 1039.81779,1304.65381 1039.59,1304.65 L1039.67,1304.82 Z" opacity=".64"/>
      <path fill="#D4CDCD" d="M550.38 741.44C549.713333 752.96 549.046667 764.47 548.38 775.97 548.22 778.77 548.063333 781.566667 547.91 784.36L547.91 784.8C547.75 787.74 547.59 790.69 547.41 793.63 547.023333 800.51 546.63 807.39 546.23 814.27L546.08 816.75 545.95 818.95C545.183333 832.336667 544.41 845.72 543.63 859.1L542.44 879.73 541.25 900.36 541.03 904.06C540.223333 918.14 539.413333 932.22 538.6 946.3L546.12 946.74 549.49 946.94 549.67 946.94 555.75 947.29 561.92 947.64 563.22 947.71 587.3 949.1 638.24 952.02 824.36 962.73 870.53 965.39 916.71 968.05 935.33 969.12 1007.33 973.28 1007.68 967.43 1008.1 960.52 1008.65 951.16C1009.85 930.56 1011.03333 909.963333 1012.2 889.37L1013.83 860.99 1016.42 815.99 1019.15 768.5C1012.03 768.066667 1004.93 767.653333 997.85 767.26L991.6 766.89 987.07 766.63 982.27 766.35 982.14 766.35 981.05 766.29 980.36 766.29 978.25 766.16 977 766 975.76 765.93 975.19 765.93 972.4 765.76 972.14 765.76C971.853333 765.76 971.563333 765.74 971.27 765.7L971.12 765.7C971.056988 765.709026 970.993012 765.709026 970.93 765.7 970.622743 765.647682 970.311678 765.620924 970 765.62L969.89 765.62 969 765.56 968.1 765.5 965.1 765.32 964.51 765.32C964.300765 765.298964 964.12011 765.164433 964.04 764.97L943.09 763.79 922.16 762.63C895.766667 761.15 869.37 759.66 842.97 758.16L827.97 757.32 797.07 755.58 784.22 754.85C767.913333 753.936667 751.6 753.016667 735.28 752.09L698.28 750 680.28 749 643.07 746.89 550.32 741.59 550.38 741.44zM73.07 1073.16L72.99 1074.36C72.29 1086.54 71.5866667 1098.72333 70.88 1110.91L67.88 1162.51C66.3133333 1189.90333 64.7533333 1217.29 63.2 1244.67L68.94 1245.01 72.51 1245.22 82.64 1245.79 87.4 1246.06 119.82 1247.91 180.64 1251.39 310.87 1258.87 619.55 1276.63 640.14 1277.81 681.44 1280.19 855.1 1290.19 1038.74 1300.76 1045.16 1189.58 1048.63 1129.5 1032.25 1128.5 1012.49 1127.35 999.59 1126.6 998.26 1126.52 997.9 1126.52 993.72 1126.27 989.54 1126.03 985.26 1125.77C984.86 1125.77 984.45 1125.77 984.05 1125.69 983.741853 1125.65984 983.472227 1125.46996 983.34 1125.19L945.34 1123.03 944.62 1123.03 925.39 1121.94 910.11 1121.08C871.35 1118.88667 832.59 1116.68667 793.83 1114.48L741.95 1111.48 710.54 1109.69 611.29 1104.02 492.03 1097.19 430.52 1093.66 339.75 1088.46 248.97 1083.26 143.2 1077.2 117.54 1075.72 73.07 1073.16z" opacity=".64"/>
      <path fill="#11275A" d="M265.64 1202.16L255.81 1201.52 265.55 1183.6C269.290905 1182.34956 273.092382 1181.28822 276.94 1180.42M299.36 1171.41C296.34 1171.79667 293.46 1172.18667 290.72 1172.58L286.78 1162.39 280.33 1174.21C276.39 1174.87667 272.803333 1175.54333 269.57 1176.21L288.09 1142.21 299.36 1171.41zM312.43 1205.21L303.11 1204.6 292.59 1177.41C295.59 1176.92 298.59 1176.49 301.19 1176.13L312.43 1205.21z"/>
      <path fill="#11275A" d="M257.44 1198.47L256.63 1199.96C243.92 1195.39 225.52 1185.47 269.57 1176.24L265.57 1183.6C254.73 1187.33 248.72 1192.26 257.44 1198.47L257.44 1198.47zM315.47 1169.52L313.78 1174.63C313.78 1174.63 308.56 1175.12 301.19 1176.13L299.36 1171.41C304.333333 1170.77 309.703333 1170.14 315.47 1169.52L315.47 1169.52z"/>
      <polygon fill="#11275A" points="373.36 1209.19 330.36 1206.38 334.14 1148.38 376.26 1151.13 375.72 1159.29 342.58 1157.13 341.58 1173.13 370.24 1175 369.7 1183.16 341 1181.26 339.86 1198.81 373.86 1201.04"/>
      <path fill="#11275A" d="M424 1194.65L408 1193.65 406.84 1211.42 397.84 1210.83 401.63 1152.83 427.9 1154.55C438.79 1155.26 447.73 1162.23 446.82 1176.12 446.22 1185.38 440.67 1191.54 433.4 1193.85L448 1214 437 1213.28 424 1194.65zM410.12 1161.54L408.55 1185.54 424.18 1186.54C431.1 1186.99 437.03 1182.88 437.51 1175.54 438.04 1167.42 432.67 1163 425.75 1162.54L410.12 1161.54zM500.75 1158.41C518.39 1159.56 530.63 1173.06 529.49 1190.57 528.35 1208.08 514.49 1219.27 496.85 1218.12 479.51 1216.98 467.24 1203.96 468.37 1186.58 469.5 1169.2 483.41 1157.28 500.75 1158.41zM497.4 1209.62C510.17 1210.45 519.27 1202.51 520.1 1189.87 520.93 1177.23 512.96 1167.74 500.19 1166.87 487.77 1166.06 478.68 1174.47 477.86 1187.07 477.04 1199.67 485 1208.81 497.4 1209.62z"/>
      <polygon fill="#11275A" points="583.94 1203.69 563.94 1178.4 561.13 1221.46 552.13 1220.87 555.92 1162.87 563.99 1163.4 585.63 1192.52 610.76 1166.45 618.76 1166.98 614.97 1224.98 605.97 1224.39 608.79 1181.25 585.79 1203.82"/>
      <path fill="#11275A" d="M680.62,1217.12 L651.36,1215.21 L645.87,1226.99 L636.3,1226.37 L664.01,1169.93 L673.83,1170.57 L694.01,1230.14 L684.44,1229.51 L680.62,1217.12 Z M654.32,1207.9 L678.41,1209.47 L668.31,1180.29 L654.32,1207.9 Z"/>
      <polygon fill="#11275A" points="725.11 1182.37 705.93 1181.12 706.48 1172.7 753.68 1175.79 753.13 1184.2 734 1183 730.77 1232.59 721.84 1232.01"/>
      <polygon fill="#11275A" points="814.82 1238 771.82 1235.19 775.61 1177.19 817.72 1179.94 817.19 1188.1 784 1186 783 1202 811.66 1203.87 811.13 1212.02 782.47 1210.15 781.32 1227.71 815.32 1229.93"/>
      <path fill="#11275A" d="M878.7,1186.27 L877.37,1194.72 C873.55,1192.24 867.31,1190.54 861.8,1190.18 C854.2,1189.69 849.07,1191.97 848.7,1197.61 C848.31,1203.67 852.99,1204.88 857.51,1206.54 L865.85,1209.62 C874.23,1212.7 879.48,1216.94 878.92,1225.53 C878.27,1235.53 869.28,1242.44 856.92,1241.63 C849.07,1241.12 840.21,1238.83 836.17,1236.25 L837.48,1228.05 C841.58,1230.34 849.95,1232.9 856.48,1233.32 C863.48,1233.78 868.93,1231.13 869.29,1225.58 C869.6,1220.93 867.29,1218.89 861.71,1216.94 L852.57,1213.72 C845.82,1211.31 838.5,1207.1 839.09,1198.13 C839.78,1187.54 847.97,1181.08 861.33,1181.96 C867.345203,1182.25332 873.245408,1183.71733 878.7,1186.27 L878.7,1186.27 Z"/>
      <path fill="#7F7F7F" d="M463 700C462.978892 700.274917 463.184321 700.515033 463.459192 700.536727 463.734063 700.558422 463.974617 700.353506 463.996898 700.078682 464.019178 699.803858 463.814776 699.562867 463.54 699.54 463.26712 699.527702 463.031241 699.728635 463 700L463 700zM452.41 696.62C452.398956 696.752704 452.441304 696.884331 452.527656 696.985701 452.614007 697.08707 452.737228 697.149806 452.87 697.16 453.14288 697.172298 453.378759 696.971365 453.41 696.7 453.413746 696.47631 453.283995 696.271854 453.08 696.18L452.83 696.18C452.601496 696.212375 452.426558 696.399809 452.41 696.63L452.41 696.62z" opacity=".64"/>
      <path fill="#7F7F7F" d="M31.76 571.14C31.3237743 571.133194 30.9567415 571.465271 30.92 571.9 30.85 572.9 30.8 573.9 30.74 574.96L30.38 581.32C30.12 585.88 29.8633333 590.446667 29.61 595.02 29.1166667 603.593333 28.6333333 612.166667 28.16 620.74L25.2476736 672.74C25.2153666 673.219178 25.5714488 673.637575 26.05 673.68L55.1 675.32 65.91 675.94C71.2 676.23 76.5 676.48 81.79 676.72 82.1199721 676.731965 82.4288745 676.558207 82.59 676.27L123.34 678.54 226.73 684.34C296.063333 688.226667 365.42 692.126667 434.8 696.04 574.033333 703.88 713.26 711.72 852.48 719.56 900.233333 722.226667 947.986667 724.893333 995.74 727.56 1041.82667 730.153333 1087.91667 732.736667 1134.01 735.311206 1134.44308 735.333476 1134.8178 735.011657 1134.86 734.58 1136.73333 700.946667 1138.60667 667.32 1140.48245 633.7 1140.49653 633.49034 1140.42878 633.282742 1140.29176 633.123195 1140.15474 632.963648 1139.95975 632.865322 1139.75 632.85L1046.27 627.6C1031.60333 626.773333 1016.91333 625.956667 1002.2 625.15L950.47 622.26 742.26 610.61C601.773333 602.75 461.283333 594.92 320.79 587.12L170.55 578.76C124.303333 576.186667 78.0566667 573.623333 31.81 571.07L31.76 571.14zM1013.92 727.14L1012.77 727.07 932.77 722.65 932.61 722.65C880.45 719.75 828.29 716.863333 776.13 713.99L774.35 713.89 719.41 710.89 546.59 701.36 485.41 698 306.52 688.14 163.06 680.2C136.24 678.72 109.42 677.226667 82.6 675.72 82.499446 675.425031 82.2310101 675.219757 81.92 675.2 77.02 674.873333 72.1233333 674.566667 67.23 674.28 64.56 674.12 61.88 673.98 59.23 673.84L55.23 673.62 45.65 673.1 42.96 672.95C37.65 672.66 32.33 672.37 26.96 672.05 27.9133333 655.003333 28.86 637.953333 29.8 620.9 30.2733333 612.326667 30.7433333 603.753333 31.21 595.18L31.58 588.51 31.97 581.51 32.1 579.16 32.23 576.82 32.23 576.65 32.32 575.06C32.32 574.34 32.41 573.62 32.45 572.89L70.25 575 88.32 576 125.22 578.07 221.22 583.43 324.58 589.22 327.3 589.36 433.37 595.29C545.13 601.543333 656.893333 607.76 768.66 613.94L799.3 615.64 854.91 618.72 1003.65 626.99 1023.48 628.1 1069.92 630.67C1092.86 631.93 1115.81 633.21 1138.77 634.51 1136.93 667.61 1135.08 700.716667 1133.22 733.83 1093.42 731.61 1053.62 729.403333 1013.82 727.21L1013.92 727.14zM257.59 153.52C257.578956 153.652704 257.621304 153.784331 257.707656 153.885701 257.794007 153.98707 257.917228 154.049806 258.05 154.06 258.326142 154.07933 258.56567 153.871142 258.585 153.595 258.60433 153.318858 258.396142 153.07933 258.12 153.06 257.847326 153.042774 257.611314 153.247615 257.59 153.52L257.59 153.52z" opacity=".64"/>
      <path fill="#7F7F7F" d="M146.9,631.44 C146.829288,631.505217 146.7716,631.583266 146.73,631.67 C146.901714,631.879824 147.158871,632.001055 147.43,632 L147.49,632 C147.717388,631.990965 147.932434,631.894194 148.09,631.73 C147.995787,631.499714 147.7935,631.331141 147.55,631.28 L147.4,631.28 C147.217254,631.278764 147.040025,631.342567 146.9,631.46 L146.9,631.44 Z" opacity=".96"/>
      <path fill="#7F7F7F" d="M146.9,631.44 C146.829288,631.505217 146.7716,631.583266 146.73,631.67 C146.901714,631.879824 147.158871,632.001055 147.43,632 L147.49,632 C147.717388,631.990965 147.932434,631.894194 148.09,631.73 C147.995787,631.499714 147.7935,631.331141 147.55,631.28 L147.4,631.28 C147.217254,631.278764 147.040025,631.342567 146.9,631.46 L146.9,631.44 Z" opacity=".96"/>
      <path fill="#BBBABA" d="M32.51,572.83 C32.51,573.56 32.43,574.28 32.38,575 L32.29,576.59 L32.29,576.76 L32.16,579.1 L32.03,581.45 L31.64,588.45 L31.27,595.12 C30.81,603.693333 30.34,612.266667 29.86,620.84 C28.9066667,637.913333 27.9533333,654.966667 27,672 C32.32,672.32 37.64,672.61 43,672.9 L45.69,673.05 L55.27,673.57 L59.27,673.79 C61.94,673.93 64.62,674.07 67.27,674.23 C72.17,674.51 77.0666667,674.816667 81.96,675.15 C82.2710101,675.169757 82.539446,675.375031 82.64,675.67 C109.466667,677.176667 136.286667,678.67 163.1,680.15 L306.56,688.09 L485.41,698 L546.56,701.37 L719.38,710.9 L774.32,713.9 L776.1,714 C828.26,716.88 880.42,719.766667 932.58,722.66 L932.74,722.66 L1012.74,727.08 L1013.89,727.15 C1053.69,729.35 1093.49,731.556667 1133.29,733.77 C1135.16333,700.65 1137.01333,667.543333 1138.84,634.45 C1115.88,633.116667 1092.93,631.836667 1069.99,630.61 L1023.55,628.04 L1003.72,626.93 L855,618.67 L799.39,615.59 L768.75,613.89 C656.99,607.676667 545.226667,601.46 433.46,595.24 L327.4,589.31 L324.68,589.17 L221.32,583.38 L125.32,578.02 L88.39,576 L70.32,575 L32.52,572.89 L32.51,572.83 Z M114.51,614.89 C114.854171,614.480048 114.814502,613.871777 114.42,613.51 C113.634052,612.760148 112.757218,612.111761 111.81,611.58 C111.31,611.3 110.73,611.04 110.17,610.77 C110.331867,610.848237 110.510316,610.885986 110.69,610.88 L111.93,610.88 L112.8,610.88 C113.885255,610.970043 114.956038,611.188228 115.99,611.53 C117.011499,611.899119 117.985102,612.389277 118.89,612.99 C119.850104,613.655595 120.726431,614.434553 121.5,615.31 L121.59,615.4 C122.545166,616.531632 123.361005,617.773856 124.02,619.1 C124.819506,620.765268 125.413855,622.521453 125.79,624.33 C126.171852,626.305645 126.306219,628.32115 126.19,630.33 L126.19,630.49 C126.044529,632.294559 125.678467,634.074491 125.1,635.79 C124.623568,637.116139 123.992552,638.381528 123.22,639.56 C122.55019,640.525902 121.775468,641.414652 120.91,642.21 C119.978398,643.027149 118.946816,643.72271 117.84,644.28 C116.563645,644.876852 115.220902,645.319958 113.84,645.6 C112.421819,645.862752 110.982312,645.993312 109.54,645.990061 C108.96,645.990061 108.44,645.990061 107.95,645.93 L107.82,645.93 C105.433858,645.744501 103.081346,645.253834 100.82,644.47 L100.71,644.47 L100.61,644.47 C98.5873239,643.757124 96.6622437,642.792904 94.88,641.6 C93.6357977,640.733151 92.4950236,639.726585 91.48,638.6 C90.6781354,637.684188 89.9867228,636.677276 89.42,635.6 C88.4909671,633.743628 88.0831399,631.669931 88.24,629.6 C88.3426531,628.470643 88.5741579,627.356736 88.93,626.28 L88.93,626.16 C89.5049262,624.613353 90.2601353,623.139856 91.18,621.77 C92.3971489,619.973762 93.8501504,618.349226 95.5,616.94 L95.27,617.08 C96.6913892,615.832891 98.2556431,614.758725 99.93,613.88 C101.197936,613.239457 102.541994,612.762317 103.93,612.46 C104.490615,612.353801 105.059456,612.296916 105.63,612.29 L105.83,612.29 C105.64,612.5 105.47,612.72 105.3,612.94 C105.219322,613.042377 105.176884,613.169691 105.18,613.3 C105.188606,613.431592 105.24989,613.55416 105.35,613.64 C105.440896,613.720243 105.558792,613.763115 105.68,613.76 C105.819904,613.762385 105.952956,613.699554 106.04,613.59 C106.373822,613.198639 106.731149,612.827954 107.11,612.48 L107.32,612.32 C108.000921,612.397575 108.671474,612.548449 109.32,612.77 C110.078688,613.04678 110.803363,613.409117 111.48,613.85 C112.012552,614.219112 112.517245,614.626877 112.99,615.07 C113.159973,615.231349 113.385643,615.3209 113.62,615.32 C113.905659,615.322175 114.178611,615.202076 114.37,614.99 L114.51,614.89 Z M154.43,632.23 C154.859798,631.078416 155.371093,629.958916 155.96,628.88 C156.701488,627.46979 157.519371,626.101089 158.41,624.78 L158.49,624.67 C160.061327,622.289014 161.922231,620.112361 164.03,618.19 C164.32,617.93 164.62,617.68 164.94,617.44 L165.02,617.51 C165.207788,617.665851 165.446084,617.747654 165.69,617.74 C166.598623,617.587628 167.518709,617.514021 168.44,617.52 C168.93,617.52 169.44,617.52 169.89,617.57 C171.860567,617.733146 173.800806,618.156837 175.66,618.83 L175.56,618.76 C177.685363,619.486697 179.703424,620.495728 181.56,621.76 L181.49,621.66 C183.272541,622.859944 184.886815,624.292612 186.29,625.92 L186.15,625.69 C187.283848,626.974151 188.257636,628.39118 189.05,629.91 C189.691259,631.20212 190.168299,632.56941 190.47,633.98 C190.669306,635.131934 190.73974,636.302478 190.68,637.47 C190.576023,638.655815 190.327514,639.824478 189.94,640.95 C189.485087,642.19964 188.884264,643.391216 188.15,644.5 C187.355311,645.659638 186.43286,646.726327 185.4,647.68 C184.213997,648.71685 182.899951,649.597362 181.49,650.3 C179.902344,651.061044 178.221147,651.609115 176.49,651.93 L176.6,651.93 C175.094952,652.227341 173.564131,652.374728 172.03,652.37011 C171.49,652.37011 170.94,652.37011 170.4,652.37011 C168.409414,652.223051 166.448084,651.80589 164.57,651.13 L164.66,651.2 C162.992304,650.624298 161.411031,649.823568 159.96,648.82 L160.15,648.99 C158.975624,648.202901 157.904018,647.272384 156.96,646.22 C155.417169,644.447572 154.362556,642.303881 153.9,640 C153.674937,638.739822 153.614431,637.455757 153.72,636.18 L153.67,636.29 C153.753663,634.929112 154.012464,633.584693 154.44,632.29 L154.43,632.23 Z M227.75,627.44 C228.61913,626.687455 229.576077,626.042775 230.6,625.52 C231.733726,624.961948 232.933138,624.548705 234.17,624.29 L234.69,624.2 L234.64,624.29 C234.545101,624.534446 234.545101,624.805554 234.64,625.05 C234.781,625.453362 235.162712,625.722569 235.59,625.72 C235.692834,625.73437 235.797166,625.73437 235.9,625.72 C236.597972,625.484935 237.309209,625.291265 238.03,625.14 C238.91345,624.971192 239.810577,624.884158 240.71,624.88 L241.46,624.88 C242.481214,624.965826 243.488425,625.173983 244.46,625.5 C245.519928,625.869895 246.528127,626.373995 247.46,627 C248.488748,627.723701 249.42857,628.566184 250.26,629.51 C251.195835,630.60794 251.998109,631.813028 252.65,633.1 L252.72,633.24 C253.409707,634.66676 253.926696,636.170726 254.26,637.72 L254.26,637.83 C254.551667,639.344887 254.635772,640.892426 254.51,642.43 C254.51,642.43 254.51,642.38 254.51,642.38 L254.51,642.45 C254.406125,643.675859 254.154295,644.884645 253.76,646.05 C253.415853,647.029798 252.952366,647.963491 252.38,648.83 C251.802714,649.65492 251.131549,650.409981 250.38,651.08 C249.505305,651.831986 248.541394,652.473474 247.51,652.99 C246.17194,653.631499 244.751947,654.085762 243.29,654.34 L243.45,654.34 L243.39,654.34 L243.27,654.34 C241.735894,654.620358 240.179513,654.760935 238.62,654.760005 C238.07,654.760005 237.52,654.760005 236.98,654.71 C235.307574,654.586051 233.657686,654.250025 232.07,653.71 C230.878906,653.290246 229.74377,652.726037 228.69,652.03 C227.743296,651.374104 226.874364,650.612531 226.1,649.76 C225.314352,648.866452 224.642558,647.878915 224.1,646.82 L224.03,646.73 C223.45514,645.535589 223.025413,644.276622 222.75,642.98 C222.147632,639.941246 222.365078,636.796911 223.38,633.87 C223.8253,632.595548 224.430105,631.382577 225.18,630.26 C225.874365,629.220381 226.701337,628.27575 227.64,627.45 L227.7,627.36 L227.75,627.44 Z M147.43,632 C147.158871,632.001055 146.901714,631.879824 146.73,631.67 C146.850512,631.410989 147.114521,631.249431 147.4,631.26 L147.55,631.26 C147.7935,631.311141 147.995787,631.479714 148.09,631.71 C147.932434,631.874194 147.717388,631.970965 147.49,631.98 L147.43,631.98 L147.43,632 Z" opacity=".96"/>
      <path fill="#B76F00" d="M571.86,1518.51 L571.96,1518.61 L572.05,1518.7 C572.05,1518.59 572.12,1518.49 572.16,1518.39 L571.86,1518.51 Z" opacity=".96"/>
      <path fill="url(#addprofile-e)" d="M451,1385.34 C450.73,1386.08 450.46,1386.83 450.18,1387.58 L451.38,1387.28 C451.334656,1387.48077 451.30457,1387.68469 451.29,1387.89 L451.29,1388.04 C451.19,1388.86 451.08,1389.68 450.96,1390.49 C450.61,1392.8 450.2,1395.09 449.84,1397.05 C449.513333,1398.85 449.18,1400.64667 448.84,1402.44 L448.51,1404.18 L448.34,1405.1 C448.03,1406.7 447.73,1408.29 447.46,1409.89 C447.4,1410.23 447.34,1410.57 447.29,1410.89 L447.29,1411.22 L447.29,1411.54 L447.24,1411.87 C446.99,1413.58 446.72,1415.29 446.45,1417 C445.91,1420.42 445.33,1423.84 444.67,1427.48 C443.46,1434.19 442.09,1441.12 440.59,1448.08 L440.68,1447.92 C439.95,1451.02 439.31,1453.68 438.68,1456.05 C437.91,1459.05 437.08,1462.05 436.38,1464.58 L435.72,1466.96 C434.22,1472.37 432.72,1477.96 431.3,1483.49 C430.47,1486.82 429.72,1490.09 429.07,1493.19 C428.38,1496.47 427.85,1499.49 427.43,1502.42 C427.029514,1505.21835 426.772511,1508.03537 426.66,1510.86 C426.558684,1513.34244 426.679162,1515.82898 427.02,1518.29 C427.179419,1519.41609 427.433656,1520.5267 427.78,1521.61 L427.86,1521.86 C427.935533,1522.02678 428.0526,1522.17139 428.2,1522.28 L428.44,1522.4 C428.275583,1522.52445 428.173393,1522.71423 428.16,1522.92 C428.149865,1523.16732 428.231816,1523.40961 428.39,1523.6 C428.548995,1523.77937 428.771107,1523.89043 429.01,1523.91 C434.01,1524.26 439.18,1524.43 444.7,1524.43 C448.54,1524.43 452.59,1524.34 457.1,1524.17 C465.81,1523.83 474.64,1523.24 483.18,1522.67 L483.53,1522.67 L485.59,1522.53 C490.91,1522.17 495.13,1521.91 499.27,1521.68 C504.55,1521.4 509.15,1521.22 513.34,1521.14 L517.86,1521.14 C520.43,1521.14 522.97,1521.14 525.42,1521.27 C527.64,1521.35 529.86,1521.45 532.08,1521.55 L532.22,1521.55 C536.95,1521.75 541.84,1521.97 546.64,1521.97 L548.78,1521.97 C553.972679,1521.95945 559.154926,1521.50445 564.27,1520.61 C566.72028,1520.14996 569.135989,1519.52181 571.5,1518.73 L571.99,1518.56 L572.29,1518.44 C572.73,1517.18 573.12,1515.91 573.48,1514.62 C573.53,1514.02 573.59,1513.41 573.66,1512.76 C573.9,1510.37 574.25,1508 574.57,1505.97 C575.57,1499.2 576.87,1492.53 577.98,1486.82 C579.39,1479.57 580.98,1471.82 582.84,1463.13 C583.05,1462.13 583.27,1461.07 583.5,1460.05 L583.57,1459.7 L583.66,1459.29 L583.66,1459.16 L583.66,1459 C583.66,1458.8 583.73,1458.62 583.78,1458.43 L584.13,1456.82 L584.81,1453.71 C585.71,1449.61667 586.623333,1445.52667 587.55,1441.44 C589.33,1433.62 591.05,1426.32 592.82,1419.13 C594.11,1413.9 595.51,1408.33 597.1,1402.82 C597.45,1401.62 597.83,1400.33 598.27,1399.03 L598.27,1398.87 C598.498846,1398.14366 598.77271,1397.43229 599.09,1396.74 C599.201313,1396.48495 599.201313,1396.19505 599.09,1395.94 C598.997354,1395.74283 598.842857,1395.58131 598.65,1395.48 C598.674711,1395.41906 598.691515,1395.35521 598.7,1395.29 C598.761663,1395.07743 598.676232,1394.84961 598.49,1394.73 C598.416449,1394.6802 598.328716,1394.65564 598.24,1394.66 C598.24,1394.66 598.24,1394.59 598.3,1394.53 C598.308397,1394.25781 598.211714,1393.99283 598.03,1393.79 C597.880648,1393.61331 597.661351,1393.51098 597.43,1393.51 L596.8,1393.51 C595.87,1393.51 594.94,1393.51 594.01,1393.51 L591.69,1393.51 L590.3,1393.51 C588.8,1393.51 587.3,1393.44 585.79,1393.39 L583.14,1393.31 C578.26,1393.19 573.48,1393.07 568.75,1392.87 C560.5,1392.53 551.6,1392 539.93,1391.17 C535.14,1390.83 530.37,1390.47 525.59,1390.11 L522.03,1389.84 L518.46,1389.58 L516.67,1389.45 L516.22,1389.45 C514.76,1389.34 513.3,1389.24 511.85,1389.1 C507.67,1388.71 503.5,1388.1 499.61,1387.55 L495.8,1386.98 L494.41,1386.77 C491.92,1386.39 489.41,1386.01 486.92,1385.65 C480.584698,1384.67779 474.196343,1384.09004 467.79,1383.89 L466.21,1383.89 C461.1,1383.83022 456.000975,1384.37739 451.02,1385.52 L451,1385.34 Z"/>
      <path fill="url(#addprofile-f)" d="M741.17,1402.15955 C740.951165,1402.15054 740.753682,1402.29042 740.69,1402.5 C739.16,1410 737.75,1417.6 736.51,1425.09 L736.51,1425.23 C734.51,1437.55 732.77,1450.09 731.43,1462.5 C730.76,1468.73 730.19,1475 729.71,1481.16 C729.17,1488.16 728.83,1493.93 728.63,1499.45 C728.63,1500.82 728.56,1502.2 728.539781,1503.57 C728.531271,1503.91899 728.784572,1504.21952 729.13,1504.27 C729.097148,1504.30749 729.073215,1504.35194 729.06,1504.4 C728.985555,1504.57924 728.985555,1504.78076 729.06,1504.96 C729.148198,1505.12978 729.298726,1505.25881 729.48,1505.32 C733.112477,1506.38314 736.866608,1506.97465 740.65,1507.08 L742.94,1507.21 C746.15154,1507.32183 749.35373,1507.62235 752.53,1508.11 C753.45,1508.28 754.39,1508.51 755.29,1508.73 L755.51,1508.73 C756.69,1509.02 757.88,1509.29 759.06,1509.56 C761.32,1510.08 763.64,1510.56 765.95,1511.03 C770.37,1511.91 774.95,1512.7 779.82,1513.45 C788.25,1514.74 797.45,1515.8 807.94,1516.71 C817.3,1517.52 826.84,1518.08 836.07,1518.62 C842.41,1518.99 848.83,1519.62 855.07,1520.14 C857.94,1520.4 860.82,1520.66 863.69,1520.9 C865.54,1521.06 867.97,1521.26 870.43,1521.41 C871.43,1521.48 872.53,1521.54 873.59,1521.59 L875.15,1521.65 L876.15,1521.65 L876.91,1521.65 C877.125104,1521.82479 877.384968,1521.93567 877.66,1521.97024 C877.900503,1521.97521 878.134826,1521.89356 878.32,1521.74 C878.505046,1521.57797 878.613835,1521.34588 878.62,1521.1 C878.56,1520.38 878.5,1519.66 878.43,1518.94 L878.3,1517.42 C878.3,1517.42 878.3,1517.48 878.3,1517.48 L878.3,1517.57 L878.3,1517.37 C878.13,1515.06 877.93,1512.75 877.74,1510.45 L877.74,1510.58 C877.19,1503.84 876.74,1497.58 876.39,1491.38 C876.01,1484.83 875.74,1478.1 875.59,1471.38 C875.28,1457.38 875.59,1443.73 876.5,1430.96 C876.97,1424.39 877.62,1417.96 878.42,1411.88 C878.446172,1411.65279 878.377428,1411.42485 878.23,1411.25 C878.055693,1411.03935 877.802736,1410.90926 877.53,1410.89 L877.41,1410.89 C877.00896,1410.75391 876.597638,1410.65024 876.18,1410.58 C875.7,1410.49 875.18,1410.42 874.75,1410.35 C873.75,1410.2 872.75,1410.07 871.54,1409.96 C870.85,1409.89 870.17,1409.8 869.54,1409.71 L868.43,1409.58 L864.96,1409.18 C860.77,1408.72 856.32,1408.32 851.74,1407.97 C849.546667,1407.81 847.356667,1407.67 845.17,1407.55 C843,1407.42 840.82,1407.34 838.65,1407.25 C834.53,1407.08 830.25,1406.94 825.5,1406.82 C817.59,1406.62 809.5,1406.53 801.77,1406.44 L798.97,1406.44 C796.69,1406.44 794.47,1406.44 792.25,1406.31 C790.03,1406.18 787.99,1406.12 785.57,1405.95 C780.99,1405.64 776.3,1405.18 772.27,1404.78 L768.76,1404.42 L763.49,1403.9 L761.83,1403.74 C760.94,1403.66 760.04,1403.58 759.15,1403.48 C758.04,1403.37 756.93,1403.2 755.85,1403.04 L755.48,1403.04 L755.21,1403.04 C752.810836,1402.6353 750.390021,1402.37151 747.96,1402.25 L747.28,1402.25 C746.276522,1402.24541 745.273989,1402.31225 744.28,1402.45 C743.357049,1402.57976 742.449262,1402.80085 741.57,1403.11 L741.57,1402.99 L741.57,1402.86 C741.63751,1402.60447 741.498615,1402.3397 741.25,1402.25 L741.12,1402.25 L741.17,1402.15955 Z M769.41,1509.85 L768.13,1509.62 L767.96,1509.62 L769.41,1509.89 L769.41,1509.85 Z"/>
      <path fill="url(#addprofile-g)" d="M388.29,678 C387.306463,678.006568 386.329276,678.1582 385.39,678.45 C383.145201,679.243662 381.171978,680.658556 379.7,682.53 C378.672654,683.744613 377.743083,685.038656 376.92,686.4 C375.901782,688.050231 374.970512,689.752553 374.13,691.5 C373.13,693.44 372.22,695.56 371.13,698.16 C370.13,700.57 369.29,703.01 368.4,705.71 C368.359936,705.784893 368.332885,705.866047 368.32,705.95 L367.99,706.95 C367.53,708.32 367.08,709.65 366.6,710.95 C366.6,710.95 366.6,710.86 366.52,710.8 C366.329431,710.647967 366.093758,710.563547 365.85,710.56 C365.545593,710.553474 365.254795,710.685989 365.06,710.92 C359.12,717.92 354.96,726.92 351.97,739.34 C350.608248,745.206664 349.606379,751.151082 348.97,757.14 C348.29,763.04 347.84,769.34 347.6,776.37 C347.13,789.84 347.52,802.99 348.02,815.2 C348.17,818.97 348.34,822.75 348.51,826.53 L348.81,833.19 C348.99,837.25 349.16,841.25 349.29,845.19 C349.400816,845.317338 349.473586,845.473274 349.5,845.64 C349.658177,846.729692 349.741705,847.828919 349.75,848.93 C349.75,849.93 349.75,850.93 349.7,851.93 C349.65,852.93 349.7,853.93 349.7,854.87 C349.754807,855.838691 349.885204,856.80162 350.09,857.75 C350.258611,858.380854 350.462261,859.001817 350.7,859.61 C350.86,859.93 351,860.25 351.13,860.61 C351.194448,860.76351 351.194448,860.93649 351.13,861.09 C352.41,863.396667 353.79,865.656667 355.27,867.87 C358.703994,872.891405 362.550649,877.617774 366.77,882 C374.43,890 383.66,897.6 395.77,905.75 C406.93,913.26 418.77,920.01 429.12,925.97 L432.68,927.97 L432.79,928.03 C442.58,933.62 452.7,939.41 462.38,945.69 L463.48,946.41 L463.39,946.28 C475.16,954.08 484.02,961.17 491.27,968.62 L491.72,969.08 C491.847448,969.119083 491.963918,969.187594 492.06,969.28 C492.599947,969.77329 493.110806,970.297505 493.59,970.85 C493.757627,970.879794 493.913534,970.956015 494.04,971.07 C495.16,972.07 496.25,973.16 497.32,974.23 C497.480106,974.255988 497.627473,974.33318 497.74,974.45 C499.33,976.12 501.09,977.62 502.67,979.31 C503.483689,980.163747 504.2293,981.079879 504.9,982.05 C505.066667,982.31 505.226667,982.57 505.38,982.83 C506.95,984.77 508.48,986.71 510.04,988.74 C513.42,993.13 516.63,997.6 519.04,1000.99 C521.273333,1004.12333 523.493333,1007.25667 525.7,1010.39 C529.7,1016.07 534.23,1022.48 538.82,1028.69 C545.601656,1038.09721 552.948521,1047.08376 560.82,1055.6 C564.533314,1059.577 568.469661,1063.33973 572.61,1066.87 C576.479679,1070.16528 580.617341,1073.13222 584.98,1075.74 C589.017132,1078.15429 593.336333,1080.06199 597.84,1081.42 C601.735007,1082.57748 605.776649,1083.17 609.84,1083.17 L611.18,1083.17 C615.891375,1082.96298 620.532184,1081.94823 624.9,1080.17 C629.951635,1078.08546 634.668874,1075.2686 638.9,1071.81 C641.087767,1070.04494 643.183838,1068.16916 645.18,1066.19 C645.42,1065.97 645.65,1065.74 645.87,1065.51 L645.97,1065.51 C646.275318,1065.50734 646.565525,1065.37675 646.77,1065.15 C648.3,1063.4 649.7,1061.64 650.94,1059.92 L651.58,1059.18 C651.697781,1059.03932 651.777032,1058.87049 651.81,1058.69 C653.450608,1056.31469 654.888988,1053.80588 656.11,1051.19 C658.11933,1046.9738 659.358823,1042.43238 659.77,1037.78 C659.95047,1035.61612 659.930384,1033.44018 659.71,1031.28 C659.468622,1029.15476 659.047106,1027.05387 658.45,1025 C657.202634,1020.88479 655.323563,1016.98834 652.88,1013.45 C650.272255,1009.67493 647.227842,1006.22102 643.81,1003.16 C640.138922,999.861293 636.168422,996.911874 631.95,994.35 C622.904715,988.84867 613.118916,984.669669 602.89,981.94 C593.122185,979.210095 583.032023,977.804199 572.89,977.76 L571.38,977.76 C568.45,977.76 565.61,977.99 562.93,978.29 C561.664642,977.404303 560.464858,976.428435 559.34,975.37 L557.96,974.08 C557.63,973.51 557.27,972.96 556.9,972.39 L556.63,971.98 L555.63,970.47 L555.05,969.58 L553.87,967.78 L552.01,964.94 C550.01,961.833333 548.01,958.716667 546.01,955.59 C542.603333,950.256667 539.206667,944.923333 535.82,939.59 L533.97,936.68 C526.48,924.89 517.97,911.53 509.31,899.05 C500.87241,886.708716 491.639512,874.930424 481.67,863.79 C476.53,858.14 471.22,852.79 465.87,848.02 C460.280795,842.976584 454.389912,838.277903 448.23,833.95 C442.528799,829.954255 436.594989,826.301138 430.46,823.01 C430.330523,822.931002 430.181673,822.889462 430.03,822.89 C429.826758,822.894633 429.629043,822.95707 429.46,823.07 C430.46,821.67 431.46,820.07 432.85,817.61 C434.03,815.61 435.19,813.45 436.42,811.06 C438.7,806.6 440.83,801.93 442.94,796.8 C447.091183,786.635015 450.562166,776.205363 453.33,765.58 C454.09,762.7 454.8,759.84 455.44,756.99 C455.48,756.57 455.51,756.15 455.53,755.73 C455.65,754.09 455.75,752.46 455.84,750.82 C455.93,749.18 456.03,747.68 456.09,746.12 C456.16,743.9 456.09,741.68 455.92,739.46 C455.75,737.24 455.57,735.12 455.44,732.95 C455.304957,730.768755 455.304957,728.581245 455.44,726.4 C455.55721,724.679185 455.811347,722.970444 456.2,721.29 C455.854103,718.968072 455.336007,716.675082 454.65,714.43 C453.982285,712.199765 452.970068,710.087606 451.65,708.17 C450.406838,706.440863 448.878328,704.936025 447.13,703.72 C445.094547,702.342342 442.935225,701.157226 440.68,700.18 C438.05,698.99 435.31,697.9 432.88,696.94 L432.04,696.6 C428.61,695.23 424.62,693.6 420.69,691.94 C416.76,690.28 412.69,688.29 408.59,686.18 L404.95,684.26 L404.43,683.99 L404.06,683.79 C402.47,682.95 400.84,682.09 399.21,681.28 C396.838663,680.014188 394.337475,679.008349 391.75,678.28 C390.666159,677.990893 389.551499,677.833095 388.43,677.81 L388.29,678 Z"/>
      <path fill="#89725B" d="M501.75 981.23L501.87 981.41 501.99 981.52C501.9 981.41 501.82 981.3 501.73 981.2L501.75 981.23zM456.13 746.24C456.13 746.24 456.13 746.15 456.13 746.11 456.125042 746.153192 456.125042 746.196808 456.13 746.24zM371.77 701C371.007984 701.670373 370.296081 702.395645 369.64 703.17 369.436406 703.280767 369.272192 703.45197 369.17 703.66L369 704C368.437267 704.777036 367.92937 705.592344 367.48 706.44 367.442883 706.497819 367.409483 706.55794 367.38 706.62L367.29 706.75C366.85 707.34 366.41 707.94 365.98 708.55L365.75 708.89C365.36 709.43 364.98 709.96 364.62 710.5 364.41 710.8 364.21 711.11 364.01 711.42 363.55 712.03 363.1 712.64 362.66 713.27 362.22 713.9 361.78 714.56 361.37 715.27 360.963547 715.912246 360.59944 716.580332 360.28 717.27 359.97372 717.948606 359.722901 718.650901 359.53 719.37 359.33 720.09 359.13 720.81 358.98 721.54 358.915994 721.883187 359.068335 722.230614 359.364127 722.416036 359.659919 722.601458 360.039008 722.587166 360.32 722.38 360.494807 722.242641 360.615272 722.047771 360.66 721.83L360.76 721.5C360.901445 721.063906 361.068399 720.636502 361.26 720.22 361.37 719.99 361.5 719.77 361.62 719.55L362.05 718.75 362.74 717.56C362.969646 717.524857 363.177155 717.403214 363.32 717.22 363.318098 717.196705 363.318098 717.173295 363.32 717.15 364.149982 716.319176 364.74664 715.28451 365.05 714.15L365.11 713.99C365.543649 714.189043 366.056698 714.001668 366.26 713.57 366.57 712.88 366.84 712.17 367.13 711.47L367.73 710.01C368.33 709.15 368.91 708.27 369.46 707.38 369.75 706.91 370.03 706.44 370.3 705.95L370.64 705.3C371.43 704.3 372.21 703.3 372.95 702.3 373.195036 701.977981 373.195036 701.532019 372.95 701.21 372.812735 701.023658 372.608281 700.898116 372.38 700.859887L372.23 700.859887C372.037821 700.856823 371.850496 700.920443 371.7 701.04L371.77 701z"/>
      <path fill="url(#addprofile-h)" d="M466.78,527.47 C457.944324,530.696127 449.54603,535.01285 441.78,540.32 C433.602018,545.812662 425.880322,551.955908 418.69,558.69 C411.710761,565.150259 405.13504,572.033226 399,579.3 C393.740719,585.468628 388.864891,591.954147 384.4,598.72 C382.78,601.18 381.27,603.72 379.87,606 C378.16,608.86 376.39,611.91 374.62,615 C370.09,623 366.16,630.63 362.62,638.21 C360.62,642.54 358.71,646.85 357.03,651.02 C355.21,655.56 353.71,659.76 352.44,663.86 C351.179966,667.851501 350.177898,671.919894 349.44,676.04 C348.771963,679.633222 348.480387,683.286305 348.57,686.94 C348.63284,690.06105 349.263106,693.144614 350.43,696.04 C350.689014,696.656179 350.98282,697.257147 351.31,697.84 C351.775334,698.660328 352.332228,699.425219 352.97,700.12 C353.608365,700.805811 354.322999,701.416438 355.1,701.94 C355.974863,702.544664 356.909821,703.057383 357.89,703.47 C359.963701,704.345727 362.131294,704.979899 364.35,705.36 C366.779521,705.788483 369.229398,706.092215 371.69,706.27 C373.69,706.43 375.69,706.54 377.69,706.65 C380.56,706.8 383.53,706.96 386.43,707.29 L387.14,707.38 C389.97,707.77 392.97,708.31 396.89,709.13 C399.89,709.76 403.15,710.53 407.11,711.56 C411.36,712.66 415.66,713.87 419.82,715.04 C422.29,715.74 424.75,716.43 427.22,717.11 C430.91,718.11 434.22,718.98 437.29,719.72 C438.91,720.11 440.54,720.47 442.16,720.82 C443.16,721.04 444.16,721.24 445.16,721.44 L446.72,721.75 L450.37,722.5 L452.77,723 C454.11,723.28 455.67,723.59 457.21,723.8 C458.084046,723.932667 458.966052,724.006167 459.85,724.02 L460.62,724.02 C461.111775,723.9859 461.600013,723.91233 462.08,723.8 C462.566618,723.680029 463.039231,723.509084 463.49,723.29 C464.37366,722.858266 465.175586,722.276277 465.86,721.57 C466.739938,720.671494 467.539648,719.697788 468.25,718.66 C469.25,717.29 470.17,715.84 471.07,714.43 L472.61,712.02 C473.35,710.86 474.09,709.7 474.84,708.55 C476.4,706.13 478.03,703.69 479.6,701.34 C481.07,699.15 482.54,696.95 483.98,694.74 C490.34,684.95 496.14,675.23 501.19,665.83 C506.826805,655.442733 511.813069,644.715418 516.12,633.71 C520.442532,622.750014 523.720416,611.406325 525.91,599.83 C528.03709,588.665752 528.60584,577.260478 527.6,565.94 C526.96453,559.364628 525.647456,552.873095 523.67,546.57 C522.636085,543.338826 521.424234,540.167315 520.04,537.07 C519.71,536.35 519.37,535.61 519.04,534.85 C517.64,533.49 516.36,532 514.94,530.66 C514.66524,530.376018 514.367568,530.115137 514.05,529.88 L513.85,529.73 C507.243948,525.958757 499.846332,523.78742 492.25,523.39 C491.25,523.33 490.16,523.3 489.16,523.3 C481.522919,523.414555 473.95998,524.817604 466.79,527.45 L466.78,527.47 Z"/>
    </g>
    <circle cx="702" cy="938" r="18" fill="#FFF"/>
    <circle cx="636" cy="933" r="18" fill="#FFF"/>
    <circle cx="570" cy="927" r="18" fill="#FFF"/>
    <g transform="rotate(3 -18830.334 12180.243)">
      <rect width="252" height="252"/>
      <use fill="#A375FF" xlink:href="#addprofile-i"/>
    </g>
  </g>
</svg>
