<svg xmlns="http://www.w3.org/2000/svg" width="1835" height="1319" viewBox="0 0 1835 1319">
  <defs>
    <linearGradient id="enterease-a" x1="50%" x2="50%" y1="0%" y2="100%">
      <stop offset="0%" stop-color="#747474"/>
      <stop offset="100%" stop-color="#404040"/>
    </linearGradient>
    <linearGradient id="enterease-b" x1="50%" x2="50%" y1="0%" y2="100%">
      <stop offset="0%" stop-color="#495E74"/>
      <stop offset="100%" stop-color="#233040"/>
    </linearGradient>
    <linearGradient id="enterease-c" x1="50%" x2="50%" y1="0%" y2="100%">
      <stop offset="0%" stop-color="#FDF4E6"/>
      <stop offset="100%" stop-color="#F9E5C8"/>
    </linearGradient>
    <linearGradient id="enterease-d" x1="50%" x2="50%" y1="0%" y2="100%">
      <stop offset="0%" stop-color="#FFC000"/>
      <stop offset="100%" stop-color="#FF8C00"/>
    </linearGradient>
    <linearGradient id="enterease-e" x1="50%" x2="50%" y1="0%" y2="100%">
      <stop offset="0%" stop-color="#7E9BAB"/>
      <stop offset="100%" stop-color="#486273"/>
    </linearGradient>
  </defs>
  <g fill="none" transform="translate(262 193)">
    <path fill="#F1F1F1" d="M1079.46,160.82 L1079.07,160.82 L1078.27,160.82 C1067.72,161.3 1056.6,161.82 1044.27,162.57 C1023.33,163.75 1001.11,165.26 978.27,167.03 C934.21,170.47 889.27,175.03 844.86,180.47 C800.45,185.91 755.86,192.55 712.1,200.15 C669.28,207.59 626.57,216.24 585.18,225.87 C566.37,230.24 546.92,235.53 527.38,241.6 C509.11,247.25 490.68,253.72 471.03,261.36 C434.624353,275.622615 399.174414,292.213574 364.9,311.03 C329.933981,330.244478 296.150162,351.535931 263.73,374.79 C231.204217,398.13317 199.987063,423.247773 170.22,450.02 C159.22,459.9 144.74,472.97 130.52,486.53 C110.36,505.76 92.64,523.99 76.36,542.26 C67.02,552.74 58.11,563.44 49.88,574.05 C41.65,584.66 34.25,595.19 27.58,605.76 C20.9750708,616.101505 15.1906978,626.944696 10.28,638.19 C8.35,642.65 6.63,647.29 5,652.39 C3.35460863,657.574611 2.08794326,662.871879 1.21,668.24 C0.535117629,672.610797 0.209814361,677.027416 0.209814361,681.45 C0.209814361,683.698483 0.34412005,685.944989 0.59,688.18 C0.822945287,690.509154 1.20708895,692.820696 1.74,695.1 C2.25,697.27 2.84,699.33 3.54,701.4 C4.26786952,703.451236 5.12285981,705.455119 6.1,707.4 C6.97660087,709.180736 7.9479935,710.91322 9.01,712.59 C10.582588,715.06154 12.351638,717.402438 14.3,719.59 C17.9613498,723.665806 22.1245235,727.261122 26.69,730.29 C32.0433623,733.847718 37.7382136,736.862639 43.69,739.29 C49.5524863,741.738967 55.5645865,743.813141 61.69,745.5 C69.1796213,747.593922 76.773246,749.296229 84.44,750.6 C90.83,751.73 97.78,752.7 106.3,753.6 C113.19,754.37 120.65,754.99 129.79,755.6 C142.92,756.43 155.92,756.78 169.19,757.1 L179.3,757.37 L180.13,757.37 L189.44,757.62 C198.57,757.84 208.12,757.95 218.64,757.95 L225.51,757.95 L225.64,757.95 C246.64,757.87 268.79,757.29 295.43,756.11 C332.43,754.47 369.99,751.88 406.31,749.37 L406.84,749.37 L407.14,749.37 L435.03,747.46 C446.87,746.66 457.79,745.95 468.42,745.3 C478.35,744.68 488.49,744.12 497.42,743.62 L504.7,743.21 L538.7,741.27 C550.773333,740.603333 562.846667,739.916667 574.92,739.21 C616.35,736.88 665.37,734.33 714.92,733.07 C734.92,732.55 754.92,732.3 774.6,732.3 L785.1,732.3 C795.92,732.3 806.98,732.51 818.93,732.78 C829.13,733.01 839.78,733.37 847.57,733.63 L854.16,733.85 C875.58,734.54 898.39,735.24 920.98,735.65 C932.47,735.85 943.57,735.96 953.98,735.96 C965.76,735.96 977.34,735.83 988.4,735.58 C1011.45,735.04 1034.01,733.77 1055.48,731.8 C1077.85,729.74 1099.8,726.64 1120.69,722.61 C1136.39502,719.5379 1151.87381,715.4051 1167.02,710.24 C1173.74,707.96 1180.77,705.24 1188.52,702.01 C1195.52,699.07 1202.52,695.78 1209.43,692.22 C1212.68,690.54 1215.99,688.77 1219.27,686.95 C1222.55,685.13 1226.02,683.06 1228.83,681.36 C1235.2,677.51 1241.66,673.21 1248.58,668.21 C1260.32736,659.670258 1271.40005,650.239075 1281.7,640 C1292.15802,629.594878 1301.73424,618.339563 1310.33,606.35 C1313.91,601.35 1317.5,595.96 1321.33,589.75 C1325.06,583.69 1328.69,577.1 1332.42,569.61 C1338.81735,556.625443 1344.14502,543.140739 1348.35,529.29 C1352.7948,514.63379 1356.006,499.631499 1357.95,484.44 C1359.80833,469.716917 1360.56709,454.875837 1360.22,440.04 C1360.07,432.78 1359.6,425.04 1358.76,416.28 C1358.34,411.95 1357.76,407.74 1357.33,404.19 C1356.9,400.64 1356.21,396.83 1355.33,392.26 C1353.8875,385.027655 1352.04805,377.88018 1349.82,370.85 C1347.51257,363.553244 1344.80514,356.389068 1341.71,349.39 C1339.19,343.58 1336.2,337.5 1332.3,330.28 C1328.78,323.76 1324.77,317.07 1319.68,309.28 C1310.68,295.38 1300.6,282.28 1292.84,272.38 C1286.29,264.04 1279.46,255.67 1272.84,247.58 L1272.59,247.27 L1272.31,246.93 L1271.31,245.72 L1270.31,244.55 C1267.73,241.38 1265.14,238.22 1262.57,235.04 C1250.87,220.58 1242.19,209.28 1234.41,198.39 C1233.49,197.11 1232.56,195.78 1231.62,194.39 C1224.79361,190.095529 1218.31081,185.277729 1212.23,179.98 C1211.9101,179.69408 1211.67197,179.328252 1211.54,178.92 C1210.34,178.43 1209.1,177.92 1207.84,177.47 C1201.34,174.96 1194.38,172.66 1186.57,170.42 C1178.01247,167.973474 1169.33423,165.970804 1160.57,164.42 C1152.99,163.06 1144.68,161.97 1135.15,161.11 C1126.96,160.38 1118.03,159.98 1107.84,159.9 L1105.43,159.9 C1096.77,159.9 1088.01,160.3 1079.53,160.68 L1079.46,160.82 Z" opacity=".946"/>
    <path fill="#45BF55" d="M51.43,243.05 C48.0302703,243.830985 44.7171302,244.949881 41.54,246.39 C38.1409395,247.865227 34.8896743,249.659952 31.83,251.75 C26.814411,255.180263 22.3728806,259.382167 18.67,264.2 C14.9665505,269.047688 11.9139265,274.359523 9.59,280 C7.20496909,285.78123 5.3701874,291.774404 4.11,297.9 C2.80061064,304.318821 1.90874025,310.815779 1.44,317.35 C0.92,323.98 0.8,330.63 0.87,337.27 C0.99,349.87 2.01,362.44 3.12,374.98 C3.78,382.39 4.42,389.8 5.28,397.19 C6.36,406.53 7.75,415.84 9.37,425.1 C12.66,444 17.06,462.68 22.15,481.16 C32.49,518.61 45.97,555.16 60.38,591.16 C73.38,623.74 87.38,655.95 100.8,688.34 C106.9,703.05 113.04,717.76 118.26,732.81 C123.03,746.54 126.97,760.61 128.96,775.03 C130.342889,785.123804 130.436976,795.352465 129.24,805.47 C128.717236,809.174898 127.986076,812.847388 127.05,816.47 C126.048243,820.215425 124.798827,823.890179 123.31,827.47 C121.881324,830.784003 120.268816,834.015695 118.48,837.15 C116.426893,840.687208 114.141898,844.084635 111.64,847.32 C108.57268,851.198662 105.255639,854.873129 101.71,858.32 C100.881573,859.131859 100.868142,860.461573 101.68,861.29 C102.491859,862.118427 103.821573,862.131858 104.65,861.32 C110.731317,855.464174 116.101655,848.912361 120.65,841.8 C124.702008,835.327007 127.904933,828.359889 130.18,821.07 C134.72,806.8 135.27,791.52 133.6,776.73 C131.82,761 127.6,745.65 122.44,730.73 C119.77,722.94 116.82,715.25 113.78,707.6 C110.36,699 106.84,690.44 103.31,681.88 C73.88,610.41 42.31,539.33 23.62,464.07 C18.8217436,444.867725 15.0695551,425.419103 12.38,405.81 C11.7133333,400.703333 11.12,395.583333 10.6,390.45 C10.18,386.23 9.86,382 9.5,377.76 C8.88,370.55 8.27,363.34 7.83,356.11 C6.88,340.57 6.67,324.9 8.67,309.43 C9.84208707,300.283564 12.1568219,291.320266 15.56,282.75 C17.7042343,277.744643 20.4296148,273.008791 23.68,268.64 C26.3776993,265.235682 29.4504179,262.146191 32.84,259.43 C36.5403824,256.644124 40.5503149,254.295209 44.79,252.43 C48.3493032,250.950113 52.0721858,249.89938 55.88,249.3 C58.8706086,248.964297 61.8893914,248.964297 64.88,249.3 C68.080266,249.807193 71.2110898,250.683018 74.21,251.91 C78.525318,253.869796 82.5991277,256.322807 86.35,259.22 C94.52,265.66 101.55,273.4 108.47,281.13 C112.15,285.24 115.81,289.37 119.6,293.38 C121.6,295.55 123.76,297.65 125.87,299.75 C128.443333,302.31 131.003333,304.876667 133.55,307.45 C152.36,326.45 170.55,346.12 186.98,367.26 C195.646667,378.513333 203.763333,390.153333 211.33,402.18 C215.39,408.62 219.276667,415.163333 222.99,421.81 C223.87,423.39 224.74,424.96 225.51,426.59 C226.11,427.84 226.66,429.11 227.2,430.39 C230.42,438.1 233.26,445.97 236.14,453.81 C239.74,463.63 243.31,473.46 247.14,483.2 C250.52,491.88 254.04,500.54 258.24,508.87 C259.779423,512.014446 261.540532,515.045426 263.51,517.94 C264.825371,519.929461 266.418117,521.720878 268.24,523.26 C268.74,524.63 269.15,526.02 269.59,527.4 C270.088001,529.123676 271.655961,530.317925 273.45,530.34 C275.659139,530.34 277.45,528.549139 277.45,526.34 C277.196082,519.576143 277.46354,512.802776 278.25,506.08 C278.948649,500.64156 280.308712,495.308768 282.3,490.2 C283.292738,487.925601 284.519337,485.760621 285.96,483.74 C286.859401,482.616889 287.863957,481.582197 288.96,480.65 C289.763979,480.07559 290.617323,479.573623 291.51,479.15 C292.292982,478.861487 293.099271,478.640678 293.92,478.49 C294.768557,478.419962 295.621443,478.419962 296.47,478.49 C297.54132,478.691557 298.592253,478.989433 299.61,479.38 C301.129387,480.093598 302.573294,480.957932 303.92,481.96 C306.222265,483.868429 308.314128,486.017282 310.16,488.37 C313.905482,493.519707 317.027266,499.09528 319.46,504.98 C320.793333,508.313333 322.023333,511.7 323.15,515.14 C324.35,518.87 325.36,522.67 326.39,526.45 C328.24,533.25 329.97,540.07 331.67,546.91 C335.22,561.24 338.55,575.63 341.99,589.99 C349.1,619.73 356.67,649.41 367.07,678.2 C374.29,698.2 382.96,717.71 393.94,735.92 C404.73,753.8 417.94,770.39 433.87,783.98 C434.552826,784.640808 435.460003,785.019394 436.41,785.04 C437.862599,785.035505 439.170175,784.15845 439.725453,782.816165 C440.280731,781.473879 439.974901,779.929389 438.95,778.9 C430.158016,771.072477 422.101062,762.456524 414.88,753.16 C401.4,735.52 390.88,715.86 382.23,695.44 L382.63,696.38 C370.79,668.19 362.41,638.71 354.99,609.1 C347.85,580.6 341.74,551.84 334.06,523.48 C333.06,519.96 332.14,516.48 331.06,512.96 C329.81,508.96 328.35,505.09 326.72,501.26 C324.279551,495.278504 321.130388,489.611353 317.34,484.38 C312.04,477.25 304.51,470.38 295.1,470.31 C294.093983,470.336084 293.091261,470.436356 292.1,470.61 C291.32779,470.726804 290.567934,470.914257 289.83,471.17 C287.931166,471.788384 286.149709,472.721367 284.56,473.93 C282.928677,475.143147 281.454091,476.553912 280.17,478.13 C278.623308,480.075964 277.282791,482.177224 276.17,484.4 C273.596178,489.644104 271.803845,495.236722 270.85,501 C270.180435,504.841302 269.729709,508.717552 269.5,512.61 C267.968554,510.237487 266.566507,507.783906 265.3,505.26 C262.86,500.53 260.72,495.65 258.65,490.76 L259.05,491.7 C254.26,480.3 249.97,468.7 245.69,457.09 C241.98,447.02 238.39,436.88 234.19,426.99 C233.523333,425.383333 232.81,423.786667 232.05,422.2 C230.85,419.69 229.41,417.29 228.05,414.88 C223.603333,407.1 218.936667,399.46 214.05,391.96 C204.761404,377.815995 194.699443,364.195291 183.91,351.16 C173.16,338.09 161.69,325.62 149.91,313.45 C143.71,307.03 137.41,300.71 131.08,294.45 C128.57,291.97 126.08,289.45 123.65,286.92 C121.22,284.39 118.79,281.67 116.38,279.01 C107.38,269.01 98.33,258.72 87.17,251.01 C82.1139656,247.452728 76.4662352,244.82186 70.49,243.24 C67.5839276,242.529756 64.6105129,242.130843 61.62,242.05 C61.26,242.05 60.9,242.05 60.55,242.05 C57.4938425,242.07275 54.4480138,242.407825 51.46,243.05 L51.43,243.05 Z M32.55,259.51 L32.26,259.73 L32.55,259.51 Z M15.38,283 L15.29,283.2 L15.38,283 Z M268.2,523.24 C268.2,523.32 268.27,523.4 268.3,523.47 C268.2607,523.396068 268.227264,523.319165 268.2,523.24 Z M128.94,774.81 L128.94,774.98 C128.935175,774.923436 128.935175,774.866564 128.94,774.81 Z M128.94,775.05 L128.94,775.4 C128.94,775.28 128.94,775.16 128.94,775.05 Z M129.27,804.98 L129.27,805.16 C129.27,805.16 129.27,805.04 129.27,804.98 Z"/>
    <path fill="#168039" d="M1182.72 295.65C1165.89 296.5 1150.14 303.84 1136.6 313.51 1120.32 325.12 1106.67 340.07 1094.53 355.84 1080.75 373.75 1068.87 393.06 1058.16 412.93 1047.17193 433.468494 1037.31717 454.593474 1028.64 476.21 1020.6957 495.748686 1013.73695 515.673745 1007.79 535.91 1005.32 544.39 1003.08 552.91 1001.15 561.55 999.92 567.05 998.81 572.55 997.98 578.16 993.85 568.07 990.36 557.73 986.53 547.52 984.53 542.08 982.34 536.67 979.95 531.37 977.849001 526.600967 975.378129 522.003608 972.56 517.62 968.06 510.77 961.7 504.04 953.2 502.78 942.83 501.25 933.45 507.78 926.12 514.37 920.19017 519.850315 914.789658 525.876925 909.99 532.37 905.005416 538.955523 900.564138 545.935151 896.71 553.24 889.320131 567.450286 883.861849 582.584155 880.48 598.24 877.067589 614.134553 875.039993 630.295094 874.42 646.54 873.63 663.24 873.97 679.97 874.64 696.67 875.82 725.85 878.24 754.99 878.04 784.22 877.882769 785.024069 878.196191 785.847611 878.848231 786.343688 879.500271 786.839766 880.377578 786.922142 881.110567 786.556114 881.843556 786.190086 882.304804 785.439284 882.3 784.62 882.3 784.51 882.3 784.41 882.3 784.3 882.59 782.62 882.95 780.95 883.3 779.3 883.506283 778.369153 883.106209 777.408975 882.3 776.9 882.3 766.41 881.89 755.9 881.42 745.44 880.79 731.53 879.97 717.63 879.36 703.72 878.12 675.95 877.66 648 881.26 620.38 882.447839 611.451351 884.140551 602.597165 886.33 593.86 888.532716 585.141871 891.377139 576.598573 894.84 568.3 897.306425 562.50715 900.10439 556.861137 903.22 551.39 906.632001 545.417857 910.451026 539.687648 914.65 534.24 920.055908 527.050475 926.296246 520.528164 933.24 514.81 936.016238 512.64993 939.037008 510.824043 942.24 509.37 944.007863 508.652013 945.848741 508.128922 947.73 507.81 949.099765 507.669999 950.480235 507.669999 951.85 507.81 953.219253 508.025633 954.560646 508.391162 955.85 508.9 957.316701 509.574425 958.707802 510.402382 960 511.37 962.0379 513.042766 963.882661 514.937838 965.5 517.02 970.12 523.12 973.5 530.09 976.5 537.1 980.28 546.1 983.5 555.36 986.74 564.57 989.755933 573.495649 993.244187 582.254673 997.19 590.81 997.876226 592.002936 999.286122 592.575964 1000.61 592.2 1001.11372 592.060311 1001.57219 591.791431 1001.94 591.42 1002.48688 590.843408 1002.80044 590.084452 1002.82 589.29 1002.95 588.06 1003.09 586.85 1003.25 585.63 1004.2 578.74 1005.54 571.89 1007.06 565.11 1008.96 556.61 1011.2 548.19 1013.63 539.82 1019.52751 519.716722 1026.42951 499.92186 1034.31 480.51 1035.66 477.13 1037.06 473.78 1038.47 470.42 1038.35 470.7 1038.24 470.97 1038.12 471.24 1046.49908 451.269056 1055.90839 431.746163 1066.31 412.75 1076.2871 394.344522 1087.6534 376.726766 1100.31 360.05 1110.95 346.36 1122.75 333.41 1136.45 322.71 1143.65987 317.094812 1151.53627 312.392483 1159.9 308.71 1165.74708 306.274732 1171.87397 304.575057 1178.14 303.65 1183.35711 303.009981 1188.63289 303.009981 1193.85 303.65 1199.26764 304.4619 1204.5665 305.929328 1209.63 308.02 1216.15341 310.922979 1222.29871 314.610161 1227.93 319 1236.20329 325.599788 1243.68326 333.136805 1250.22 341.46 1252.18432 344.044778 1254.01021 346.731883 1255.69 349.51 1257.29651 352.214667 1258.72617 355.020539 1259.97 357.91 1261.07996 360.64506 1262.03809 363.439312 1262.84 366.28 1263.62992 369.166263 1264.24108 372.098495 1264.67 375.06 1265.09494 378.510614 1265.31533 381.98335 1265.33 385.46 1265.32248 389.393002 1265.05859 393.321331 1264.54 397.22 1262.54 410.83 1258.21 423.9 1252.94 436.55 1249.22 445.28 1245.09 453.83 1240.94 462.34 1236.43 471.5 1231.79 480.58 1227.12 489.64 1217.76 507.77 1208.2 525.8 1199.02 544.03 1189.84 562.26 1181.19 580.54 1173.37 599.29 1169.45 608.71 1165.80667 618.243333 1162.44 627.89 1160.94 632.2 1159.52 636.53 1158.11 640.89 1151.39 661.67 1145.52 682.74 1140.82 704.07 1138.02 716.77 1135.68 729.58 1133.95 742.47 1132.18437 755.062117 1131.23572 767.755322 1131.11 780.47 1131.05713 789.335941 1131.66212 798.193586 1132.92 806.97 1133.99453 814.818783 1135.97439 822.516726 1138.82 829.91 1140.17094 833.37 1141.76838 836.728621 1143.6 839.96 1145.50048 843.22862 1147.68918 846.320912 1150.14 849.2 1152.33125 851.776822 1154.7807 854.122398 1157.45 856.2 1160.43435 858.573334 1163.67443 860.605933 1167.11 862.26 1168.04506 862.779394 1169.14307 862.922457 1170.18 862.66 1171.71196 862.218647 1172.83556 860.90971 1173.03972 859.328563 1173.24388 857.747416 1172.48961 856.196007 1171.12 855.38 1168.3163 853.970189 1165.63967 852.320719 1163.12 850.45 1159.99318 847.964914 1157.16138 845.12976 1154.68 842 1151.6194 837.898498 1149.05803 833.447166 1147.05 828.74 1143.82362 820.613677 1141.63306 812.113518 1140.53 803.44 1137.99 783.44 1139.29 763.03 1141.93 743.07 1145.27 718.6 1150.81 694.45 1157.47 670.67 1160.13667 661.243333 1162.97 651.866667 1165.97 642.54 1167.45 637.973333 1168.97333 633.416667 1170.54 628.87 1173.89 619.23 1177.6 609.72 1181.54 600.3 1181.85 599.55 1182.17 598.8 1182.54 598.05 1182.4 598.37 1182.27 598.69 1182.13 599.05 1198.06 561.48 1217.64 525.64 1236.28 489.38 1240.94667 480.313333 1245.52 471.196667 1250 462.03 1254.16 453.48 1258.17 444.88 1261.76 436.03 1268.43 419.67 1273.38 402.26 1273.2718 384.46 1273.21403 375.873134 1271.73741 367.354721 1268.9 359.25 1267.46332 355.202356 1265.69741 351.279231 1263.62 347.52 1261.17541 343.194552 1258.36516 339.086231 1255.22 335.24 1251.43541 330.524616 1247.35378 326.055536 1243 321.86 1239.16561 318.149089 1235.09366 314.691776 1230.81 311.51 1223.51518 305.993968 1215.36776 301.707451 1206.69 298.82 1200.0449 296.654597 1193.09901 295.559978 1186.11 295.559978 1184.99 295.559978 1183.87 295.59 1182.75 295.65L1182.72 295.65zM894.85 568.43C894.79 568.58 894.73 568.73 894.66 568.87 894.73 568.73 894.79 568.58 894.85 568.43zM1003.24 585.12L1003.24 585.33 1003.24 585.12zM71 322.92C69.0653548 323.487226 67.9315613 325.48908 68.44 327.44 71.36 340.79 76.34 353.55 82.04 365.94 87.98 378.82 94.84 391.26 101.68 403.68 108.4 415.82 115.11 428 121 440.53 124.15 447.26 127.12 454.08 130.12 460.87 133.12 467.66 136.19 474.73 139.18 481.68 140.49 484.74 141.79 487.79 143.08 490.86L142.87 490.36C154.5 518 165.41 546 175.09 574.43 178.98 585.84 182.62 597.33 186.09 608.86 187.116667 612.286667 188.16 615.713333 189.22 619.14 197.526667 646.34 205.983333 673.493333 214.59 700.6 219.57 716.28 224.626667 731.946667 229.76 747.6 233.89 760.13 238.07 772.6 242.59 785.03 244.38 789.94 246.22 794.85 248.36 799.61 248.873089 800.821167 249.478192 801.991256 250.17 803.11 250.49515 803.659794 250.895708 804.161333 251.36 804.6 252.463951 805.710359 254.07759 806.14524 255.59 805.74 256.585267 805.440343 257.435793 804.785545 257.98 803.9 258.526344 802.966401 258.669793 801.851727 258.38 800.81 258.140217 799.961768 257.626963 799.216495 256.92 798.69 256.79 798.46 256.67 798.22 256.55 797.98 256.15 797.19 255.8 796.38 255.45 795.57 254.02 792.12 252.72 788.57 251.45 785.1 249.49 779.72 247.59 774.323333 245.75 768.91 240.89 754.72 236.21 740.48 231.59 726.22 221.81 696.04 212.236667 665.793333 202.87 635.48 200.023333 626.306667 197.19 617.13 194.37 607.95 191.43 598.32 188.37 588.73 185.22 579.19 180.43 564.86 175.28 550.66 169.89 536.55 159.1 508.3 147.24 480.47 134.89 452.87 131.89 446.25 128.99 439.6 125.83 433.07 122.83 426.88 119.62 420.8 116.35 414.75 109.61 402.25 102.54 390 96 377.37 92.09 369.87 88.39 362.26 85.06 354.48 81.0359236 345.118442 77.8663588 335.412278 75.59 325.48 75.1496861 323.863313 73.6651901 322.754065 71.99 322.789152 71.6761723 322.789152 71.3636769 322.830827 71.06 322.91L71 322.92zM142.85 490.36L142.67 489.93 142.85 490.36z"/>
    <path fill="#168039" d="M286.82 543.75C286.060328 544.179813 285.510719 544.902983 285.3 545.75 284.02 555.03 282.72 564.31 281.3 573.57 279.78 583.15 278.083333 592.7 276.21 602.22 272.526318 621.345249 267.734916 640.2404 261.86 658.81 259.03 667.56 255.86 676.21 252.32 684.69 249.32 691.77 245.99 698.69 242.32 705.5 240.51 708.81 238.58 712.07 236.57 715.27 234.56 718.47 232.5 721.38 230.57 724.51 229.707883 726.006216 229.953621 727.894304 231.17 729.12 231.602524 729.554735 232.134571 729.877396 232.72 730.06 232.28 730.66 231.83 731.26 231.37 731.85L230.37 733.18C229.798331 733.788997 229.46777 734.585188 229.44 735.42 229.441904 736.260207 229.77625 737.065515 230.37 737.66 230.961808 738.250422 231.764038 738.580995 232.6 738.580995 233.442766 738.601693 234.255768 738.267781 234.84 737.66 240.831185 730.049025 246.284408 722.029579 251.16 713.66 255.920994 705.379684 260.159272 696.80961 263.85 688 271.348193 670.108183 277.130804 651.544897 281.12 632.56 284.23 618.25 286.46 603.78 288.19 589.25 289.03 582.25 289.72 575.14 290.31 568.07 290.61 564.47 290.88 560.88 291.13 557.28 291.38 553.68 291.55 550.15 291.82 546.59 291.82 545.09579 290.820765 543.786055 289.38 543.39 289.093464 543.310288 288.797417 543.26999 288.5 543.26999 287.910024 543.26999 287.330249 543.423825 286.82 543.72L286.82 543.75zM231.69 731.35L231.54 731.54 231.69 731.35zM40.51 399.41C39.6076653 399.662753 38.8375659 400.25376 38.36 401.06 37.8548625 401.891293 37.7241304 402.897204 38 403.83 44.1940892 420.151677 52.048659 435.793798 61.44 450.51 61.92 451.28 62.44 452.04 62.9 452.81 69.347138 464.200291 76.4317274 475.217796 84.12 485.81 93.5 498.62 103.95 510.71 115.99 521.08 121.829774 526.134185 128.070276 530.705871 134.65 534.75 141.146726 538.707863 148.020457 542.010738 155.17 544.61 158.27 545.74 161.42 546.7 164.61 547.52 166.421494 548.110944 168.369055 547.121494 168.96 545.31 169.550944 543.498506 168.561494 541.550945 166.75 540.96 166.596914 540.464273 166.333679 540.009594 165.98 539.63 165.336642 538.983343 164.602211 538.434204 163.8 538 163.12 537.59 162.42 537.19 161.72 536.8 160.16 535.91 158.61 535.01 157.05 534.14 154.05 532.44 150.96 530.71 147.98 528.89 141.808652 525.101505 135.84662 520.982161 130.12 516.55L130.92 517.16C112.968121 503.052932 96.8676692 486.73745 83 468.6 83.19 468.86 83.39 469.11 83.58 469.36 77.2869389 461.215233 71.4191096 452.750606 66 444 59.23 431.75 53 419.19 47.11 406.51 46.27 404.696667 45.44 402.886667 44.62 401.08 43.9747335 399.974722 42.7898426 399.296553 41.51 399.299949 41.1887822 399.298239 40.8689357 399.342008 40.56 399.43L40.51 399.41z"/>
    <path fill="#45BF55" d="M1196.08,388.27 C1180.48,400.91 1166.79,415.72 1154.44,431.52 C1141.3439,448.462579 1129.49923,466.336533 1119,485 C1108.5128,503.552718 1098.97712,522.627415 1090.43,542.15 C1086.27,551.59 1082.30333,561.11 1078.53,570.71 C1074.99,579.71 1071.68,588.71 1068.42,597.84 C1061.22,617.91 1054.13,638.03 1047.83,658.41 C1040.97899,680.002307 1035.48494,702.001904 1031.38,724.28 C1027.21,747.86 1024.96,772.18 1028,796.04 C1028,796.39 1028.1,796.75 1028.14,797.1 C1028.32182,797.763622 1028.66541,798.371781 1029.14,798.87 C1029.89027,799.621108 1030.90836,800.043147 1031.97,800.043147 C1033.03164,800.043147 1034.04973,799.621108 1034.8,798.87 C1035.19391,798.474551 1035.50648,798.005709 1035.72,797.49 C1035.81835,797.449983 1035.9122,797.399705 1036,797.34 C1036.88934,796.832736 1037.53783,795.989701 1037.8,795 C1038.67,790.57 1039.19,786 1039.7,781.56 C1040.21,777.12 1040.7,772.68 1041.11,768.23 C1042.11,758.91 1043.11,749.6 1044.37,740.31 L1044.28,740.96 C1047.56,716.77 1051.64,692.66 1057.66,668.96 C1059.16667,663.04 1060.81,657.16 1062.59,651.32 C1064.39,645.41 1066.39,639.57 1068.45,633.75 C1072.79,621.443333 1077.28667,609.196667 1081.94,597.01 C1086.30667,585.596667 1090.86,574.263333 1095.6,563.01 C1100.34,551.77 1105.17,540.53 1110.74,529.68 C1116.01827,519.514127 1121.81249,509.624569 1128.1,500.05 C1140.36,481.19 1154.1,463.37 1167.47,445.29 C1179.94,428.45 1192.05,411.29 1202.37,393.06 C1203.2879,391.488287 1203.02899,389.495044 1201.74,388.21 C1200.99166,387.462493 1199.97772,387.04 1198.92,387.04 C1197.86445,387.066686 1196.85623,387.483514 1196.09,388.21 L1196.08,388.27 Z M1179.72,414.35 C1162.6,439.75 1143.14,463.58 1125.93,488.95 C1134.52292,473.725994 1143.98871,459.01145 1154.28,444.88 C1155.96,442.6 1157.66,440.33 1159.39,438.09 C1165.7611,429.838168 1172.54647,421.914664 1179.72,414.35 Z M1159.35,438.14 C1159.22,438.31 1159.08,438.48 1158.95,438.66 C1159.08,438.48 1159.22,438.31 1159.35,438.14 Z M1095.56,563.14 L1095.48,563.33 L1095.56,563.14 Z"/>
    <path fill="#45BF55" d="M1177.15 413.28C1176.59 414.22 1176.01 415.15 1175.43 416.07 1171.21546 419.796864 1167.43791 423.990414 1164.17 428.57 1160.89 432.96 1157.95 437.57 1155.06 442.24 1154.2 443.24 1153.35 444.36 1152.53 445.44 1152.30257 445.553793 1152.09894 445.709915 1151.93 445.9 1148.64 449.63 1145.57 453.57 1142.62 457.57 1142.41102 457.924532 1142.30054 458.328458 1142.3 458.74 1142.28965 458.873132 1142.28965 459.006868 1142.3 459.14 1139.70464 462.49665 1137.36474 466.043268 1135.3 469.75 1135.08136 470.158303 1134.97442 470.617104 1134.99 471.08L1134.5 471.77C1134.22978 472.158021 1134.10578 472.629232 1134.15 473.1L1133.54 473.97C1133.09186 474.1971 1132.71478 474.543041 1132.45 474.97 1131.45 476.43 1130.58 477.91 1129.66 479.4 1129.45481 479.724367 1129.33763 480.096583 1129.32 480.48 1128.61005 480.591342 1127.99063 481.022722 1127.64 481.65 1126.90273 483.001604 1126.23519 484.39009 1125.64 485.81 1125.36 486.32 1125.12 486.86 1124.88 487.39 1124.50924 488.162868 1124.19508 488.961634 1123.94 489.78 1123.72613 490.583333 1123.95453 491.439824 1124.54 492.03 1125.12904 492.617476 1125.98848 492.842839 1126.79 492.62 1127.16958 492.515083 1127.51461 492.311516 1127.79 492.03 1128.07932 491.73365 1128.28914 491.369049 1128.4 490.97 1128.40252 490.926703 1128.40252 490.883297 1128.4 490.84 1128.84152 489.844461 1129.37729 488.89346 1130 488 1130.18272 487.810375 1130.34993 487.606387 1130.5 487.39 1130.75291 487.1952 1130.96667 486.954294 1131.13 486.68 1132.94565 484.335918 1134.5455 481.832381 1135.91 479.2 1138.12 476.15 1140.29 473.08 1142.28 469.89 1144.39932 467.250826 1146.32755 464.463744 1148.05 461.55 1148.44307 460.863975 1148.48396 460.031237 1148.16 459.31 1149.3 457.8 1150.45 456.31 1151.56 454.77L1151.76 454.61C1156.76 450.52 1160.35 445.02 1163.83 439.67 1164.11341 439.209927 1164.20666 438.657618 1164.09 438.13 1165.44 436.5 1166.76 434.84 1167.97 433.13 1170.46 430.13 1172.78 427.06 1174.97 423.87 1177.05 421.45 1179.17 419.06 1181.23 416.62 1181.85934 415.968461 1181.98922 414.982254 1181.55 414.19 1181.31556 413.802803 1180.96591 413.498607 1180.55 413.32 1180.37891 413.023146 1180.13443 412.775222 1179.84 412.6 1179.53749 412.421637 1179.19107 412.331568 1178.84 412.339458 1178.13336 412.347816 1177.4833 412.727969 1177.13 413.34L1177.15 413.28zM931.3 558.6C930.535801 559.341996 930.109291 560.364898 930.119803 561.43 930.75 567.65 931.61 573.86 932.76 580.01 933.34 583.01 934.03 586.01 934.76 589.01 935.49 592.01 936.28 595.01 937.14 598.01 940.635619 610.235805 945.398101 622.06325 951.35 633.3 957.121518 644.269168 964.354103 654.404879 972.85 663.43 975.52 666.24 978.36 668.9 981.24 671.51 981.74 672.07 982.24 672.62 982.76 673.17 985.1 675.71 987.45 678.25 989.89 680.69 992.33 683.13 994.89 685.58 997.53 687.95 998.77 689.08 1000.01 690.23 1001.29 691.33 1002.57 692.43 1004.08 693.67 1005.5 694.82 1008.5 697.22 1011.44 699.61 1014.58 701.82 1017.32744 703.760491 1020.18929 705.533703 1023.15 707.13 1023.85 707.5 1024.55 707.86 1025.26 708.2 1026.36153 708.747383 1027.5052 709.205519 1028.68 709.57 1029.27 709.74 1029.89 709.86 1030.5 709.98 1031.35652 710.170452 1032.23274 710.257739 1033.11 710.24 1033.52425 710.242889 1033.93624 710.178726 1034.33 710.05 1035.4701 710.380414 1036.65313 710.538825 1037.84 710.5215 1039.06896 710.540224 1040.25829 710.085268 1041.16 709.25 1041.39525 708.967907 1041.3765 708.552959 1041.11677 708.293231 1040.85704 708.033504 1040.44209 708.014754 1040.16 708.25L1039.92 708.47C1039.76273 708.582028 1039.59533 708.679116 1039.42 708.76 1039.18751 708.848976 1038.94612 708.912676 1038.7 708.95 1038.30101 708.990101 1037.89899 708.990101 1037.5 708.95 1037.11 708.89 1036.72 708.8 1036.33 708.7 1036.44139 708.557916 1036.54169 708.407472 1036.63 708.25 1037.38367 706.987239 1037.38367 705.412761 1036.63 704.15 1036.23288 703.535526 1035.76279 702.971418 1035.23 702.47 1034.8 702.08 1034.35 701.72 1033.93 701.31 1032.54911 700.048522 1031.06005 698.910813 1029.48 697.91 1028.16 697.01 1026.86 696.09 1025.48 695.21 1024.1 694.33 1022.77 693.41 1021.48 692.5 1018.74 690.63 1016 688.76 1013.3 686.84 1010.85 685.1 1008.47 683.26 1006.08 681.43 1002.83 678.89 999.68 676.22 996.57 673.49 995 672.12 993.43 670.75 991.9 669.34 990.37 667.93 988.73 666.34 987.21 664.78 984.45 661.99 981.78 659.1 979.21 656.14 976.64 653.18 974.04 650.09 971.6 646.96 967.338765 641.376378 963.360428 635.582425 959.68 629.6 956.089711 623.836664 952.921427 617.820937 950.2 611.6 948.60985 607.761259 947.316066 603.806358 946.33 599.77 945.25 595.38 944.48 590.9 943.73 586.43 942.28 577.65 940.99 568.77 937.99 560.34 937.813081 559.677298 937.46872 559.071224 936.99 558.58 935.42985 557.029106 932.91015 557.029106 931.35 558.58L931.3 558.6z"/>
    <path fill="#45BF55" d="M920,631.12 C918.626208,631.953541 918.180086,633.738032 919,635.12 C919.282407,635.645152 919.596313,636.152745 919.94,636.64 C920.13,636.95 920.33,637.26 920.54,637.56 C921.05,638.34 921.54,639.11 922.14,639.87 C922.36,640.18 922.59,640.48 922.82,640.79 L923.63,641.89 C926.296667,645.483333 929.09,648.966667 932.01,652.34 C935.149663,655.979569 938.527062,659.407079 942.12,662.6 C945.4861,665.720524 949.268819,668.359005 953.36,670.44 C956.44507,672.03936 959.886368,672.827417 963.36,672.73 C964.256061,672.663431 965.145482,672.52634 966.02,672.32 C966.950672,672.076192 967.855044,671.74124 968.72,671.32 C969.53405,670.916805 970.296267,670.416495 970.99,669.83 C971.273311,669.616553 971.534606,669.375357 971.77,669.11 C972.078858,668.749711 972.353384,668.361357 972.59,667.95 C972.8,667.73 973,667.51 973.19,667.28 C973.758165,666.686521 974.082909,665.901423 974.1,665.08 C974.096478,664.388 973.864457,663.716546 973.44,663.17 C973.920522,662.634102 974.078645,661.882556 973.854804,661.198462 C973.630964,660.514368 973.059167,660.001657 972.354804,659.853462 C971.650441,659.705267 970.920522,659.944102 970.44,660.48 L969.82,661.01 C969.048276,661.568084 968.22445,662.050323 967.36,662.45 C966.393931,662.835018 965.387597,663.110083 964.36,663.27 C963.031105,663.423855 961.688895,663.423855 960.36,663.27 C958.328801,662.933711 956.342616,662.366709 954.44,661.58 C950.491201,659.821682 946.773358,657.58493 943.37,654.92 C942.48,654.22 941.61,653.51 940.76,652.78 C939.76,651.78 938.76,650.78 937.76,649.78 C934.76,646.6 931.98,643.27 929.3,639.78 C927.41,637.33 925.57,634.78 923.91,632.22 C923.355229,631.337822 922.391995,630.796002 921.35,630.78 C920.846159,630.78319 920.352373,630.921311 919.92,631.18 L920,631.12 Z M954,661.33 L954.34,661.48 L954,661.33 Z"/>
    <path fill="url(#enterease-a)" d="M613.07,235.91 C602.140941,235.901198 591.222337,236.585907 580.38,237.96 C566.047684,239.698791 551.958089,243.053457 538.38,247.96 C526.424651,252.393356 515.093758,258.356276 504.67,265.7 C494.635998,272.814932 485.431783,281.032982 477.23,290.2 C468.916389,299.504915 461.465738,309.546223 454.97,320.2 C448.259322,331.17098 442.360245,342.618198 437.32,354.45 C427.71,376.7 420.21,401 414.4,428.74 C411.93,440.49 409.82,452.95 408.11,465.74 C406.59,477.17 405.37,489.23 404.4,502.6 C402.250896,529.820962 402.053725,557.160873 403.81,584.41 C405.81,613.95 410.53,640.08 418.12,664.3 C426.5,691.03 438.56,714.63 453.99,734.43 C458.128197,739.740558 462.533891,744.837145 467.19,749.7 C471.975331,754.637985 477.02615,759.311579 482.32,763.7 C487.629453,768.129327 493.199426,772.236681 499,776 C504.878247,779.788493 511.020676,783.150453 517.38,786.06 C539.92,796.52 565.92,802.06 592.57,802.06 C595.19,802.06 597.84,802.06 600.46,801.9 C614.715781,801.327875 628.85392,799.072218 642.58,795.18 C656.03436,791.387595 668.916778,785.80073 680.88,778.57 C683.43,777.03 686.06,775.28 689.43,772.92 C692.43,770.82 695.43,768.6 698.58,766.14 C704.41,761.6 710.09,756.75 715.45,751.74 C725.817737,741.968626 735.298227,731.2968 743.78,719.85 C759.53,698.7 772.62,673.58 782.66,645.18 C791.56,620.02 797.9,592.62 802.06,561.39 C803.91,547.53 805.31,532.87 806.23,517.84 C806.97,505.68 807.44,493.71 807.61,482.25 C808.03,453.52 806.39,428.42 802.61,405.53 C801.013327,395.745182 798.846301,386.062015 796.12,376.53 L796.12,375.99 L796.12,375.42 C795.733535,367.579706 794.834953,359.773061 793.43,352.05 C792.137717,344.867745 790.213574,337.813668 787.68,330.97 C785.09012,324.064519 781.953505,317.376641 778.3,310.97 C774.575618,304.420618 770.346128,298.171672 765.65,292.28 C760.925718,286.27784 755.696655,280.690807 750.02,275.58 C744.608991,270.683316 738.746115,266.310435 732.51,262.52 C729.552619,260.737342 726.497848,259.121486 723.36,257.68 C720.25,256.23 717.02,254.97 713.71,253.68 C700.11062,248.504151 686.097171,244.489795 671.82,241.68 C656.848035,238.682201 641.671981,236.813608 626.42,236.09 C622.06,235.88 617.61,235.77 613.19,235.77 L613.07,235.91 Z M533.31,254.25 L533.59,254.13 L533.77,254.06 L533.31,254.25 Z"/>
    <path fill="#E5D3B8" d="M520.24 536.55L519.73 536.55 519.38 536.6 519.04 536.6 518.72 536.6 518.39 536.6 518.23 536.6 517.73 536.66C516.93 536.77 516.08 536.91 515.14 537.09 513.31 537.45 511.55 537.93 509.92 538.4L507.6 539.08 507.39 539.14 507 539.25 506.58 539.38 504.58 539.95C502.95 540.42 501.23 540.86 499.31 541.32L499.22 541.32C486.885022 544.145033 474.314421 545.818881 461.67 546.32 456.73 546.56 451.62 546.67 446.04 546.67 441.75 546.67 437.24 546.6 432.24 546.46 432.176216 546.384785 432.087459 546.335081 431.99 546.32 431.815901 546.296787 431.642108 546.364793 431.53 546.5 431.463704 546.529032 431.405388 546.573626 431.36 546.63 431.279934 546.739862 431.241001 546.874356 431.25 547.01 431.262897 547.079873 431.286508 547.147335 431.32 547.21 429.539063 554.920829 428.246494 562.73636 427.45 570.61 426.638223 578.639462 426.337617 586.712402 426.55 594.78 426.953585 610.999135 429.522996 627.091586 434.19 642.63 436.525787 650.404743 439.426853 657.998315 442.87 665.35 444.56 668.98 446.42 672.59 448.39 676.1 449.39 677.85 450.39 679.62 451.5 681.37 452.01 682.2 452.5 683.03 453.06 683.85 453.62 684.67 454.29 685.72 455.06 686.69 456.940637 689.213929 458.99566 691.603102 461.21 693.84 461.289091 693.912324 461.392839 693.951677 461.5 693.950051 461.606609 693.950051 461.710836 693.918441 461.8 693.86 461.983353 693.7288 462.053517 693.48942 461.97 693.28 461.51 691.96 461.06 690.79 460.61 689.71 460.16 688.63 459.61 687.43 458.99 686.23 458.953086 686.117331 458.869207 686.026158 458.76 685.98 458.700705 685.966992 458.639295 685.966992 458.58 685.98L458.4 685.98C458.280975 686.031984 458.187458 686.129098 458.14 686.25 458.089744 686.35426 458.089744 686.47574 458.14 686.58 459 688.32 459.71 689.94 460.32 691.58 458.79 689.78 457.64 688.39 456.63 687.07 456.952557 687.0445 457.254755 686.902289 457.48 686.67 457.880357 686.243895 458.217158 685.762269 458.48 685.24 458.8565 684.540781 459.190441 683.819469 459.48 683.08 459.82 682.23 460.14 681.33 460.48 680.24 461.34 677.61 462.04 674.99 462.48 673.24 463.65 668.73 464.67 664.15 465.6 659.87L465.94 658.32C466.16 657.32 466.39 656.26 466.62 655.22 466.72 654.78 466.82 654.35 466.94 653.91 467.06 653.47 467.15 653.12 467.27 652.73L467.35 652.43 467.5 651.92C467.8 650.92 468.11 649.92 468.42 648.84 473.07 633.64 479.47 617.76 489.19 597.37 493.47 588.37 497.98 579.37 502.34 570.68L502.59 570.17C506.33 562.72 510.19 555.01 513.87 547.36 515.47 544.05 516.97 540.85 518.48 537.59L519.2 537.53C519.439815 537.506096 519.677273 537.462617 519.91 537.4L520.23 537.33C520.418299 537.310232 520.576352 537.179409 520.630957 536.99812 520.685562 536.816831 520.626057 536.620478 520.48 536.5 520.378644 536.425763 520.255601 536.387093 520.13 536.389847L520.24 536.55zM772.8 553.92C770.422342 553.912949 768.046927 554.066633 765.69 554.38 763.968269 554.590918 762.263893 554.925109 760.59 555.38 759.097102 555.7931 757.649754 556.355958 756.27 557.06 756.147895 557.114385 756.048788 557.209953 755.99 557.33 755.934808 557.454142 755.934808 557.595858 755.99 557.72 756.030772 557.847321 756.126044 557.949922 756.25 558 756.318681 558.032881 756.393854 558.049966 756.47 558.05 756.525394 558.066982 756.584606 558.066982 756.64 558.05 756.92 557.91 757.19 557.77 757.48 557.64L757.38 557.71 757.29 557.8C757.19201 557.795885 757.095923 557.827914 757.02 557.89 756.413922 558.358926 755.833108 558.859628 755.28 559.39 754.65 559.99 754.06 560.64 753.62 561.14 752.593872 562.34357 751.695707 563.650602 750.94 565.04 749.334177 568.004574 748.194167 571.198626 747.56 574.51 746.826854 578.107995 746.441745 581.768207 746.41 585.44 746.354214 589.331737 746.547945 593.223048 746.99 597.09 747.38 600.73 747.99 604.49 748.77 608.56 749.44 611.91 750.26 615.42 751.22 618.99 752 621.91 752.87 624.82 753.81 627.64 755.27 632.04 757.08 636.64 759.32 641.83 763.22 650.76 767.79 659.53 772.22 668.02L774.14 671.71C779.409398 681.512792 784.143022 691.594277 788.32 701.91 788.71989 703.026081 789.053799 704.164714 789.32 705.32 789.63 706.47 789.91 707.63 790.19 708.79L790.43 709.79C791.228657 713.27047 792.203241 716.708215 793.35 720.09 793.904833 721.672804 794.573237 723.213478 795.35 724.7 795.974775 725.949093 796.772636 727.103804 797.72 728.13 798.123446 728.548283 798.569161 728.923622 799.05 729.25 799.519018 729.560086 800.031192 729.799325 800.57 729.96 801.33526 730.204429 802.128073 730.352241 802.93 730.4L803.39 730.4C804.726385 730.38731 806.038812 730.043743 807.21 729.4 808.620423 728.627644 809.858892 727.576306 810.85 726.31 811.431569 725.600093 811.959684 724.848031 812.43 724.06 812.93 723.25 813.43 722.36 813.87 721.42 814.853079 719.343753 815.681986 717.197955 816.35 715 817.08 712.73 817.73 710.24 818.35 707.41 818.92 704.82 819.44 702.04 819.92 698.91 820.77 693.45 821.43 687.46 821.92 680.58 822.34 674.99 822.62 669.15 822.78 662.74 822.91 657.81 822.94 652.83 822.89 647.96 822.89 646.17 822.83 644.37 822.77 642.57 822.77 641.37 822.69 640.16 822.61 638.97 822.38 635.45 822.21 631.87 822.03 628.41 821.88 625.41 821.73 622.35 821.55 619.33 820.94 609.42 820.17 601.9 819.05 594.96 818.441129 591.073712 817.630028 587.221816 816.62 583.42 815.718112 579.936899 814.510077 576.540346 813.01 573.27 811.747114 570.444409 810.061103 567.827719 808.01 565.51 805.774942 563.1631 803.132007 561.24189 800.21 559.84 796.796621 558.149542 793.204077 556.848042 789.5 555.96 785.564677 554.966259 781.548924 554.323738 777.5 554.04 775.89 553.92 774.3 553.86 772.78 553.86L772.8 553.92z"/>
    <path fill="#E5D3B8" d="M492.25,547.21 C490.023507,548.136666 488.234986,549.878686 487.25,552.08 C486.364331,553.830084 485.750615,555.704952 485.43,557.64 C485.318047,558.445232 485.301265,559.260844 485.38,560.07 C484.45,561.98 483.48,563.86 482.62,565.8 C481.394152,568.719934 480.391282,571.728544 479.62,574.8 C478.902229,577.736997 478.348043,580.711572 477.96,583.71 C477.45,587.05 477.08,590.39 476.76,593.71 C476.57,595.71 476.41,597.71 476.27,599.79 C476.022876,600.090867 475.823849,600.4282 475.68,600.79 C474.441529,604.28262 473.697656,607.9313 473.47,611.63 C473.00087,613.019674 472.626676,614.439609 472.35,615.88 L472.26,616.34 C471.926378,616.485458 471.618944,616.684784 471.35,616.93 C470.633256,617.594829 469.96489,618.30998 469.35,619.07 C468.752149,619.886292 468.220458,620.749036 467.76,621.65 C466.974349,623.179824 466.395931,624.807465 466.04,626.49 C465.96,626.62 465.89,626.77 465.82,626.91 C465.75,627.05 465.77,627.03 465.74,627.1 C464.261576,627.125833 462.88232,627.84883 462.02,629.05 C461.025636,630.453694 460.237622,631.992679 459.68,633.62 C459.076438,635.430326 458.674014,637.301599 458.48,639.2 C458.37,640.2 458.31,641.2 458.29,642.14 C457.771758,644.911346 457.587112,647.734763 457.74,650.55 C457.74,651.68 457.87,652.8 458,653.93 C457.789926,654.917382 457.666126,655.921164 457.63,656.93 C457.31849,657.499306 457.108679,658.118588 457.01,658.76 C456.527575,660.701328 456.322207,662.701141 456.4,664.7 C456.310089,664.97804 456.239914,665.262079 456.19,665.55 C455.705072,669.027338 456.047693,672.570035 457.19,675.89 L456.92,675.99 C454.362205,677.071872 453.133253,679.995627 454.15,682.58 C455.021564,684.954951 456.116469,687.241862 457.42,689.41 C458.90099,691.758002 460.743715,693.857225 462.88,695.63 C463.220656,695.927272 463.605191,696.170136 464.02,696.35 C464.637286,696.996595 465.30616,697.591893 466.02,698.13 C467.168109,698.980284 468.606829,699.339964 470.02,699.13 C470.78,699.59 471.54,700.03 472.32,700.44 C473.223022,700.928504 474.174927,701.320662 475.16,701.61 C475.91,701.84 476.65,702.05 477.42,702.21 C478.037993,702.310318 478.664254,702.350505 479.29,702.33 L479.75,702.33 C481.972371,702.266125 484.114969,701.487636 485.86,700.11 C487.554873,698.767855 488.922636,697.058152 489.86,695.11 C490.748581,693.227817 491.37443,691.232504 491.72,689.18 C492.091633,687.180295 492.298992,685.153531 492.34,683.12 C492.64,674.85 491.34,666.72 490.25,658.56 C490.03,656.84 489.92,655.12 489.81,653.39 C489.59,649.943333 489.4,646.493333 489.24,643.04 C490.488699,640.63572 491.31409,638.034384 491.68,635.35 C492.20965,635.199322 492.705337,634.948084 493.14,634.61 C494.049163,633.883414 494.666736,632.854126 494.88,631.71 C495.472308,629.27513 495.807476,626.784827 495.88,624.28 C496.03,624.19 496.17,624.09 496.31,623.99 C497.239768,623.314336 497.853724,622.28867 498.01,621.15 C498.01,620.64 498.01,620.15 498.01,619.64 C499.056338,618.715411 499.583144,617.336748 499.42,615.95 C499.05,612.95 498.54,609.95 497.9,607.06 C497.37,603.39 496.79,599.73 496.09,596.06 C495.51,592.98 494.83,589.91 494.09,586.87 C493.82,585.8 493.54,584.73 493.25,583.67 C493.208971,583.27903 493.114768,582.89549 492.97,582.53 C492.97,582.46 492.91,582.38 492.87,582.3 L492.87,582.18 C492.8,581.95 492.73,581.71 492.64,581.48 C492.92,580.146667 493.23,578.813333 493.57,577.48 C494.772925,573.759242 496.309155,570.154625 498.16,566.71 C498.627412,566.483862 499.061483,566.194481 499.45,565.85 C500.453524,564.980034 501.371079,564.015596 502.19,562.97 C502.953128,561.811702 503.647654,560.609638 504.27,559.37 C505.288694,557.094262 505.317663,554.497901 504.35,552.2 C502.416202,547.5062 497.060807,545.248009 492.35,547.14 L492.25,547.21 Z M479.25,668.75 C479.25,668.63 479.32,668.51 479.36,668.39 C480.120883,673.398965 480.538523,678.454078 480.61,683.52 C480.579549,685.603472 480.331536,687.678063 479.87,689.71 C479.7045,690.205437 479.50743,690.689762 479.28,691.16 L479,691.52 L478.38,691.42 C477.89,691.24 477.38,691.03 476.94,690.81 C476.838546,690.175908 476.621622,689.56581 476.3,689.01 C476.3,688.9 476.3,688.78 476.35,688.66 C476.589766,686.325945 476.502253,683.969837 476.09,681.66 C476.080598,681.551616 476.060501,681.444428 476.03,681.34 C476.3493,679.727527 476.460207,678.080725 476.36,676.44 C476.36,676.19 476.47,675.94 476.52,675.68 C476.761429,674.243408 476.848591,672.785122 476.78,671.33 C477.902086,670.821277 478.786187,669.901382 479.25,668.76 L479.25,668.75 Z"/>
    <path fill="#E5D3B8" d="M511.38 539.54C510.222854 539.671411 509.167072 540.262361 508.45 541.18 508.25 541.5 508.06 541.82 507.87 542.18 507.562609 542.89457 507.448793 543.677484 507.54 544.45L507.54 546.09 507.54 547.09C507.241021 547.054998 506.938979 547.054998 506.64 547.09 505.530802 547.222984 504.519938 547.79137 503.83 548.67L503.28 549.59C503.045551 550.118855 502.926246 550.69152 502.93 551.27 502.414207 551.847751 502.08941 552.570686 502 553.34 501.89 554.83 501.86 556.34 501.89 557.81 501.555562 558.050943 501.256057 558.336987 501 558.66 500.831681 558.875454 500.684344 559.106505 500.56 559.35 500.113773 559.249798 499.653317 559.229484 499.2 559.29 496.944753 559.586532 495.338009 561.628251 495.58 563.89 495.63 564.49 495.69 565.08 495.75 565.68 494.782565 566.562214 494.283133 567.845939 494.4 569.15 494.5 570.3 494.63 571.44 494.79 572.58 494.443395 572.893098 494.155536 573.265621 493.94 573.68 493.727133 573.660054 493.512867 573.660054 493.3 573.68 492.727369 573.753908 492.181508 573.96676 491.71 574.3 491.485908 574.367231 491.273442 574.468405 491.08 574.6 490.73 573.6 490.35 572.6 489.95 571.6 489.823073 571.300317 489.513092 571.120854 489.19 571.16 488.792465 571.212045 488.508682 571.571207 488.55 571.97 488.632777 574.240182 488.968179 576.49408 489.55 578.69L489.76 579.57C489.761214 580.475109 489.80794 581.379584 489.9 582.28 490.149482 584.444206 490.601463 586.580233 491.25 588.66 492.476861 592.569048 494.042812 596.363467 495.93 600 496.186595 600.541476 496.583726 601.004219 497.08 601.34 497.5 602.34 497.93 603.44 498.36 604.49 498.680736 605.261553 499.270584 605.890486 500.02 606.26 500.748436 607.543842 502.173514 608.268191 503.64 608.1 505.281298 607.913163 506.591 606.644517 506.83 605.01 506.967973 603.393916 507.01138 601.771149 506.96 600.15 507.998738 599.53519 508.704302 598.484194 508.88 597.29 509.164446 594.733844 509.254705 592.159802 509.15 589.59 509.343529 589.20448 509.468718 588.78831 509.52 588.36L509.61 587.5 509.86 587.5C511.463608 587.73377 513.059822 587.030814 513.97 585.69 514.21 586.51 514.46 587.32 514.72 588.14 514.973554 589.015944 515.308341 589.866302 515.72 590.68 516.1 591.39 516.5 592.1 516.95 592.78 517.465657 593.469385 518.048519 594.105843 518.69 594.68 519.594352 595.480048 520.603666 596.152924 521.69 596.68 522.587309 597.077795 523.576208 597.223018 524.55 597.1 527.588526 596.735043 529.758203 593.97933 529.4 590.94 529.27 590.46 529.15 589.94 529.03 589.5 528.720574 588.736045 528.241899 588.052224 527.63 587.5 527.05 586.8 526.54 586.04 526 585.31 525.29 584.31 524.57 583.38 523.93 582.37 522.528952 579.536143 521.439252 576.558749 520.68 573.49 519.411867 567.971188 518.476845 562.381094 517.88 556.75 517.57 554.19 517.29 551.62 517.02 549.06L516.66 545.86C516.55 544.99 516.38 544.13 516.26 543.26 515.959555 541.071494 514.108695 539.428644 511.9 539.39 511.726993 539.374949 511.553007 539.374949 511.38 539.39L511.38 539.54zM455.3 599.3C453.935908 600.374594 453.019931 601.917855 452.73 603.63 451.21 610.29 450.01 617.03 449.03 623.79 447.996306 630.413213 447.351866 637.091341 447.1 643.79 446.872938 650.881965 447.207315 657.980779 448.1 665.02 448.5 668.02 449.1 670.96 449.81 673.91 450.52 676.86 451.19 679.69 451.99 682.56 453.26 687.12 454.72 691.64 456.42 696.06 457.27 698.27 458.14 700.47 459.09 702.64 460.200749 705.039759 461.442624 707.37662 462.81 709.64 463.947772 711.60001 465.206891 713.48702 466.58 715.29 468.127039 717.263281 469.797022 719.137002 471.58 720.9 473.172806 722.452637 474.862894 723.902239 476.64 725.24 478.93094 726.845572 481.337506 728.279484 483.84 729.53 484.825579 729.965267 485.910985 730.124276 486.98 729.99 489.144326 729.737228 491.0071 728.343735 491.860723 726.338859 492.714345 724.333983 492.427825 722.025378 491.11 720.29 490.21 719.19 489.28 718.12 488.35 717.04 487.42 715.96 486.52 714.87 485.54 713.84 483.22 711.39 480.75 709.1 478.33 706.77 476.33 704.83 474.33 702.89 472.27 700.94L471.68 700.37C470.11906 696.66059 468.825753 692.844163 467.81 688.95 467.12 686.06 466.59 683.14 466.03 680.23 465.4 676.93 464.81 673.63 464.19 670.33 463.29 665.53 462.46 660.74 461.99 655.88 461.573428 651.339002 461.386524 646.779858 461.43 642.22 461.49 639.51 461.6 636.8 461.73 634.09 461.88 631.03 462.22 627.99 462.6 624.95 463.42 618.48 464.66 612.07 465.87 605.66 466.390973 602.017212 463.893875 598.629884 460.26 598.05 459.928927 598.001311 459.594627 597.97791 459.26 597.979871 457.799267 597.979871 456.377718 598.452402 455.21 599.33L455.3 599.3z"/>
    <path fill="url(#enterease-b)" d="M554.73,360.68 C554.441,360.680875 554.154015,360.728143 553.88,360.82 L553.61,360.82 C552.242578,360.838607 550.8772,360.93208 549.52,361.1 C547.665471,361.326043 545.825688,361.659942 544.01,362.1 C540.109899,363.031106 536.288321,364.264844 532.58,365.79 C529.22,367.13 525.71,368.79 521.87,370.72 L521.74,370.78 L521.65,370.83 C518.85,371.99 515.97,373.31 512.83,374.83 C508.78,376.83 504.61,379.08 500.09,381.73 C496.45,383.86 492.73,386.22 488.73,388.95 C484.811845,391.58515 481.033407,394.422316 477.41,397.45 C473.123943,401.082706 469.031639,404.938016 465.15,409 C461.58,412.72 457.92,416.88 453.95,421.72 C447.236063,429.813116 441.265241,438.494905 436.11,447.66 C433.681296,452.061642 431.47844,456.584171 429.51,461.21 C427.534798,465.82739 425.80898,470.54752 424.34,475.35 C421.426472,485.101102 419.634888,495.152758 419,505.31 C418.646337,510.539079 418.57957,515.783613 418.8,521.02 C418.95,524.73 419.16,528.71 419.69,532.67 C420.41,537.98 421.69,543.93 425.94,547.83 C427.871168,549.527894 430.183118,550.735321 432.68,551.35 C434.02032,551.708182 435.388527,551.952386 436.77,552.08 C438.29,552.23 439.89,552.31 441.53,552.31 L442.03,552.31 C443.73,552.31 445.57,552.2 447.82,552.01 L449.99,551.81 C451.05,551.71 452.1,551.61 453.16,551.53 C456.71,551.29 460.45,551.19 463.45,551.11 L464.45,551.11 L465.45,551.11 C473.659882,551.024328 481.857519,550.453332 490,549.4 C493.910981,548.898664 497.760805,548.000707 501.49,546.72 C503.158406,546.130257 504.771362,545.394054 506.31,544.52 C507.756029,543.699429 509.098873,542.709082 510.31,541.57 C511.650686,540.256846 512.844388,538.801602 513.87,537.23 C514.961525,535.572842 515.924349,533.834411 516.75,532.03 C518.565798,528.066121 520.174629,524.010666 521.57,519.88 L522.23,517.98 L522.55,517.04 C523.04,515.62 523.55,514.2 524.04,512.8 C524.7,511 525.43,509.27 526.04,507.8 C527.2,505.08 528.32,502.38 529.46,499.56 C531.63,494.23 533.77,488.7 535.82,483.12 C539.91,471.99 543.66,460.71 546.95,449.59 C550.24,438.47 553.26,427.09 555.95,415.41 C556.27,414.04 556.62,412.67 556.95,411.29 L556.95,411.13 L557.58,408.57 C558.49,404.86 559.2,401.79 559.81,398.93 C560.63,395.07 561.26,391.51 561.74,388.07 C562.285557,384.367183 562.58621,380.632405 562.64,376.89 C562.657456,375.343427 562.580647,373.797228 562.41,372.26 C562.244267,370.687885 561.932931,369.134552 561.48,367.62 C561.317906,367.071844 561.113973,366.536939 560.87,366.02 C560.557269,365.290615 560.179054,364.591085 559.74,363.93 C559.325918,363.349778 558.857102,362.810639 558.34,362.32 C558.048531,362.073462 557.741205,361.846308 557.42,361.64 L557.25,361.52 C557.026355,361.367586 556.788598,361.236987 556.54,361.13 C556.144691,360.946175 555.728212,360.811827 555.3,360.73 C555.105798,360.690563 554.908166,360.67 554.71,360.67 L554.73,360.68 Z"/>
    <path fill="#F9E5C8" d="M647.38,307.46 C647.190289,307.445182 646.999711,307.445182 646.81,307.46 C639.887375,308.756894 633.048501,310.466612 626.33,312.58 C618.96,314.73 611.33,316.96 603.6,318.03 C600.860006,318.374474 598.101549,318.551469 595.34,318.56 C593.073963,318.56488 590.809744,318.431298 588.56,318.16 C587.46,318 586.36,317.81 585.3,317.59 C585.11589,317.550818 584.928232,317.530711 584.74,317.53 C584.389647,317.52758 584.044806,317.617239 583.74,317.79 C583.287889,318.060933 582.955495,318.493403 582.81,319 C582.705914,319.372872 582.705914,319.767128 582.81,320.14 C582.493333,320.223409 582.206012,320.393032 581.98,320.63 L581.66,321.03 C581.483746,321.33384 581.390623,321.67874 581.39,322.03 L581.39,322.28 L581.39,322.52 C580.899032,326.242581 580.201286,329.934956 579.3,333.58 C578.471646,336.878583 577.398676,340.110863 576.09,343.25 C574.918856,345.930661 573.607031,348.547635 572.16,351.09 C571.16,352.8 570.16,354.51 569.16,356.16 L568.32,357.54 C568.08692,357.583551 567.863441,357.668202 567.66,357.79 C566.744308,358.322798 566.327093,359.424247 566.66,360.43 C566.476893,361.096106 566.663768,361.809282 567.15,362.3 C567.524827,362.656105 568.022994,362.853221 568.54,362.85 C569.415574,363.737269 570.354735,364.559452 571.35,365.31 C572.874698,366.451562 574.497736,367.455503 576.2,368.31 C579.830046,370.196713 583.693484,371.595486 587.69,372.47 C591.932595,373.391811 596.250546,373.924024 600.59,374.06 C601.78,374.11 603.01,374.13 604.26,374.13 C607.19,374.13 610.26,374 613.6,373.73 C617.51,373.42 621.65,372.9 626.25,372.16 C630.08,371.53 633.55,370.86 636.88,370.09 C640.400772,369.203253 643.829469,367.984458 647.12,366.45 C650.933452,364.759727 654.588022,362.731641 658.04,360.39 C661.412547,358.174501 664.444379,355.47954 667.04,352.39 C668.202981,350.998835 669.17491,349.458546 669.93,347.81 C670.672336,346.18999 671.112882,344.448138 671.23,342.67 C671.41,339.6 670.16,336.24 667.53,332.67 C665.390463,329.914887 663.050794,327.321196 660.53,324.91 L659.03,323.39 C657.162297,321.526473 655.396402,319.563626 653.74,317.51 C652.347881,315.714634 651.166792,313.765168 650.22,311.7 C649.826567,310.761933 649.492574,309.800032 649.22,308.82 C649.079769,308.313314 648.745671,307.88222 648.29,307.62 C647.98901,307.438011 647.641515,307.347662 647.29,307.36 L647.38,307.46 Z"/>
    <path fill="url(#enterease-c)" d="M605.27,114.37 C601.806844,114.371786 598.347043,114.585519 594.91,115.01 C585.950651,116.03315 577.283324,118.82369 569.41,123.22 C565.566265,125.424062 562.009359,128.09426 558.82,131.17 C555.541039,134.33849 552.699319,137.930155 550.37,141.85 C549.292248,143.684374 548.317408,145.5773 547.45,147.52 C546.45,149.71 545.45,152.02 544.45,154.6 C542.524542,159.581548 540.934329,164.686267 539.69,169.88 C538.398105,175.192968 537.528725,180.599849 537.09,186.05 C536.818563,189.329699 536.775125,192.624285 536.96,195.91 C534.278338,194.494133 531.310693,193.704357 528.28,193.6 L528.18,193.6 C526.818249,193.604044 525.466589,193.833827 524.18,194.28 C522.756454,194.795659 521.443351,195.576056 520.31,196.58 C518.993856,197.802199 517.885966,199.230973 517.03,200.81 C516.071057,202.460554 515.369648,204.247799 514.95,206.11 C513.57,212.26 515.49,219.05 520.79,226.87 C523.029439,230.077089 525.43958,233.161535 528.01,236.11 L529.9,238.31 C531.43,240.09 533.02,241.93 534.5,243.81 L534.56,243.87 L534.61,243.87 L534.61,243.96 C535.5,245.17 536.36,246.4 537.22,247.76 C538.22,249.37 539.13,251.05 540.03,252.76 C542.03,256.57 543.74,260.53 545.03,263.55 L544.96,263.34 C545.813333,265.413333 546.66,267.49 547.5,269.57 C550.090226,276.351937 553.095923,282.967809 556.5,289.38 C557.12,290.48 557.73,291.59 558.35,292.7 C560.35,296.22 562.35,299.85 564.42,303.36 C567.86523,309.282863 571.852302,314.873466 576.33,320.06 C578.469198,322.498123 580.844069,324.718911 583.42,326.69 C585.654284,328.425773 588.175867,329.755951 590.87,330.62 C592.066717,330.990845 593.307799,331.199373 594.56,331.24 L594.64,331.33 C594.985996,331.679895 595.448841,331.889955 595.94,331.92 L596.07,331.92 C599.215934,331.548517 602.382369,331.378171 605.55,331.41 C607.02,331.41 608.48,331.41 609.95,331.47 L612.41,331.52 C614.77,331.58 617.2,331.64 619.59,331.64 C621.17,331.64 622.59,331.64 623.96,331.56 C628.568059,331.474021 633.140486,330.733275 637.54,329.36 C639.7712,328.629209 641.911715,327.646182 643.92,326.43 C644.959431,325.770017 645.961006,325.052222 646.92,324.28 C647.88064,323.510002 648.761708,322.645685 649.55,321.7 L649.62,321.7 L650.26,321.7 C650.791743,321.693988 651.300562,321.482577 651.68,321.11 C658.821447,314.742421 664.830137,307.208735 669.45,298.83 C674.141756,290.27449 677.787919,281.185944 680.31,271.76 C682.920318,262.107363 684.762735,252.263307 685.82,242.32 C686.82,233.4 687.43,223.88 687.6,213.22 C687.67,208.89 687.67,204.39 687.6,199.48 C687.54,195.1 687.42,190.4 686.99,185.6 C686.353998,177.008825 684.5265,168.54781 681.56,160.46 C680.142745,156.727002 678.392349,153.129152 676.33,149.71 C674.265025,146.332868 671.880766,143.16167 669.21,140.24 C663.418082,134.078919 656.574396,128.999489 649,125.24 C644.614065,123.011174 640.080034,121.086634 635.43,119.48 C631.122285,117.971827 626.710667,116.778685 622.23,115.91 C616.627271,114.832785 610.935341,114.28703 605.23,114.28 L605.27,114.37 Z M553.27,273.3 L553.27,273.22 L553.66,274.22 L553.34,273.42 L553.27,273.3 Z"/>
    <path fill="#F9E5C8" d="M202.83,1 C202.83,1.55228475 203.277715,2 203.83,2 C204.382285,2 204.83,1.55228475 204.83,1 C204.83,0.44771525 204.382285,0 203.83,0 C203.277715,0 202.83,0.44771525 202.83,1 Z"/>
    <path fill="url(#enterease-d)" d="M596.41,73.79 C595.5,73.79 594.6,73.79 593.69,73.85 C583.47,74.36 573.11,77.74 562.88,83.91 C558.03041,86.861901 553.452442,90.238487 549.2,94 C544.919266,97.7937266 540.931252,101.905427 537.27,106.3 C530.056812,114.862093 524.09413,124.403732 519.56,134.64 C516.96,140.55 513.79,148.4 512.33,156.64 C511.639895,160.411623 511.418217,164.254037 511.67,168.08 C511.841748,170.060785 512.17621,172.024077 512.67,173.95 C512.92039,174.93137 513.220782,175.8993 513.57,176.85 C511.063518,177.160979 508.645396,177.973822 506.46,179.24 C503.86216,180.832579 501.760054,183.11823 500.39,185.84 C498.943448,188.806219 498.071432,192.019445 497.82,195.31 C497.481726,198.868918 497.542101,202.454488 498,206 C499.009622,213.88978 500.911805,221.639415 503.67,229.1 C504.93,232.62 506.36,236.1 507.91,239.6 C509.13896,242.380531 510.507365,245.097315 512.01,247.74 C512.56,248.74 513.18,249.74 513.91,250.82 C515.3,252.94 516.73,255.05 518.16,257.09 C521.289237,261.600066 524.657378,265.939593 528.25,270.09 C531.845146,274.226372 535.804369,278.031644 540.08,281.46 C541.678343,282.76451 543.347555,283.979696 545.08,285.1 C545.255214,285.968363 545.519962,286.816226 545.87,287.63 C546.349492,288.771679 546.890279,289.886635 547.49,290.97 C548.879969,293.437383 550.422984,295.815364 552.11,298.09 C554.05,300.75 556.17,303.39 558.57,306.18 C560.97,308.97 563.26,311.39 565.57,313.65 C567.532171,315.541604 569.602307,317.317915 571.77,318.97 C573.510568,320.317701 575.375675,321.496368 577.34,322.49 C579.034125,323.390077 580.896869,323.928128 582.81,324.07 L582.99,324.07 C584.305582,324.097039 585.58697,323.649796 586.6,322.81 C588.95,323.57 591.39,324.29 593.9,325.03 L595.27,325.44 C596.85,325.91 598.47,326.44 600.08,326.8 C606.46679,328.372606 613.022497,329.155126 619.6,329.130586 L621,329.130586 C628.232971,329.123723 635.413288,327.899959 642.24,325.51 C649.33,322.9 655.14,318.86 659.03,313.84 C659.924199,312.694639 660.742609,311.492077 661.48,310.24 C662.249437,308.877467 662.917897,307.460332 663.48,306 C664.64588,303.009295 665.399457,299.873876 665.72,296.68 C665.722848,295.96263 665.341268,295.298682 664.72,294.94 C664.418525,294.758137 664.07204,294.664586 663.72,294.67 C663.370367,294.682088 663.028205,294.774472 662.72,294.94 C662.1,295.25 661.48,295.55 660.85,295.82 C658.815729,296.644638 656.690919,297.225352 654.52,297.55 C653.291746,297.69024 652.056214,297.757026 650.82,297.75 C647.738075,297.685542 644.66268,297.438442 641.61,297.01 C640.61,296.88 639.61,296.76 638.61,296.66 C635.701831,296.325172 632.777358,296.151573 629.85,296.14 C627.9,296.14 626.01,296.23 624.25,296.4 C619.940783,296.8861 615.677242,297.7154 611.5,298.88 C609.5,299.41 607.5,299.97 605.58,300.53 L604.2,300.92 L602.76,301.33 C600.58822,301.994121 598.381554,302.538276 596.15,302.96 L595.72,303.03 C594.506271,303.186989 593.283837,303.267149 592.06,303.27 C590.970653,303.267091 589.882309,303.20366 588.8,303.08 C586.233858,302.681232 583.725546,301.972726 581.33,300.97 C576.781964,298.838755 572.431633,296.30887 568.33,293.41 L567.98,293.18 C564.274421,290.638294 560.442877,288.285298 556.5,286.13 C556.374198,285.96103 556.237225,285.800671 556.09,285.65 C555.746186,285.312077 555.342701,285.040827 554.9,284.85 C553.781839,283.196823 552.81461,281.44644 552.01,279.62 C549.62,273.82 548.77,267.53 547.94,261.45 C547.53,258.39 547.06,254.93 546.37,251.63 C545.872251,249.281097 545.20381,246.971635 544.37,244.72 C543.582839,242.502184 542.531969,240.387015 541.24,238.42 C538.919555,235.153222 536.265242,232.136957 533.32,229.42 L532.25,228.36 C530.399872,226.577958 528.656825,224.687987 527.03,222.7 C525.753165,221.036584 524.672676,219.231295 523.81,217.32 C523.263626,215.96758 522.867905,214.559085 522.63,213.12 C522.32921,210.460571 522.349355,207.774618 522.69,205.12 C522.958567,203.017546 523.482431,200.955672 524.25,198.98 C524.629115,198.131826 525.087836,197.32153 525.62,196.56 C525.942606,196.174152 526.297198,195.816215 526.68,195.49 C526.933439,195.308922 527.200959,195.14841 527.48,195.01 C527.754783,194.918025 528.035409,194.844528 528.32,194.79 L528.76,194.79 L529.29,194.79 C529.799234,194.885528 530.29817,195.029516 530.78,195.22 C531.725499,195.658729 532.620716,196.198541 533.45,196.83 C533.842676,197.203502 534.358413,197.420467 534.9,197.44 C535.43381,197.439248 535.946486,197.23131 536.33,196.86 C536.467091,196.721972 536.581804,196.563398 536.67,196.39 C540.281204,199.524166 543.59834,202.981886 546.58,206.72 C549.618534,210.681689 552.148271,215.008781 554.11,219.6 C554.28436,219.901124 554.5365,220.14981 554.84,220.32 C555.309436,220.600289 555.873155,220.676174 556.4,220.53 C557.26601,220.272619 557.865064,219.483325 557.88,218.58 C557.995881,212.87262 558.406428,207.175033 559.11,201.51 C559.759197,195.636374 561.178028,189.873631 563.33,184.37 C564.19445,182.314764 565.29161,180.365377 566.6,178.56 L567,178.09 C567.05006,181.319926 567.466048,184.533772 568.24,187.67 C568.826227,189.982354 569.650635,192.227693 570.7,194.37 C571.786688,196.596502 573.165514,198.668103 574.8,200.53 C575.174489,200.922157 575.698012,201.136656 576.24,201.12 C576.419099,201.122033 576.59757,201.098461 576.77,201.05 C577.447401,200.847343 577.977343,200.317401 578.18,199.64 C578.45,198.8 578.77,197.93 579.12,197.05 C580.089887,194.769581 581.325067,192.611372 582.8,190.62 C584.171441,188.888517 585.738517,187.321441 587.47,185.95 C589.52728,184.428284 591.751709,183.146638 594.1,182.13 C598.750988,180.305905 603.61779,179.089204 608.58,178.51 C614.11,177.79 619.77,177.51 625.25,177.2 C632.001681,176.970918 638.735404,176.366653 645.42,175.39 C651.092859,174.601394 656.57523,172.78862 661.6,170.04 C664.027991,168.641881 666.246532,166.90812 668.19,164.89 C669.7187,163.286917 671.060613,161.515593 672.19,159.61 C672.04,161.4 671.97,162.94 671.96,164.47 C671.89837,167.715419 672.2342,170.95618 672.96,174.12 C673.349626,175.689903 673.885294,177.219906 674.56,178.69 C675.300246,180.265131 676.226873,181.74572 677.32,183.1 C677.683735,183.495637 678.202995,183.711386 678.74,183.69 C679.669738,183.721847 680.498672,183.108436 680.74,182.21 C680.942076,181.084554 681.246678,179.979951 681.65,178.91 C681.967257,178.207458 682.352421,177.537607 682.8,176.91 C683.223175,176.398728 683.691753,175.926803 684.2,175.5 C685.257997,174.768165 686.391081,174.151338 687.58,173.66 L688.5,173.28 L689.06,173.05 C690.29,172.55 691.49,172.05 692.64,171.51 C694.592268,170.530556 696.399444,169.285388 698.01,167.81 C699.764603,166.225234 701.349782,164.462435 702.74,162.55 C704.057718,160.730712 705.145939,158.755793 705.98,156.67 C707.664457,152.338279 708.476669,147.716486 708.37,143.07 C708.35162,138.267301 707.709584,133.487326 706.46,128.85 C704.027618,120.193382 699.749595,112.166118 693.92,105.32 C688.104441,98.3608114 681.044167,92.545071 673.1,88.17 C669.135516,85.9666754 664.965825,84.1547856 660.65,82.76 C656.38462,81.3939718 651.986895,80.4822484 647.53,80.04 C645.798787,79.8660902 644.059926,79.779314 642.32,79.78 C639.643088,79.7870068 636.969929,79.9808109 634.32,80.36 C632.161843,80.6691359 630.026997,81.1235006 627.93,81.72 C627.26,81.91 626.59,82.11 625.93,82.34 C621.007103,79.3321017 615.680039,77.0423398 610.11,75.54 C605.653764,74.3753864 601.065896,73.79 596.46,73.8 L596.41,73.79 Z"/>
    <path fill="url(#enterease-e)" d="M676.37,333.94 C676.041066,333.936384 675.71694,334.019139 675.43,334.18 C675.086311,334.185466 674.746855,334.256752 674.43,334.39 C673.448647,334.807636 672.524532,335.348663 671.68,336 C670.91239,336.555476 670.187064,337.167156 669.51,337.83 C667.99139,339.320893 666.58114,340.918286 665.29,342.61 C664.51,343.61 663.77,344.61 663.02,345.67 L662.59,346.26 L661.71,347.45 C660.55137,349.02866 659.3131,350.547293 658,352 C656.468191,353.653743 654.74624,355.12059 652.87,356.37 C646.940607,360.114241 640.555087,363.081827 633.87,365.2 C627.912623,366.961333 621.758007,367.969185 615.55,368.2 C614.77,368.2 613.98,368.2 613.2,368.2 C604.946309,368.108395 596.731217,367.058018 588.72,365.07 L588.52,365.07 L588.4,365.07 C583.02,363.76 577.19,362.07 570.07,359.75 C569.776292,359.533824 569.468992,359.336751 569.15,359.16 C568.195964,358.585521 567.103647,358.281331 565.99,358.28 C565.624975,358.283749 565.260696,358.313827 564.9,358.37 C563.587863,358.671027 562.392233,359.348783 561.46,360.32 C560.245403,361.54241 559.247813,362.962706 558.51,364.52 C556.87686,367.893673 555.603184,371.429802 554.71,375.07 L553.64,379.07 C553.24,380.59 552.84,382.07 552.43,383.61 C551.43,387.14 550.43,390.7 549.37,394.35 C547.56,400.53 545.63,406.76 543.47,413.67 L543.11,414.84 C541.96,418.49 540.82,422.14 539.66,425.78 L538.91,428.16 C538.163333,430.54 537.416667,432.92 536.67,435.3 C534.05,443.66 532.13,450 530.43,455.85 L529.95,457.52 L529.95,457.64 C529.23,460.15 528.57,462.43 527.87,464.64 C526.81,468.1 525.72,471.39 524.87,474.03 C523.06,479.48 521.1,485.08 519.38,490.03 C517.66,494.98 516.11,499.39 514.6,503.89 C510.69,515.46 507.91,524.89 505.84,533.68 C504.66,538.68 503.73,543.56 503.08,548.27 C502.465764,553.453229 502.428871,558.68863 502.97,563.88 C503.37,568.52 504.1,573.3 504.74,577.52 L505.13,580.1 C505.988658,585.39879 506.562814,590.739777 506.85,596.1 C507.2,608.88 505.85,621.73 504.56,634.16 L504.09,638.72 C503.37,645.86 502.79,653.04 502.32,659.12 C501.79,665.89 501.32,672.59 500.96,679.04 C500.1,693.88 499.76,707.21 499.96,719.81 C500.070685,733.154994 500.972266,746.481697 502.66,759.72 C503.28,764.41 504.07,769.19 505.06,774.33 C505.29,775.51 505.51,776.69 505.73,777.87 L506.16,780.16 C506.38,781.31 506.65,782.74 507,784.16 C507.235414,785.125462 507.570548,786.063837 508,786.96 C508.202242,787.358237 508.436337,787.739478 508.7,788.1 C508.904566,788.369373 509.139444,788.614317 509.4,788.83 L509.58,789 C509.88395,789.256094 510.220145,789.471259 510.58,789.64 C510.876105,789.795741 511.187835,789.919763 511.51,790.01 C512.387591,790.268556 513.288672,790.439393 514.2,790.52 C514.97,790.6 515.75,790.66 516.52,790.72 L517.3,790.78 L519.41,790.97 L519.81,790.97 L520.27,790.97 L522.56,791.19 C524.07,791.3 525.66,791.36 527.56,791.36 L529.84,791.36 C531.95,791.36 534.23,791.21 537.25,791.01 C540.69,790.76 544.13,790.43 547.93,790.01 L549,789.9 L552.32,789.58 C557.48,789.08 562.86,788.75 568.78,788.58 L568.57,788.52 C572.44,788.52 575.57,788.45 578.26,788.45 C588.37,788.45 599.33,788.89 611.75,789.81 C619.86,790.41 628.07,791.17 633.53,791.7 L637.72,792.1 L638.19,792.1 C643.19,792.59 648.84,793.1 654.29,793.53 C667,794.45 680.4,794.9 695.29,794.9 L695.5,794.9 C708.56,794.9 722.01,794.5 736.61,793.71 C739.843333,793.53 743.073333,793.333333 746.3,793.12 L747.7,793.03 L748.09,793.03 L748.22,793.03 C750.81,792.86 753.49,792.68 756.12,792.39 C759.12,792.06 762.12,791.56 764.83,791.06 C766.22,790.8 767.65,790.52 769.06,790.21 L770.13,789.98 L770.38,789.92 L770.96,789.79 C771.86,789.59 772.76,789.39 773.66,789.21 C775.384173,788.895706 777.12863,788.70522 778.88,788.64 C779.369437,788.622177 779.857164,788.572068 780.34,788.49 C781.02246,788.348571 781.668945,788.069562 782.24,787.67 C783.247127,786.865592 784.089245,785.874066 784.72,784.75 C785.26,783.91 785.72,783.19 786.06,782.46 C786.397536,781.753037 786.659004,781.012212 786.84,780.25 C787.289782,778.507304 787.623844,776.736776 787.84,774.95 C788.15,772.62 788.32,770.27 788.46,768.08 C788.69,764.42 788.79,760.73 788.89,757.15 L788.89,755.26 C788.94,753.56 789,752.06 789.09,750.67 C789.27,747.67 789.28,744.46 789.09,740.47 C788.762236,733.67158 787.977128,726.902941 786.74,720.21 C785.62,713.77 784.18,707.02 783.01,701.6 L783.01,701.4 C781.52,694.4 780.01,687.14 778.83,679.92 C778.55,678.11 778.29,676.3 778.03,674.49 C777.83,673.043333 777.62,671.593333 777.4,670.14 C776.94,667.14 776.4,663.68 775.66,659.41 C774.44,652.3 773.12,645.31 771.88,638.8 L769.78,627.98 C765.38,605.42 760.78,582.1 758.95,558.77 L759.02,558.77 C759.26256,558.771458 759.50216,558.716692 759.72,558.61 C761.045595,557.989936 762.408184,557.452248 763.8,557 C766.312409,556.283862 768.900023,555.864339 771.51,555.75 L772.27,555.75 C775.477428,555.765495 778.673383,556.134388 781.8,556.85 C789.66,558.76 796.86,562.29 802.26,565.17 C805.26,566.75 807.95,568.32 811.79,570.52 C812.14617,570.749488 812.556745,570.880596 812.98,570.9 L813.3,570.9 C813.827564,570.80265 814.298965,570.50981 814.62,570.08 C817.701233,566.0494 819.951415,561.447064 821.24,556.54 C822.571715,551.436651 823.293423,546.193359 823.39,540.92 C823.503605,534.226325 823.279989,527.531177 822.72,520.86 C822.49,517.42 822.2,513.15 822.06,509.07 C822.06,507.26 821.98,505.43 821.96,503.61 L821.96,501.88 L821.96,500.76 L821.96,499.63 C821.89,496.03 821.82,492.43 821.71,488.82 C821.48,480.71 821.12,473.65 820.62,467.24 C819.670485,452.977874 817.261221,438.850677 813.43,425.08 C812.43,421.59 811.29,418.08 810.04,414.65 C808.94,411.65 807.72,408.65 806.55,405.89 C804.23,400.35 801.97,395.41 799.63,390.78 C797.00181,385.535023 794.06672,380.449535 790.84,375.55 C787.7232,370.776231 784.135225,366.327276 780.13,362.27 C778.151582,360.282637 776.043629,358.428574 773.82,356.72 C771.615088,355.043706 769.273559,353.555163 766.82,352.27 C761.18,349.27 755.01,347.71 749.73,346.56 C743.96,345.3 737.84,344.46 732.44,343.71 L732.33,343.71 L731.09,343.54 C728.35,343.17 725.18,342.73 722.09,342.22 C721.02,342.05 719.96,341.86 718.9,341.66 L718.36,341.56 C716.59,341.24 715,340.95 713.36,340.71 C709.93,340.21 706.44,339.85 703.36,339.54 C697.782287,339.089868 692.238151,338.291646 686.76,337.15 C685.19,336.77 683.67,336.34 682.12,335.84 C681.33,335.58 680.55,335.3 679.76,335.01 L678.95,334.69 C678.39,334.47 677.75,334.22 677.13,334.04 C676.906344,333.970955 676.674039,333.93 676.44,333.93 L676.37,333.94 Z"/>
    <path fill="#030525" d="M717.83,391.15 C712.912408,391.162133 708.025706,391.927682 703.34,393.42 C697.50148,395.314768 691.985077,398.086457 686.98,401.64 C681.61207,405.443848 676.682008,409.830597 672.28,414.72 C667.552196,419.925069 663.26103,425.510608 659.45,431.42 C655.465014,437.583106 651.880935,443.996369 648.72,450.62 C645.559795,457.221571 642.781875,463.999429 640.4,470.92 C638.092047,477.578995 636.175443,484.367247 634.66,491.25 C633.263692,497.50908 632.304709,503.857753 631.79,510.25 C631.56,513.18 631.46,516.09 631.49,518.88 C631.49,520.15 631.49,521.81 631.71,523.5 C631.865634,525.331693 632.200571,527.143703 632.71,528.91 C633.188101,530.525207 633.831504,532.086801 634.63,533.57 C635.390156,534.99023 636.291367,536.330321 637.32,537.57 C639.410615,540.013232 641.898961,542.085727 644.68,543.7 C647.620265,545.406183 650.738944,546.784438 653.98,547.81 C657.412646,548.920594 660.913215,549.809098 664.46,550.47 C669.18,551.39 674.01,552.05 678.69,552.69 C681.04,553.01 683.39,553.33 685.69,553.69 L687.36,553.94 C688.98,554.19 690.6,554.43 692.22,554.64 C693.847536,554.861175 695.487547,554.97808 697.13,554.99 L697.94,554.99 C699.666026,554.950653 701.377201,554.660966 703.02,554.13 C704.7773,553.534632 706.425638,552.656419 707.9,551.53 C709.74428,550.141021 711.422052,548.543782 712.9,546.77 C714.509649,544.871687 715.989663,542.867154 717.33,540.77 C718.58,538.85 719.85,536.68 721.33,533.96 C722.55,531.71 723.71,529.45 724.99,526.96 C726.12,524.72 727.29,522.42 728.49,520.17 C729.936667,517.503333 731.36,514.813333 732.76,512.1 C735.76,506.28 738.66,500.6 741.07,495.8 L743.48,491.01 C743.657,491.016586 743.821401,490.918729 743.9,490.76 C745.51,487.37 747.2,483.94 748.84,480.62 C749.68,478.91 750.53,477.2 751.36,475.49 C754.36,469.26 756.62,464.49 758.54,459.9 C760.795297,454.647655 762.702746,449.252681 764.25,443.75 C764.98582,441.11572 765.586602,438.445575 766.05,435.75 C766.415752,433.584659 766.622969,431.39551 766.67,429.2 C766.69989,427.247759 766.555989,425.29673 766.24,423.37 C765.947489,421.576036 765.471664,419.816822 764.82,418.12 C764.205096,416.518548 763.434748,414.981203 762.52,413.53 C761.60541,412.084258 760.564684,410.72228 759.41,409.46 C756.920189,406.769903 754.089564,404.416652 750.99,402.46 C747.502159,400.241514 743.85945,398.276457 740.09,396.58 C738.3,395.75 736.68,395.07 735.09,394.5 C733.5,393.93 731.99,393.42 730.31,392.97 C727.267314,392.148714 724.1532,391.619649 721.01,391.39 C719.94,391.31 718.83,391.27 717.73,391.27 L717.83,391.15 Z"/>
    <path fill="#545454" d="M555.52,340.27 C554.725691,340.294542 553.936987,340.412008 553.17,340.62 C552.386269,340.831861 551.633323,341.144468 550.93,341.55 C550.034776,342.042407 549.213374,342.658459 548.49,343.38 C547.624275,344.211295 546.880264,345.160666 546.28,346.2 C545.709286,345.799328 545.095453,345.463899 544.45,345.2 C543.315059,344.676146 542.12401,344.283603 540.9,344.03 C539.912248,343.825281 538.908351,343.70816 537.9,343.68 L537.28,343.68 C536.27121,343.684759 535.265704,343.795365 534.28,344.01 C533.162743,344.246635 532.06851,344.581262 531.01,345.01 C527.591333,346.480857 524.673226,348.912613 522.61,352.01 C521.389851,353.778717 520.411212,355.702365 519.7,357.73 C519.576865,358.080629 519.473371,358.43785 519.39,358.8 L519.39,358.99 C519.39,358.99 519.39,359.1 519.39,359.1 L519.39,359.28 C519.21,360.03 519.04,360.79 518.88,361.55 C518.55,363.17 518.32,364.49 518.14,365.71 C518.080054,366.130816 518.046655,366.554988 518.04,366.98 C518.035797,367.244377 518.136471,367.499658 518.32,367.69 C518.454744,367.803064 518.624137,367.866586 518.8,367.87 C518.87321,367.872391 518.945723,367.855126 519.01,367.82 L519.13,367.82 C519.051642,368.268993 519.014819,368.72425 519.02,369.18 C519.02,371.39 519.07,373.7 519.14,375.56 L519.14,375.9 L519.2,377.4 C519.328971,379.731551 519.328971,382.068449 519.2,384.4 C517.49,402.81 514.05,421.27 510.73,439.13 L510.73,439.34 L510.65,439.77 L510.65,439.94 C509.02,448.71 507.17,458.65 505.65,468.3 C504.73,474.03 503.85,479.89 503.01,485.56 L502.93,486.05 L502.8,486.96 L502.8,487.17 L502.8,487.35 L502.5,489.35 C501.38,496.86 500.39,503.81 499.5,510.58 C497.43,526.16 496.03,540.04 495.21,553.02 C494.267272,567.236978 494.24389,581.500007 495.14,595.72 C495.24,597.2 495.36,598.72 495.48,600.15 L495.48,600.78 L495.54,601.53 C495.66,603.04 495.78,604.53 495.88,606.06 C496.11,609.57 496.29,613.13 496.42,617.28 C496.64,623.69 496.71,630.46 496.64,638.6 C496.57,647.25 496.33,656.17 496.14,663.35 L496.14,664.21 L496.14,664.65 C496.01,669.73 495.86,675.49 495.76,681 C495.63,688.79 495.61,695.67 495.7,702 L495.7,708.87 L495.7,709.43 L495.7,712.35 C495.7,717.78 495.7,724.96 496.18,732.28 C496.524602,739.170015 497.610877,746.002814 499.42,752.66 C500.226926,755.488271 501.322695,758.226018 502.69,760.83 C503.902907,763.153662 505.498563,765.256413 507.41,767.05 C508.506874,768.034118 509.715081,768.886576 511.01,769.59 C511.997145,770.118096 513.040308,770.534019 514.12,770.83 C515.110802,771.126279 516.136254,771.291023 517.17,771.32 L518.06,771.32 C518.74,771.32 519.47,771.32 520.28,771.2 C521.09,771.08 521.72,771.01 522.42,770.9 L522.58,770.9 L522.82,770.9 L523.4,770.8 C524.53,770.61 525.55,770.47 526.6,770.36 C527.264563,770.294059 527.9322,770.264016 528.6,770.27 L529.85,770.27 C530.23945,770.310435 530.62661,770.370512 531.01,770.45 C531.282009,770.497786 531.549591,770.568026 531.81,770.66 C532.45,770.93 533.05,771.24 533.76,771.66 C534.400079,771.994153 535.069573,772.268645 535.76,772.48 C536.085368,772.577983 536.420888,772.638377 536.76,772.66 C537.019793,772.671015 537.280207,772.671015 537.54,772.66 L538.02,772.66 C538.411996,772.623562 538.800108,772.553301 539.18,772.45 L539.42,772.4 C540.091339,772.232597 540.741998,771.991116 541.36,771.68 L541.54,771.59 C545.276702,769.793058 548.545693,767.153904 551.09,763.88 C552.30615,762.352508 553.409085,760.738212 554.39,759.05 C555.519632,757.117485 556.521768,755.113215 557.39,753.05 C559.17515,748.840084 560.616525,744.492548 561.7,740.05 C563.881971,730.993779 565.247439,721.760135 565.78,712.46 C566.05,708.69 566.21,704.83 566.29,700.64 C566.4,693.87 566.37,687.06 566.29,680.09 C566.19,664.86 565.84,649.09 565.56,636.51 L565.56,636.24 L565.56,635.24 L565.56,633.73 L565.56,633.44 C565.32,622.44 565.13,613.21 565,603.92 C564.79,589.83 564.78,577.21 565,565.36 C565.25,549.98 565.78,538.17 566.73,527.06 C567.73,515.72 569.15,504.24 570.52,493.14 L570.85,490.51 L571.13,488.17 L571.46,485.53 C572.51,476.87 573.24,470.26 573.83,464.12 C574.11,461.03 574.38,457.77 574.66,454.12 L574.88,451.12 C575.05,448.81 575.22,446.49 575.41,444.18 L575.25,444.7 C575.7,440.61 576.1,436.54 576.54,432.21 L576.92,428.42 L576.92,428.25 C577.65,420.99 578.4,413.48 578.92,405.84 C579.7,395.21 580.36,381.21 578.56,367.16 C578.346369,365.130397 577.958267,363.122974 577.4,361.16 C576.794974,359.333918 576.025138,357.56664 575.1,355.88 C573.182561,352.242191 570.709512,348.925673 567.77,346.05 C566.416786,344.745508 564.928378,343.588975 563.33,342.6 C561.771499,341.612429 560.052254,340.905101 558.25,340.51 C557.452186,340.359728 556.641834,340.28606 555.83,340.29 L555.52,340.27 Z" opacity=".88"/>
    <path fill="#F9E5C8" d="M698.62,439.57 C696.452294,439.788223 694.327222,440.316966 692.31,441.14 C690.440629,441.910811 688.687246,442.937264 687.1,444.19 C683.91964,446.793299 681.245159,449.959288 679.21,453.53 C677.046619,457.280387 675.138947,461.172573 673.5,465.18 L673.35,465.53 C672.54,467.42 671.7,469.38 670.97,471.34 C670.17,473.5 669.43,475.8 668.76,478.17 C667.406148,483.13329 666.403666,488.1858 665.76,493.29 C665.162261,497.846912 664.828371,502.43456 664.76,507.03 C665.459447,514.320159 666.842188,521.528492 668.89,528.56 C671.128612,535.671567 674.249595,542.47457 678.18,548.81 C681.31,553.67 684.86,558.32 687.38,563.53 C689.866127,568.783421 691.825696,574.270214 693.23,579.91 C696.07,590.84 697.54,602.09 700.81,612.91 C701.71,615.73 702.81,618.48 703.67,621.3 C704.53,624.12 705.45,627.3 706.22,630.3 C707.69,635.99 708.99,641.71 710.68,647.3 C712.503654,652.945818 714.69158,658.467408 717.23,663.83 C718.49,666.56 719.77,669.27 720.99,672.02 C722.21,674.77 723.3,677.39 724.43,680.09 C728.82,690.56 733.5,700.94 739.55,710.57 C742.713895,715.427427 746.194787,720.070842 749.97,724.47 C753.569173,728.73229 757.419341,732.776135 761.5,736.58 C762.96,737.92 764.44,739.22 765.96,740.49 C766.9,741.27 767.87,742.03 768.82,742.82 C769.38,743.29 769.9,743.82 770.41,744.31 C770.989832,744.611553 771.464176,745.082409 771.77,745.66 C774.55,748 777.42,750.24 780.41,752.3 C783.75,754 787.18,755.56 790.41,757.46 L791.17,757.46 C791.63,757.46 792.09,757.46 792.55,757.39 C793.820136,757.279068 795.059918,756.940329 796.21,756.39 C797.326196,755.84691 798.340921,755.116308 799.21,754.23 C800.132213,753.273601 800.916443,752.193181 801.54,751.02 C803.007211,748.204974 803.987708,745.162055 804.44,742.02 C804.74,740.3 804.96,738.42 805.12,736.28 C805.26,734.36 805.33,732.28 805.33,729.9 C805.33,725.7 805.09,721.25 804.57,715.9 C804.12,711.29 803.46,706.28 802.57,700.59 C801.78,695.72 800.83,690.65 799.66,685.07 C797.77,676.07 795.49,666.65 792.88,657.23 C791.81,653.41 790.8,650 789.81,646.8 C789.11,644.57 788.34,642.2 787.49,639.92 C787.08,638.83 786.63,637.74 786.19,636.68 L786.11,636.5 L786.03,636.3 L785.98,636.18 L785.84,635.86 C784.84,633.36 783.68,630.8 782.2,627.55 C779.82,622.34 777.25,617.05 774.98,612.39 L774.87,612.16 L774.31,611.02 C772.8,607.92 771.13,604.48 769.45,600.9 C768.77,599.77 768.09,598.64 767.45,597.5 C765.2,593.65 763.03,589.76 761.07,585.76 C760.07,583.69 759.07,581.59 758.17,579.45 C757.27,577.31 756.54,575.39 755.75,573.35 C754.04,568.97 752.35,564.57 750.94,560.09 C749.442544,555.575845 748.331872,550.942469 747.62,546.24 C747.006973,541.898625 746.943138,537.497328 747.43,533.14 C747.43,532.68 747.55,532.22 747.61,531.76 C747.521591,529.73045 747.598511,527.697071 747.84,525.68 C748.068976,523.809406 748.402835,521.95315 748.84,520.12 L748.84,519.75 C748.84,519.14 748.93,518.51 748.98,517.9 C749.27,514.84 749.77,511.7 750.31,508.49 L750.42,507.83 C750.89,505.01 751.42,502.1 751.69,499.18 C751.84,497.76 751.89,496.38 751.91,495.47 C751.971633,493.715643 751.928222,491.95917 751.78,490.21 C751.706329,489.364031 751.586147,488.522758 751.42,487.69 C751.284566,486.982272 751.062914,486.293808 750.76,485.64 C750.547041,485.120575 750.20238,484.665622 749.76,484.32 C749.586141,483.98959 749.352133,483.694537 749.07,483.45 C748.857963,483.285548 748.598301,483.194316 748.33,483.19 L748.23,483.19 C747.899681,483.234178 747.588112,483.369192 747.33,483.58 C747.033606,483.81484 746.762176,484.079569 746.52,484.37 C746.27,484.66 746.03,484.97 745.8,485.27 L745.65,485.47 L745.51,485.66 C745.023025,486.357556 744.466872,487.004168 743.85,487.59 C743.653825,487.751762 743.438958,487.889411 743.21,488 C742.668987,488.257038 742.097859,488.445175 741.51,488.56 C741.282167,488.599912 741.051302,488.619987 740.82,488.62 L740.53,488.62 C740.299341,488.590219 740.071782,488.540022 739.85,488.47 C739.647756,488.384281 739.453639,488.280529 739.27,488.16 C739.035478,487.987639 738.820828,487.789759 738.63,487.57 C738.325923,487.193611 738.070571,486.780344 737.87,486.34 C737.398496,485.248496 737.062655,484.103278 736.87,482.93 L736.87,482.83 C736.73,481.99 736.61,481.08 736.51,480.07 L736.41,478.96 C736.35,478.35 736.3,477.73 736.23,477.12 C735.460374,470.654743 733.497107,464.388563 730.44,458.64 C728.429444,454.81213 725.831236,451.323109 722.74,448.3 C719.700723,445.315743 716.08795,442.978667 712.12,441.43 C710.071749,440.648393 707.941474,440.101566 705.77,439.8 C704.40551,439.603608 703.028547,439.506686 701.65,439.509918 C700.68469,439.509918 699.719998,439.558866 698.76,439.66 L698.62,439.57 Z"/>
    <path fill="#F9E5C8" d="M678 548.55C677.94 548.45 677.88 548.35 677.81 548.25L678 548.55zM761.45 736.57L760.88 736.05 761.45 736.57zM770.23 744.2L770.16 744.13 770.23 744.2zM645.24 415.3C642.77023 415.397957 640.308873 415.648434 637.87 416.05 636.79 416.23 635.7 416.46 634.64 416.69L633.99 416.83C631.83 417.29 629.72 417.76 627.7 418.24 624.6 418.98 621.84 419.75 619.24 420.57 616.411942 421.464689 613.643115 422.536816 610.95 423.78 608.358271 424.976931 605.864015 426.374516 603.49 427.96 602.4 428.69 601.26 429.53 600.01 430.53 598.95 431.38 597.86 432.35 596.57 433.58 595.57 434.58 594.51 435.67 593.36 436.99 592.210921 438.327752 591.139176 439.730035 590.15 441.19 589.44 442.19 588.73 443.34 587.84 444.85 587.07 446.14 586.3 447.55 585.33 449.43 584.36 451.31 583.56 452.93 582.73 454.66 581.63 458.66 580.523333 462.66 579.41 466.66L579.62 465.91C579.27 467.22 578.99 468.54 578.62 469.84 578.288835 471.343556 577.809839 472.810691 577.19 474.22 577.04 474.51 576.9 474.81 576.72 475.1 576.455043 476.962248 575.771228 478.740164 574.72 480.3 574.02 481.1 573.33 481.91 572.63 482.72 568.11 487.84 563.42 492.8 558.91 497.93 554.778344 502.757949 551.033427 507.903866 547.71 513.32 544.5 518.61 541.65 524.1 538.9 529.64 536.63 534.31 534.45 539.02 532.02 543.64 529.726667 547.946667 527.253333 552.15 524.6 556.25 519.47 564.25 513.87 571.85 508.34 579.54 497.208987 595.054172 487.347032 611.440601 478.85 628.54 474.093276 638.094325 470.43975 648.159133 467.96 658.54 467.137468 663.991112 466.659852 669.48871 466.53 675 466.28 680.65 466.12 686.31 466.39 692 466.775605 695.854799 467.363078 699.686727 468.15 703.48 468.67 706.05 469.24 708.59 469.99 711.08 470.17 711.526667 470.36 711.966667 470.56 712.4 471.971278 714.44415 473.550048 716.36744 475.28 718.15 477.594881 720.428727 480.157493 722.44125 482.92 724.15 485.37597 725.55685 487.986723 726.674305 490.7 727.48L490.76 727.48C491.59 727.09 492.48 726.65 493.45 726.15 496.981136 724.284948 500.388218 722.193935 503.65 719.89 506.76 717.74 510.02 715.28 513.91 712.12 517.48 709.22 520.91 706.22 523.56 703.92 525.013333 702.653333 526.46 701.38 527.9 700.1L532.24 696.27 533.55 695.13C534.55 694.28 535.49 693.44 536.44 692.58 537.83 691.32 539.31 689.91 541.09 688.14 544 685.25 547.01 681.99 550.31 678.14 553.1 674.91 555.97 671.36 559.1 667.29 564.16 660.7 569.31 653.37 574.84 644.88 577.6 640.66 579.84 637.14 581.79 633.78 584.06 629.93 586.29 625.86 588.41 621.68 592.488955 613.610825 596.043005 605.286866 599.05 596.76 602.024094 588.313711 604.495091 579.698613 606.45 570.96 607.45 566.69 608.31 562.2 609.16 557.25 609.58 554.8 610 552.36 610.44 549.92 610.92 547.253333 611.42 544.586667 611.94 541.92 613.04 536.19 614.22 530.37 615.36 524.74 618.28 510.33 621.3 495.42 623.36 480.59 623.9 476.59 624.36 472.5 624.75 468.42 624.84 467.42 624.92 466.42 625 465.42 625 464.86 625.09 464.31 625.13 463.76L625.22 462.5C625.361739 460.838375 625.676784 459.196117 626.16 457.6 626.29 457.18 626.43 456.75 626.58 456.32 626.73 455.89 627.02 455.22 627.26 454.68 627.742932 453.622012 628.294093 452.596519 628.91 451.61 629.19 451.19 629.52 450.7 629.91 450.22 630.3 449.74 630.84 449 631.27 448.48 632.103305 447.484743 632.994869 446.539753 633.94 445.65 634.73 444.9 635.5 444.23 636.29 443.59 637.29 442.75 638.37 441.99 639.18 441.41 641.025331 440.136727 642.934484 438.958526 644.9 437.88 646.57 436.97 647.96 436.26 649.26 435.65L651.26 434.74 652.75 434.07C654.23 433.4 655.33 432.84 656.34 432.28 656.96 431.92 657.58 431.56 658.18 431.16 658.881596 430.719389 659.550043 430.228079 660.18 429.69 660.625946 429.296949 661.049921 428.879652 661.45 428.44 661.833114 428.018212 662.16848 427.555407 662.45 427.06 662.609055 426.798644 662.752635 426.528179 662.88 426.25 662.994791 425.978905 663.094935 425.701839 663.18 425.42 663.360559 424.840787 663.448311 424.236647 663.44054 423.63L663.44054 423.31C663.44054 423.09 663.44054 422.88 663.37 422.66 663.329086 422.392679 663.268929 422.12866 663.19 421.87 663.068209 421.414594 662.893696 420.974955 662.67 420.56 662.548484 420.33628 662.414956 420.119296 662.27 419.91 662.12412 419.702256 661.963719 419.505096 661.79 419.32 661.410618 418.903332 660.988273 418.527915 660.53 418.2 660.117592 417.909543 659.68291 417.652078 659.23 417.43 658.704425 417.167506 658.163435 416.937084 657.61 416.74 656.344154 416.312903 655.042142 416.001625 653.72 415.81 652.348474 415.605388 650.966074 415.48184 649.58 415.44L647.81 415.44C646.963333 415.44 646.113333 415.46 645.26 415.5L645.24 415.3z"/>
    <path fill="#FCC3FF" d="M289.91,84.8 L289.56,84.8 C285.057975,84.7947764 280.559758,85.0619311 276.09,85.6 C271.946118,86.0825689 267.853341,86.9325815 263.86,88.14 C255.95,90.58 249.86,94.45 245.65,99.66 C244.518761,101.096554 243.514959,102.629027 242.65,104.24 C241.820989,105.819752 241.115547,107.461325 240.54,109.15 C239.443772,112.481108 238.653829,115.905308 238.18,119.38 C236.926392,128.502908 236.531328,137.723298 237,146.92 C237.440706,157.800506 238.519225,168.645797 240.23,179.4 C241.911052,190.301045 244.248637,201.090669 247.23,211.71 C249.784563,221.179445 253.226468,230.386875 257.51,239.21 C259.267306,242.788705 261.321146,246.214001 263.65,249.45 C264.722348,250.927111 265.881034,252.339572 267.12,253.68 C268.569888,255.240596 270.217112,256.605439 272.02,257.74 C275.52,259.98 279.78,261.36 285.43,262.08 C287.597173,262.33641 289.777713,262.463302 291.96,262.46 C295.074313,262.436164 298.18524,262.249242 301.28,261.9 C310.96,260.9 320.5,258.72 329.72,256.66 L331.53,256.27 L331.78,256.21 L332.11,256.13 L333.11,255.9 L336.61,255.13 C341.81,253.99 347.4,252.83 353.05,252.07 C354.92,251.8 356.8,251.61 358.81,251.49 C360.19,251.4 361.7,251.39 363.12,251.39 L369.5,251.39 C374.813446,251.295858 380.127501,251.539683 385.41,252.12 C386.28,252.25 387.14,252.39 388,252.54 L392.44,258.54 L393.64,260.16 L394.84,261.77 C398.96,267.27 402.16,271.4 405.2,275.15 C409.29,280.15 412.92,284.28 416.64,288.04 C420.101093,291.638172 423.970648,294.819732 428.17,297.52 C429.891118,298.590074 431.743061,299.433699 433.68,300.03 C434.760921,300.337015 435.859649,300.577466 436.97,300.75 L437.09,300.75 C438.449748,300.982198 439.822222,301.132469 441.2,301.2 L441.68,301.2 C442.536785,301.189305 443.391949,301.122496 444.24,301 C445.127827,300.854436 445.99003,300.58163 446.8,300.19 C448.12778,299.582659 449.192659,298.51778 449.8,297.19 C450.425959,295.747707 450.710021,294.180232 450.63,292.61 C450.549046,290.819344 450.311472,289.039214 449.92,287.29 C449.68,286.1 449.41,284.92 449.14,283.74 L449.14,283.63 L449.09,283.41 L449.09,283.31 L449.09,283.21 L449,283 L449,282.9 L449,282.71 L449,282.54 L449,282.39 C448.5,280.22 447.93,277.75 447.58,275.32 L447.51,274.82 L447.39,275.32 C447.180137,272.961326 447.180137,270.588674 447.39,268.23 C447.583173,266.96948 447.918649,265.734928 448.39,264.55 C448.819535,263.596571 449.349175,262.691489 449.97,261.85 C450.541292,261.120617 451.184532,260.450574 451.89,259.85 C452.516711,259.386892 453.186452,258.985047 453.89,258.65 C454.704054,258.356171 455.544641,258.141838 456.4,258.01 C457.063851,257.934033 457.731883,257.900631 458.4,257.91 C459.819276,257.912337 461.23645,258.019293 462.64,258.23 C463.09,258.29 463.54,258.35 463.99,258.43 L464.61,258.52 L464.74,258.52 L464.88,258.52 L465,258.52 C466.48,258.74 468.74,259.08 470.86,259.22 L472.04,259.22 C473.043577,259.217343 474.04584,259.147185 475.04,259.01 C475.695162,258.921827 476.343394,258.788171 476.98,258.61 C477.755343,258.405876 478.511513,258.134859 479.24,257.8 C480.282934,257.341551 481.263985,256.753593 482.16,256.05 C483.015947,255.394703 483.818473,254.67243 484.56,253.89 C485.961644,252.342563 487.14894,250.613753 488.09,248.75 C490.144541,244.534637 491.495714,240.011585 492.09,235.36 C492.861283,230.035371 493.228997,224.660059 493.19,219.28 C493.19,210.77 492.54,202.28 491.89,194.03 L491.89,194 L491.89,193.77 L491.78,192.34 L491.78,192.18 C491.67,190.86 491.57,189.54 491.47,188.18 C491.16,184.18 491,180.78 490.97,177.59 C490.97,175.67 490.97,173.74 490.97,171.82 C490.97,169.74 490.97,167.67 490.97,165.6 C490.939974,155.168954 490.272061,144.749506 488.97,134.4 C488.364167,129.560586 487.340342,124.782734 485.91,120.12 C484.795524,116.166743 482.916753,112.470354 480.38,109.24 C479.369069,108.009874 478.146536,106.970213 476.77,106.17 C475.375789,105.40294 473.881387,104.834125 472.33,104.48 C470.395055,103.994892 468.431039,103.634154 466.45,103.4 C464.59,103.16 462.45,102.98 459.74,102.81 C456.57,102.65 453.29,102.57 449.74,102.57 C447.87,102.57 445.99,102.57 444.12,102.57 C439.28,102.66 434.39,102.82 430.12,102.96 L429,102.96 L427.47,103.02 L426.52,103.02 C421.98,103.18 417.29,103.34 412.11,103.34 C409.62,103.34 407.77,103.34 406.29,103.2 C404.61,103.12 402.97,102.91 401.88,102.75 C394.16,101.75 386.44,100.06 379.63,98.61 L379.18,98.51 L369.53,96.43 L369.25,96.37 L368.53,96.22 L368.11,96.13 L367.67,96.03 C362.95,95.03 356.48,93.62 350.61,92.41 C338.61,89.98 328.77,88.26 319.68,87 C309.834424,85.5489775 299.901418,84.7705078 289.95,84.67 L289.91,84.8 Z" opacity=".95"/>
    <g fill="#11275A" transform="translate(252 164)">
      <path d="M9.46 31.84L6.06 31.84 9.06 22.39C10.3014631 21.6394919 11.5909085 20.9713854 12.92 20.39M20.39 15.05C19.39 15.35 18.39 15.65 17.44 15.94L15.85 10.87 13.85 17.11C12.51 17.59 11.29 18.05 10.19 18.5L15.81.59 20.39 15.05zM25.66 31.84L22.43 31.84 18.19 18.34C19.19 17.98 20.19 17.67 21.13 17.4L25.66 31.84zM6.55 30.23L6.3 31.02C1.82 29.11-4.7 24.67 10.23 18.5L9 22.39C5.37 24.65 3.41 27.36 6.55 30.23L6.55 30.23zM25.91 13.55L25.44 16.21C25.44 16.21 23.65 16.64 21.13 17.4L20.39 15.05C22.09 14.5566667 23.93 14.0566667 25.91 13.55z"/>
      <polygon points="46.76 31.84 31.86 31.84 31.86 2.16 46.45 2.16 46.45 6.34 35 6.34 35 14.51 44.92 14.51 44.92 18.68 35 18.68 35 27.68 46.79 27.68"/>
      <path d="M63.87 22.75L58.34 22.75 58.34 31.84 55.23 31.84 55.23 2.16 64.33 2.16C68.1 2.16 71.33 5.42 71.33 12.52 71.33 17.26 69.55 20.59 67.1 22.01L72.6 31.82 68.8 31.82 63.87 22.75zM58.34 6.34L58.34 18.62 63.75 18.62C66.15 18.62 68.1 16.32 68.1 12.62 68.1 8.46 66.1 6.39 63.75 6.39L58.34 6.34zM89.53 1.73C95.64 1.73 100.17 8.2 100.17 17.16 100.17 26.12 95.64 32.28 89.53 32.28 83.42 32.28 79 26.05 79 17.16 79 8.27 83.53 1.73 89.53 1.73zM89.53 27.93C93.96 27.93 96.91 23.58 96.91 17.11 96.91 10.64 93.96 6.11 89.53 6.11 85.1 6.11 82.29 10.69 82.29 17.11 82.29 23.53 85.23 27.93 89.53 27.93z"/>
      <polygon points="119.23 22 111.77 9.78 111.77 31.78 108.66 31.78 108.66 2.16 111.46 2.16 119.57 16.28 127.65 2.16 130.43 2.16 130.43 31.84 127.32 31.84 127.32 9.77 119.91 22"/>
      <path d="M152.87,25.66 L142.74,25.66 L141.11,31.84 L137.8,31.84 L146.08,2.16 L149.48,2.16 L157.78,31.84 L154.47,31.84 L152.87,25.66 Z M143.6,21.83 L151.94,21.83 L147.8,7.3 L143.6,21.83 Z"/>
      <polygon points="167.43 6.47 160.79 6.47 160.79 2.16 177.13 2.16 177.13 6.47 170.52 6.47 170.52 31.84 167.43 31.84"/>
      <polygon points="199.61 31.84 184.72 31.84 184.72 2.16 199.3 2.16 199.3 6.34 187.82 6.34 187.82 14.51 197.75 14.51 197.75 18.68 187.82 18.68 187.82 27.68 199.61 27.68"/>
      <path d="M220.47,3.34 L220.2,7.69 C218.617669,6.5185597 216.698745,5.89061184 214.73,5.9 C212.1,5.9 210.38,7.23 210.38,10.12 C210.38,13.22 212.02,13.68 213.62,14.38 L216.56,15.67 C219.56,16.96 221.43,18.95 221.43,23.34 C221.43,28.45 218.49,32.28 214.2,32.28 C211.48,32.28 208.37,31.4 206.92,30.22 L207.19,26.01 C209.195493,27.2425783 211.487312,27.9318471 213.84,28.01 C215.010928,28.0886272 216.157314,27.6490765 216.975519,26.8077698 C217.793723,25.966463 218.201192,24.808286 218.09,23.64 C218.09,21.26 217.23,20.3 215.28,19.49 L212.05,18.15 C208.892192,17.057192 206.848313,13.9954616 207.05,10.66 C207.05,5.24 209.73,1.65972534 214.36,1.65972534 C216.512702,1.64522646 218.627471,2.2267014 220.47,3.34 L220.47,3.34 Z"/>
    </g>
  </g>
</svg>
