<svg xmlns="http://www.w3.org/2000/svg" xmlns:xlink="http://www.w3.org/1999/xlink" width="2338" height="1984" viewBox="0 0 2338 1984">
  <defs>
    <linearGradient id="open4business-a" x1="50%" x2="50%" y1="0%" y2="100%">
      <stop offset="0%" stop-color="#BEAB94"/>
      <stop offset="100%" stop-color="#89725B"/>
    </linearGradient>
    <linearGradient id="open4business-b" x1="50%" x2="50%" y1="0%" y2="100%">
      <stop offset="0%" stop-color="#747474"/>
      <stop offset="100%" stop-color="#404040"/>
    </linearGradient>
    <linearGradient id="open4business-c" x1="50%" x2="50%" y1="0%" y2="100%">
      <stop offset="0%" stop-color="#FDF4E6"/>
      <stop offset="100%" stop-color="#F9E5C8"/>
    </linearGradient>
    <linearGradient id="open4business-d" x1="50%" x2="50%" y1="0%" y2="88.279%">
      <stop offset="0%" stop-color="#F0F7FB"/>
      <stop offset="100%" stop-color="#AFD8EC"/>
    </linearGradient>
    <linearGradient id="open4business-e" x1="50%" x2="50%" y1="0%" y2="100%">
      <stop offset="0%" stop-color="#908E8E"/>
      <stop offset="100%" stop-color="#575656"/>
    </linearGradient>
    <polygon id="open4business-f" points="0 0 436 0 436 463 0 463"/>
  </defs>
  <g fill="none" fill-rule="evenodd" transform="translate(-240 -259)">
    <polygon fill="#E4E4E4" fill-rule="nonzero" points="1747.78 682.41 1748.2 682.77 1747.91 682.35"/>
    <path fill="#E4E4E4" fill-rule="nonzero" d="M1726.28,726.11 C1722.04,726.24 1717.52,726.45 1711.62,726.8 C1706.48,727.1 1701.32,727.51 1696.96,727.87 C1691.36,728.35 1685.96,728.93 1682.32,729.32 C1677.54,729.83 1672.32,730.48 1665.26,731.42 C1656.48,732.61 1647.2,734.04 1636.07,735.94 C1626.74,737.55 1616.72,739.43 1604.54,741.88 C1595.91,743.63 1586.97,745.53 1575.54,748.07 C1564.32,750.55 1552.9,753.2 1544.54,755.14 L1544.3,755.14 L1532.08,758.01 L1528.92,758.75 L1524.46,759.8 L1515.52,761.9 C1504.02,764.59 1494.38,766.82 1485.18,768.9 C1469.18,772.54 1452.18,776.24 1430.18,780.9 C1415.54,784.01 1400.6,787.13 1386.63,790.04 L1382.74,790.84 L1374.47,792.57 C1353.59,796.92 1336.06,800.57 1318.35,804.39 C1298.63,808.62 1280.26,812.7 1262.19,816.86 C1243.71,821.13 1225.64,825.52 1208.48,829.92 C1189.89,834.67 1171.3,839.77 1153.24,845.08 C1144.85,847.54 1136.24,850.15 1127.06,853.08 C1118.06,855.9 1108.92,858.93 1099,862.35 C1090.7,865.19 1082.33,868.19 1073.42,871.52 C1064.67,874.77 1055.74,878.26 1046.1,882.2 C1038.1,885.46 1029.99,888.92 1021.28,892.79 C1019.28,893.7 1017.19,894.63 1015.15,895.56 C1013.11,896.49 1011.4,897.3 1009.75,898.1 C1008.1,898.9 1006.16,899.88 1004.47,900.76 C1003.31,901.36 1002.15,901.97 1001.01,902.59 L1000.11,903.08 L999.21,903.58 L997.95,904.28 L997.51,904.53 C996.38,905.16 995.26,905.81 994.14,906.46 C992.79,907.24 991.45,908.06 990.14,908.87 L989.9,909.02 L989.3,909.38 L989.2,909.45 C986.37,911.19 983.4,913.13 979.59,915.76 C976.29,918.01 973.08,920.41 970.37,922.47 C967.27,924.83 964.02,927.47 960.11,930.78 C956.89,933.54 953.78,936.4 951.72,938.32 C949.32,940.57 947.03,942.82 944.92,944.92 C942.1,947.75 939.41,950.63 937.16,953.08 C934.59,955.87 931.84,959.02 928.5,962.98 C925.97,965.98 923.7,968.85 921.41,971.78 C918.82,975.08 916.41,978.36 914.6,980.85 C911.96,984.48 909.6,987.91 908.06,990.18 C905.98,993.18 903.72,996.67 900.75,1001.34 C897.36,1006.69 893.75,1012.64 889.85,1019.54 C886.11,1026.06 882.32,1033.09 877.9,1041.69 C874.66,1047.98 871.38,1054.69 867.58,1062.69 C865.65,1066.77 863.76,1070.85 861.84,1075.02 C859.92,1079.19 857.84,1083.68 855.09,1089.88 C851.44,1098.04 847.8,1106.45 843.96,1115.61 C840.25,1124.4 836.54,1133.61 832.61,1143.8 C829.4,1152.08 826.23,1160.68 822.91,1170.1 C819.72,1179.17 816.61,1188.58 813.4,1198.89 C811.03,1206.49 808.69,1214.56 806.23,1223.58 C805.15,1227.58 804.07,1231.72 802.73,1237.06 C801.56,1241.72 800.38,1246.74 799.01,1252.87 C798.12,1256.87 797.24,1261.06 796.16,1266.49 C795.41,1270.25 794.63,1274.49 793.63,1280.15 C792.93,1284.22 792.25,1288.45 791.44,1293.86 C790.77,1298.41 790.1,1303.52 789.34,1309.92 C788.87,1313.92 788.44,1318.22 787.94,1323.73 C787.49,1328.68 787.17,1333.52 786.94,1337.59 C786.71,1341.66 786.51,1345.83 786.32,1351.49 C786.2,1355.49 786.12,1359.99 786.12,1365.56 C786.12,1370.56 786.23,1375.4 786.35,1379.56 C786.47,1383.72 786.68,1388.01 787.02,1393.56 C787.28,1397.56 787.63,1401.93 788.16,1407.62 C788.38,1409.98 788.64,1412.32 788.9,1414.62 C789.16,1416.92 789.49,1419.62 789.9,1422.62 C790.31,1425.62 790.78,1428.55 791.42,1432.25 C791.9,1434.99 792.42,1437.87 793.26,1441.6 C793.88,1444.45 794.55,1447.21 795.08,1449.3 C795.82,1452.3 796.73,1455.59 797.93,1459.57 C798.85,1462.69 799.93,1465.76 800.7,1468.09 C801.7,1471.01 802.81,1473.9 803.77,1476.34 C804.73,1478.78 805.71,1481.12 807.13,1484.34 C808.33,1487.06 809.69,1489.92 811.4,1493.34 C813.56,1497.64 816.02,1502.08 818.92,1506.91 C820.09,1508.91 821.46,1511.03 823.36,1513.91 C824.85,1516.2 826.6,1518.7 828.85,1521.8 C831.78,1525.8 835.12,1530 839.04,1534.59 C842.32,1538.41 845.97,1542.34 850.22,1546.59 C853.75,1550.14 857.66,1553.77 862.16,1557.69 C866.24,1561.25 870.76,1564.9 875.99,1568.83 C879.9,1571.83 884.33,1574.9 889.52,1578.35 C893.69,1581.13 898.37,1584.04 903.82,1587.24 C908.17,1589.81 913.01,1592.48 918.61,1595.42 C923.61,1598.04 929.05,1600.71 935.26,1603.59 C939.97,1605.78 945.16,1608.05 951.12,1610.59 C956.55,1612.86 962.32,1615.13 968.79,1617.59 C979.42,1621.59 990.89,1625.44 1003.87,1629.44 C1014.37,1632.68 1025.74,1635.9 1038.64,1639.29 C1049.64,1642.19 1061.28,1645.03 1075.19,1648.29 C1085.19,1650.6 1096.45,1653.08 1111.7,1656.29 C1119.95,1658.04 1128.45,1659.81 1136.25,1661.43 L1137.25,1661.63 L1140.25,1662.25 L1140.89,1662.39 C1154.96,1665.3 1168.73,1668.16 1182.48,1671.16 C1194.71,1673.82 1205.54,1676.3 1215.6,1678.76 L1218.17,1679.38 L1223.06,1680.57 C1225.56,1681.18 1228.06,1681.76 1230.56,1682.34 C1235.32,1683.46 1240.75,1684.68 1247.16,1686.08 C1268.86,1690.79 1291.6,1695.02 1314.74,1698.66 C1338.26,1702.36 1362.54,1705.41 1386.9,1707.73 C1398.74,1708.85 1411.27,1709.82 1424.13,1710.62 C1435.86,1711.34 1448.13,1711.88 1460.46,1712.23 C1469.38,1712.48 1478.59,1712.6 1487.82,1712.6 C1491.35,1712.6 1494.88,1712.6 1498.41,1712.55 C1510.71,1712.43 1523.48,1712.03 1536.41,1711.38 C1548.79,1710.74 1561.5,1709.8 1574.19,1708.58 C1586.4,1707.4 1598.97,1705.87 1611.55,1704.03 C1623.55,1702.28 1635.88,1700.12 1648.29,1697.62 C1659.64,1695.32 1671.29,1692.62 1682.86,1689.54 C1688.28,1688.12 1693.8,1686.54 1699.72,1684.8 C1705.64,1683.06 1711.37,1681.22 1717.72,1679.09 C1722.86,1677.37 1728.18,1675.47 1733.98,1673.29 C1739.46,1671.29 1745.1,1668.99 1751.22,1666.41 C1756.22,1664.32 1761.29,1662.05 1766.77,1659.49 C1771.88,1657.11 1777.25,1654.49 1783.19,1651.36 C1787.5,1649.12 1791.96,1646.67 1796.83,1643.89 C1801.7,1641.11 1806.83,1638.03 1812.34,1634.51 C1816.75,1631.71 1821.28,1628.67 1826.19,1625.22 C1830.76,1622.01 1835.49,1618.5 1840.66,1614.46 C1844.77,1611.24 1848.96,1607.78 1853.48,1603.88 C1857.32,1600.55 1861.37,1596.88 1865.87,1592.56 C1869.65,1588.93 1873.49,1585.05 1877.6,1580.67 C1881.46,1576.57 1885.41,1572.1 1889.6,1567.04 C1892.92,1563.04 1896.35,1558.73 1900.09,1553.75 C1903.55,1549.13 1907.09,1544.16 1910.74,1538.54 C1913.45,1534.45 1916.22,1530 1919.22,1524.91 C1922.22,1519.82 1925.22,1514.38 1928.42,1508.15 C1930.93,1503.26 1933.42,1497.95 1936.17,1491.91 C1938.68,1486.3 1941.17,1480.26 1943.73,1473.46 C1945,1470.13 1946.16,1466.84 1946.93,1464.64 C1947.33,1463.5 1947.72,1462.35 1948.1,1461.19 L1948.2,1460.92 L1948.67,1459.52 C1949.32,1457.6 1949.98,1455.69 1950.67,1453.77 L1950.89,1453.12 C1953.62,1445.21 1956.7,1436.52 1960.6,1425.77 C1966.19,1410.37 1972.05,1394.77 1977.22,1381.08 L1977.46,1380.44 L1979.69,1374.5 C1985.78,1358.32 1992.24,1341.03 1998.2,1324.25 C2000.98,1316.44 2003.76,1308.36 2006.47,1300.25 C2009.01,1292.62 2011.6,1284.47 2014.17,1276.02 C2016.57,1268.14 2018.82,1260.21 2021.07,1251.75 C2022.07,1247.99 2023.07,1244.11 2024.19,1239.52 C2025.19,1235.3 2026.29,1230.74 2027.52,1225.16 C2028.52,1220.89 2029.32,1216.67 2030.09,1212.74 C2030.78,1209.22 2031.48,1205.36 2032.37,1200.21 C2032.98,1196.64 2033.58,1192.74 2034.37,1187.57 C2035.01,1183.12 2035.61,1178.39 2036.25,1172.66 C2036.77,1168.02 2037.17,1163.51 2037.49,1159.66 C2037.81,1155.81 2038.07,1151.75 2038.36,1146.57 C2038.52,1143.34 2038.66,1139.89 2038.79,1135.38 C2038.92,1130.71 2038.96,1125.73 2038.92,1119.71 C2038.92,1114.91 2038.71,1109.89 2038.57,1106.06 C2038.43,1102.23 2038.17,1097.88 2037.78,1092.22 C2037.5,1088.34 2037.13,1084.11 2036.56,1078.49 C2036.13,1074.37 2035.56,1069.95 2034.87,1064.57 C2034.41,1061.17 2033.87,1057.45 2033.09,1052.87 C2032.56,1049.67 2031.9,1046.02 2031.01,1041.38 C2029.61,1034.2 2027.95,1026.84 2025.91,1018.86 C2024.25,1012.24 2022.23,1005.17 2019.74,997.25 C2018.81,994.25 2017.74,990.94 2016.24,986.72 C2015.07,983.32 2013.68,979.49 2011.84,974.66 C2009.46,968.43 2006.73,961.85 2003.49,954.54 C2000.49,947.85 1997.21,940.96 1993.37,933.48 C1990.62,928.11 1987.53,922.42 1983.92,916.1 C1980.43,909.97 1976.51,903.5 1971.92,896.31 C1968.45,890.88 1964.56,885.08 1960.03,878.6 C1956.03,872.93 1951.58,866.83 1946.33,859.95 C1942.5,854.95 1938.13,849.47 1932.99,843.22 C1928.42,837.68 1923.47,831.9 1917.86,825.55 C1911.66,818.55 1904.86,811.15 1897.03,802.98 C1889.74,795.36 1881.8,787.39 1872.75,778.58 C1866,772.03 1858.62,765.05 1850.23,757.3 C1848.83,756.3 1847.43,755.3 1846.04,754.3 C1841.37,750.84 1836.79,747.22 1831.88,744.1 C1829.37,742.51 1826.77,741.1 1824.15,739.67 C1821.53,738.24 1818.78,736.79 1816.08,735.39 C1813.1,733.85 1810.1,732.353333 1807.08,730.9 L1802.36,730.17 C1797.48,729.44 1792.03,728.77 1785.22,728.04 C1780.05,727.5 1775.13,727.14 1770.53,726.82 C1766.23,726.53 1761.43,726.3 1755.84,726.12 C1751.65,725.98 1747.45,725.94 1743.53,725.91 L1741.53,725.91 C1737.34,725.91 1732.7,725.99 1726.46,726.17 L1726.28,726.11 Z"/>
    <path fill="url(#open4business-a)" fill-rule="nonzero" d="M777.32,1056.06 C776.960264,1056.1783 776.609382,1056.322 776.27,1056.49 C775.87,1056.68 775.49,1056.87 775.11,1057.08 C774.73,1057.29 774.32,1057.55 773.93,1057.8 C773.354706,1058.15787 772.800458,1058.54852 772.27,1058.97 L772.12,1059.07 C771.49,1059.55 770.88,1060.07 770.29,1060.58 C768.87,1061.81 767.58,1063.14 766.39,1064.39 C765.01,1065.85 763.71,1067.39 762.52,1068.86 C760.89,1070.86 759.36,1072.86 757.95,1074.86 C754.95,1079.01 752.14,1083.32 750.04,1086.61 C747.04,1091.34 744.23,1096.06 741.89,1100.06 C739.28,1104.51 736.69,1109.06 734.47,1113.06 L732.47,1116.54 C731.036667,1119.1 729.596667,1121.65333 728.15,1124.2 C726.46,1127.2 724.92,1129.82 723.15,1132.45 C722.67,1133.16 722.15,1133.86 721.66,1134.56 L721.52,1134.74 C720.52,1136.15 719.52,1137.54 718.45,1138.93 L718.22,1139.24 C715.98,1142.24 713.7,1145.24 711.56,1147.99 C709.993333,1150.03 708.413333,1152.06333 706.82,1154.09 L704.91,1156.55 C702.28,1159.92 699.71,1163.28 697.27,1166.55 C695.27,1169.26 693.16,1172.12 690.93,1175.29 C688.93,1178.05 687.14,1180.83 685.76,1182.95 C683.98,1185.69 682.14,1188.72 679.97,1192.49 C679.38,1193.49 678.81,1194.56 678.25,1195.6 L677.8,1196.4 C677.42,1197.11 677.01,1197.81 676.6,1198.51 L676.32,1199.01 C675.49,1200.42 674.63,1201.83 673.78,1203.23 L673.56,1203.58 C672.7,1204.99 671.84,1206.38 670.97,1207.78 L670.3,1208.85 C667.3,1213.71 664.76,1217.85 662.3,1221.98 C659.63,1226.46 657.1,1230.9 654.8,1235.19 C653.74,1237.19 652.63,1239.33 651.41,1241.83 C650.19,1244.33 649.13,1246.72 648.04,1249.36 C647.4,1250.9 646.78,1252.56 646.09,1254.61 C645.76,1255.61 645.48,1256.55 645.2,1257.55 C644.92,1258.55 644.72,1259.43 644.51,1260.35 C644.3,1261.27 644.18,1262.11 644.05,1263.03 C643.97,1263.53 643.93,1264.03 643.89,1264.57 L643.89,1264.84 C643.845269,1265.63604 643.845269,1266.43396 643.89,1267.23 C643.89,1267.73 643.95,1268.23 644.02,1268.72 C644.02,1269 644.1,1269.28 644.15,1269.56 L644.23,1269.9 L644.3,1270.25 C644.407432,1270.68979 644.537607,1271.1237 644.69,1271.55 C644.828593,1271.92719 644.992292,1272.29468 645.18,1272.65 L645.29,1272.88 L645.45,1273.16 L645.61,1273.44 C645.915172,1273.93255 646.249083,1274.40671 646.61,1274.86 C646.972312,1275.31129 647.359584,1275.74196 647.77,1276.15 L647.95,1276.35 L648.3,1276.69 L648.66,1277.04 C649.14,1277.48 649.66,1277.93 650.24,1278.39 C651.04,1279.05 651.91,1279.65 652.75,1280.23 L652.94,1280.36 C653.52,1280.76 654.11,1281.13 654.71,1281.5 L655.04,1281.71 C656.48,1282.61 657.98,1283.4 659.42,1284.17 C661.85,1285.46 664.42,1286.63 666.62,1287.62 C669.12,1288.73 671.68,1289.78 674.08,1290.74 C676.48,1291.7 679.19,1292.74 681.68,1293.74 C683.93,1294.6 686.17,1295.46 688.4,1296.35 C690.4,1297.15 692.4,1298.07 694.4,1298.95 L695.26,1299.34 C698.873333,1300.97333 702.48,1302.62 706.08,1304.28 C711.2,1306.64 716.26,1308.98 721.31,1311.33 L729.62,1315.19 C737.85,1319 744.75,1322.19 751.33,1325.12 C759.33,1328.69 767.33,1332.12 775.11,1335.41 L777.18,1336.26 L780.45,1337.62 C782.05,1338.28 783.63,1338.96 785.22,1339.62 L785.68,1339.81 C789.51,1341.45 793.24,1343.12 796.06,1344.4 C802.83,1347.4 809.88,1350.78 818.28,1354.92 C830.89,1361.13 844.19,1368.14 860.12,1376.92 C873.21,1384.15 885.98,1391.55 901.21,1400.41 L916.84,1409.56 C925.13,1414.41 933.69,1419.44 942.14,1424.34 C957.39,1433.18 970.89,1440.78 983.39,1447.57 C989.75,1451.01 996.5,1454.57 1003.46,1458.15 C1011,1462.02 1018.46,1465.95 1025.52,1469.8 C1038.87,1477.04 1052.83,1485.08 1067.03,1493.68 C1082.3,1502.92 1097.56,1512.75 1113.69,1523.68 C1120.05,1528.01 1126.37,1532.42 1132.46,1536.77 C1138.55,1541.12 1145.24,1545.99 1152.59,1551.48 C1158.48,1555.88 1164.43,1560.48 1169.59,1564.4 C1174.39,1568.11 1179.24,1571.83 1184.01,1575.4 C1194.62,1583.46 1204.44,1590.7 1214.01,1597.54 C1224.47,1604.99 1235.01,1612.1 1245.33,1618.68 C1250.46,1621.96 1255.79,1625.23 1261.64,1628.68 C1267.49,1632.13 1273.28,1635.39 1279.74,1638.85 C1285.13,1641.72 1290.74,1644.53 1296.74,1647.42 C1302.6,1650.2 1308.9,1652.95 1315.47,1655.6 C1320.47,1657.6 1325.71,1659.53 1331.59,1661.5 C1334.21,1662.38 1337,1663.25 1340.36,1664.24 C1343.41,1665.13 1346.67,1666 1350.62,1666.97 C1353.14,1667.59 1355.93,1668.2 1359.41,1668.9 C1361.97,1669.41 1364.77,1669.9 1368.21,1670.43 C1370.74,1670.82 1373.54,1671.16 1377.01,1671.52 C1379.58,1671.79 1382.41,1672 1385.91,1672.18 C1388.19,1672.3 1390.62,1672.36 1393.59,1672.36 L1394.67,1672.36 C1397.19,1672.36 1399.87,1672.26 1403.39,1672.04 C1405.93,1671.88 1408.6,1671.62 1412.07,1671.19 C1414.62,1670.88 1417.33,1670.44 1420.83,1669.78 C1423.35,1669.31 1426.07,1668.69 1429.4,1667.78 C1431.9,1667.14 1434.52,1666.36 1437.91,1665.24 C1440.37,1664.43 1442.98,1663.46 1446.34,1662.09 C1449.47,1660.82 1452.51,1659.37 1454.81,1658.25 C1457.74,1656.82 1460.64,1655.25 1463.45,1653.63 C1466.26,1652.01 1469.15,1650.41 1472.73,1648.32 C1478.92,1644.71 1485.35,1640.77 1492.4,1636.32 C1497.96,1632.77 1503.72,1628.91 1510.03,1624.53 C1515.86,1620.53 1521.92,1616.07 1528.55,1611.05 C1533.75,1607.11 1539.16,1602.82 1545.09,1597.95 C1550.09,1593.83 1555.38,1589.32 1561.18,1584.16 C1566.07,1579.82 1571.12,1575.16 1576.62,1569.85 C1581.75,1564.92 1587.01,1559.62 1592.69,1553.66 C1597.18,1548.97 1601.83,1543.88 1606.92,1538.1 C1612.01,1532.32 1617.03,1526.36 1621.92,1520.27 C1623.83,1517.87 1625.85,1515.27 1628.29,1511.96 C1630.02,1509.64 1631.69,1507.28 1633.29,1504.96 C1634.21667,1503.58667 1635.13333,1502.21 1636.04,1500.83 C1636.93,1499.48 1637.79,1498.1 1638.64,1496.72 C1640.4,1493.88 1642.18,1490.72 1644.07,1487.12 C1645.3,1484.77 1646.53,1482.12 1647.94,1478.89 C1649.02,1476.39 1649.94,1473.89 1650.61,1471.89 C1651.07,1470.57 1651.47,1469.24 1651.91,1467.76 C1652.35,1466.28 1652.65,1465.02 1652.98,1463.67 C1653.31,1462.32 1653.57,1460.96 1653.84,1459.48 C1654.2,1457.6 1654.42,1455.7 1654.62,1453.93 C1654.71,1453.08 1654.77,1452.21 1654.83,1451.35 L1654.83,1451.01 C1654.93,1449.61 1654.94,1448.19 1654.96666,1446.82 C1654.98,1445.45 1654.96666,1444.1 1654.83,1442.6 C1654.7,1441.1 1654.6,1439.87 1654.45,1438.55 L1654.45,1438.37 C1654.29,1436.94 1654.03,1435.51 1653.78,1434.12 C1653.61,1433.18 1653.39,1432.25 1653.19,1431.33 L1653.19,1431.14 C1652.87,1429.67 1652.45,1428.23 1652.05,1426.84 C1651.46,1424.84 1650.74,1422.84 1650.05,1421.06 C1649.5,1419.61 1648.85,1418.17 1648.23,1416.78 C1647.82,1415.84 1647.39,1414.98 1646.97,1414.14 L1646.73,1413.65 C1646,1412.17 1645.18,1410.71 1644.38,1409.3 C1643.58,1407.89 1642.59,1406.3 1641.69,1404.86 L1641.63,1404.77 C1640.7,1403.3 1639.74,1401.92 1638.63,1400.28 C1637.52,1398.64 1636.45,1397.28 1635.36,1395.89 L1635.24,1395.74 C1634.03,1394.18 1632.74,1392.65 1631.49,1391.17 C1630.24,1389.69 1628.97,1388.28 1627.65,1386.83 C1625.84,1384.83 1623.77,1382.74 1621.13,1380.2 C1619.23,1378.37 1617.13,1376.51 1614.33,1374.14 C1612.33,1372.47 1610.1,1370.72 1607.26,1368.63 C1605.17,1367.09 1602.89,1365.54 1599.86,1363.63 C1597.16,1361.9 1594.42,1360.35 1592.34,1359.2 C1589.64,1357.7 1586.92,1356.38 1584.61,1355.28 C1582.3,1354.18 1579.93,1353.16 1576.7,1351.86 C1573.75,1350.67 1570.77,1349.65 1568.5,1348.86 C1565.5,1347.86 1562.5,1347.02 1560.27,1346.4 C1557.27,1345.57 1554.22,1344.89 1551.92,1344.4 C1549.46,1343.87 1546.85,1343.4 1543.45,1342.83 C1540.56,1342.36 1537.39,1341.95 1533.45,1341.54 C1528.6,1341.03 1523.37,1340.73 1517.45,1340.61 L1514.45,1340.61 C1512.74,1340.61 1510.94,1340.61 1508.78,1340.69 C1505.78,1340.75 1502.55,1340.92 1498.58,1341.2 C1493.29,1341.58 1487.58,1342.2 1481.12,1343.2 C1475.78,1344 1470.12,1345.07 1463.7,1346.49 C1459.39,1347.49 1454.76,1348.63 1449.52,1350.11 C1445.32,1351.29 1440.78,1352.71 1435.63,1354.46 C1431.53,1355.86 1427.12,1357.51 1422.14,1359.46 C1420.01,1360.32 1418.25,1361.05 1416.62,1361.76 C1416.29,1361.9 1415.97,1362.06 1415.62,1362.21 L1415.25,1362.39 C1413.94,1363.03 1412.65,1363.7 1411.35,1364.39 L1410.77,1364.69 L1406.85,1366.75 L1404.52,1367.96 C1398.25,1371.24 1392.68,1374.05 1387.52,1376.53 C1384.47,1377.99 1381.36,1379.42 1378.31,1380.77 C1375.26,1382.12 1372.17,1383.4 1368.92,1384.67 C1365.99,1385.82 1362.92,1386.91 1359.73,1387.91 C1356.60859,1388.92983 1353.42974,1389.76461 1350.21,1390.41 C1349.46,1390.54 1348.72,1390.67 1347.97,1390.78 C1347.22,1390.89 1346.46,1390.97 1345.7,1391.04 C1344.94,1391.11 1344.27,1391.14 1343.55,1391.17 L1342.9,1391.17 C1342.23,1391.17 1341.57,1391.17 1340.9,1391.09 L1340.64,1391.09 L1340.38,1391.09 C1339.97,1391.09 1339.57,1390.99 1339.16,1390.92 C1338.40643,1390.78744 1337.66422,1390.59687 1336.94,1390.35 C1336.66,1390.25 1336.35,1390.12 1336.04,1389.98 C1335.56762,1389.7726 1335.11565,1389.52151 1334.69,1389.23 C1334.44,1389.06 1334.2,1388.88 1333.96,1388.68 C1333.5978,1388.37684 1333.26316,1388.0422 1332.96,1387.68 C1332.74975,1387.4167 1332.55284,1387.14302 1332.37,1386.86 C1332.21,1386.59 1332.05,1386.31 1331.91,1386.02 C1331.77,1385.73 1331.63,1385.36 1331.51,1385.02 C1331.31988,1384.47303 1331.17604,1383.91105 1331.08,1383.34 L1331.08,1383.15 L1331.01,1382.78 C1330.96,1382.33 1330.92,1381.88 1330.9,1381.43 C1330.85126,1380.40587 1330.88135,1379.37951 1330.99,1378.36 L1331.05,1377.89 L1331.11,1377.42 C1331.21,1376.8 1331.33,1376.18 1331.49,1375.5 C1331.71707,1374.57782 1331.99754,1373.66963 1332.33,1372.78 C1332.56,1372.16 1332.82,1371.54 1333.1,1370.92 C1333.38,1370.3 1333.69,1369.68 1334.01,1369.08 C1334.33,1368.48 1334.7,1367.85 1335.07,1367.26 C1335.44,1366.67 1335.8,1366.11 1336.18,1365.55 L1336.51,1365.08 L1336.81,1364.66 C1337.25,1364.06 1337.71,1363.46 1338.17,1362.88 C1339.11,1361.68 1340.17,1360.54 1341.17,1359.37 C1342.17,1358.2 1343.4,1357.07 1344.57,1355.93 C1345.74,1354.79 1346.95,1353.74 1348.19,1352.65 C1349.15667,1351.81 1350.13667,1350.98 1351.13,1350.16 C1351.99,1349.44 1352.87,1348.74 1353.75,1348.04 L1354.18,1347.7 C1356.34,1345.99 1358.65,1344.26 1360.51,1342.88 C1363.11,1340.88 1365.79,1339 1368.38,1337.12 C1370.02,1335.94 1371.65,1334.76 1373.28,1333.56 C1375.28,1332.06 1377.35,1330.56 1379.28,1329.04 C1381.04,1327.69 1382.83,1326.24 1384.77,1324.59 C1386.04,1323.52 1387.39,1322.3 1388.88,1320.86 C1389.59,1320.18 1390.26,1319.47 1390.99,1318.68 C1391.72,1317.89 1392.17,1317.34 1392.84,1316.52 C1393.51,1315.7 1393.93,1315.09 1394.43,1314.38 L1394.77,1313.91 C1395.24,1313.26 1395.7,1312.58 1396.15,1311.91 C1397.71,1309.59 1399.03,1307.27 1400.01,1305.51 C1401.07,1303.57 1402.12,1301.4 1403.3,1298.69 C1404.22,1296.59 1404.96,1294.47 1405.57,1292.69 C1405.97,1291.51 1406.3,1290.28 1406.62,1289.1 C1406.94,1287.92 1407.19,1286.69 1407.43,1285.51 C1407.67,1284.33 1407.83,1283.11 1407.99,1281.94 C1408.07,1281.27 1408.12,1280.59 1408.17,1279.94 L1408.17,1279.46 C1408.26,1278.26 1408.24,1276.99 1408.23,1275.97 C1408.20028,1274.82936 1408.11015,1273.6911 1407.96,1272.56 C1407.89,1271.91 1407.76,1271.25 1407.64,1270.56 L1407.57,1270.16 C1407.4,1269.38 1407.23,1268.67 1407.03,1268 C1406.83,1267.33 1406.58,1266.57 1406.33,1265.89 L1406.23,1265.66 L1405.91,1264.87 C1405.74,1264.49 1405.57,1264.11 1405.39,1263.74 L1405.13,1263.25 L1404.87,1262.75 C1404.53,1262.12 1404.14,1261.48 1403.71,1260.83 C1403.07016,1259.87897 1402.36514,1258.97347 1401.6,1258.12 C1401.12,1257.56 1400.6,1257.05 1400.08,1256.55 L1399.85,1256.33 C1398.95601,1255.50049 1398.00719,1254.73208 1397.01,1254.03 C1396.34,1253.54 1395.69,1253.14 1395.01,1252.75 L1394.6,1252.5 L1393.41,1251.83 C1392.41,1251.33 1391.5,1250.83 1390.54,1250.46 L1388.93,1249.8 C1388.35,1249.58 1387.76,1249.37 1387.18,1249.17 L1386.38,1248.91 L1385.55,1248.64 C1384.44,1248.32 1383.34,1248.03 1382.27,1247.81 L1381.45,1247.65 L1380.63,1247.49 C1379.51,1247.29 1378.4,1247.14 1377.32,1247.03 C1376.24,1246.92 1375.32,1246.87 1374.32,1246.83 L1373.86,1246.83 L1372.2,1246.83 C1371.1,1246.83 1369.98,1246.83 1368.87,1246.95 C1367.28,1247.03 1365.66,1247.25 1364.1,1247.47 L1363.89,1247.47 C1362.89,1247.61 1361.89,1247.8 1360.95,1247.99 L1360.45,1248.09 C1358.84,1248.4 1357.22,1248.84 1355.66,1249.26 L1355.52,1249.26 C1353.9,1249.7 1352.29,1250.26 1350.73,1250.76 L1350.62,1250.76 C1349.05,1251.29 1347.49,1251.91 1345.98,1252.51 L1345.8,1252.58 C1344.2,1253.21 1342.6,1253.93 1341.07,1254.58 C1340.17,1254.99 1339.28,1255.42 1338.41,1255.84 L1337.83,1256.12 C1336.41,1256.81 1334.99,1257.55 1333.61,1258.27 L1333.26,1258.46 C1330.26,1260.03 1327.26,1261.76 1324.52,1263.39 C1321.78,1265.02 1318.93,1266.8 1316.22,1268.49 C1309.37,1272.78 1303.63,1276.26 1298.15,1279.49 C1295.5,1281.05 1292.57,1282.7 1289.21,1284.54 C1286.12,1286.24 1282.82,1287.94 1278.82,1289.9 C1277.35,1290.6 1275.88,1291.3 1274.39,1291.98 C1272.9,1292.66 1271.6,1293.22 1270.19,1293.82 L1269.88,1293.96 C1267.21,1295.1 1264.31,1296.22 1260.76,1297.48 C1258.07,1298.48 1255.13,1299.35 1251.51,1300.35 C1248.81,1301.1 1245.83,1301.78 1242.12,1302.49 C1241.12,1302.68 1240.05,1302.86 1238.98,1303.02 C1237.91,1303.18 1236.82,1303.34 1235.74,1303.48 C1233.68,1303.75 1231.63,1303.92 1229.18,1304.09 C1226.73,1304.26 1224.51,1304.28 1222.49,1304.3 L1222.2,1304.3 C1221.2,1304.3 1220.13,1304.3 1219.09,1304.25 C1217.43,1304.25 1215.75,1304.09 1214.09,1303.98 L1213.88,1303.98 C1212.75,1303.89 1211.62,1303.79 1210.49,1303.66 C1209.36,1303.53 1208.13,1303.38 1206.95,1303.21 C1204.48,1302.89 1202.05,1302.41 1199.69,1301.96 C1194.69,1300.96 1189.5,1299.82 1183.24,1298.24 C1178.95,1297.16 1174.4,1295.88 1168.91,1294.24 C1164.16,1292.8 1159.13,1291.13 1153.09,1289 C1150.3,1288 1147.43,1286.93 1144.53,1285.83 C1140.78,1284.41 1137.05,1282.89 1134.22,1281.73 C1128.03,1279.19 1121.57,1276.35 1113.88,1272.79 C1107.88,1270.04 1101.54,1266.94 1093.82,1263.06 C1088,1260.13 1081.82,1256.95 1073.94,1252.74 C1070.63,1250.98 1067.34,1249.2 1064.04,1247.42 C1060.74,1245.64 1057.28,1243.73 1054.15,1241.97 C1048.25,1238.67 1042.03,1234.97 1034.56,1230.45 C1028.75,1226.9 1022.62,1223 1015.25,1218.19 C1009.63,1214.53 1003.59,1210.49 996.25,1205.48 C983,1196.42 969.68,1187 956.79,1177.88 L953.79,1175.73 C940.86,1166.59 927.06,1156.87 912.97,1147.37 C906.17,1142.78 899.19,1138.23 892.44,1133.82 L875.72,1122.91 L870.1,1119.26 C853.39,1108.4 839.37,1099.2 825.32,1089.63 C820.4,1086.27 815.62,1082.96 811.1,1079.79 C806.73,1076.71 802.15,1073.43 797.1,1069.79 C791.24,1065.51 785.37,1061.09 779.68,1056.65 L779.98,1056.65 L778.91,1056.3 C778.344997,1056.18079 777.774245,1056.09067 777.2,1056.03 L777.32,1056.13 L777.32,1056.06 Z M755.51,1080.18 L755.56,1080.18 L755.19,1080.71 L755.48,1080.29 L755.51,1080.18 Z"/>
    <g fill-rule="nonzero" transform="translate(.21 .41)">
      <path fill="#161616" d="M1100.24,1249.55 C1099.63,1249.55 1099.02,1249.55 1098.37,1249.63 C1097.44887,1249.70774 1096.53575,1249.8616 1095.64,1250.09 C1093.92907,1250.5385 1092.28485,1251.21098 1090.75,1252.09 C1089.02894,1253.06277 1087.40487,1254.19794 1085.9,1255.48 C1084.20348,1256.91646 1082.60023,1258.45959 1081.1,1260.1 C1079.55,1261.78 1078,1263.65 1076.35,1265.81 C1072.98163,1270.29705 1069.86999,1274.9712 1067.03,1279.81 C1064.21,1284.53 1061.32,1289.76 1057.95,1296.26 C1053.63,1304.6 1049.48,1313.19 1045.46,1321.5 C1043.88667,1324.76 1042.31333,1328.01333 1040.74,1331.26 C1038.25,1336.35 1035.56,1341.81 1032.74,1347.19 C1029.92,1352.57 1027.53,1356.66 1025.15,1360.33 L1024.56,1361.21 C1023.33,1363.06 1022.18,1364.64 1021.04,1366.05 C1021.02453,1365.99244 1020.98421,1365.94478 1020.93,1365.92 C1020.89356,1365.9142 1020.85644,1365.9142 1020.82,1365.92 C1020.71876,1365.92291 1020.62698,1365.98027 1020.58,1366.07 C1019.96978,1367.20828 1019.43204,1368.38395 1018.97,1369.59 C1018.56452,1370.69405 1018.2305,1371.82305 1017.97,1372.97 C1017.46176,1375.11044 1017.27305,1377.31431 1017.41,1379.51 C1017.54449,1381.54772 1017.99661,1383.5519 1018.75,1385.45 C1019.48186,1387.29718 1020.49371,1389.0207 1021.75,1390.56 C1022.64508,1391.65969 1023.65031,1392.66492 1024.75,1393.56 C1025.69156,1394.31041 1026.69517,1394.97949 1027.75,1395.56 C1029.13684,1397.02733 1030.62014,1398.40039 1032.19,1399.67 C1034.82004,1401.79242 1037.63841,1403.67022 1040.61,1405.28 C1043.66118,1406.94625 1046.84951,1408.34804 1050.14,1409.47 C1053.38871,1410.5931 1056.73724,1411.40345 1060.14,1411.89 C1061.79795,1412.1229 1063.46685,1412.26977 1065.14,1412.33 L1066.52,1412.33 C1067.69,1412.33 1068.86,1412.28 1069.98,1412.18 C1073.07598,1411.9181 1076.11233,1411.17588 1078.98,1409.98 C1080.37554,1409.38168 1081.7143,1408.65876 1082.98,1407.82 L1083.23,1407.64 L1083.78,1406.96 L1084.02,1406.66 L1084.11,1406.54 C1084.58,1405.95 1085.05,1405.35 1085.49,1404.73 C1085.54,1404.55 1085.6,1404.37 1085.66,1404.2 C1085.89383,1403.5741 1086.1921,1402.97421 1086.55,1402.41 C1087.9669,1398.80973 1089.61018,1395.30273 1091.47,1391.91 C1093.26,1388.59 1095.19,1385.28 1097.06,1382.08 L1098.47,1379.66 C1099.47,1377.91 1100.69,1375.83 1101.85,1373.66 C1102.26,1372.91 1102.66,1372.16 1103.06,1371.41 L1104.06,1369.51 C1105.51,1366.84 1107,1364.25 1108.13,1362.29 C1109.93,1359.16 1111.76,1356.05 1113.58,1352.94 C1115.12,1350.32 1116.65333,1347.7 1118.18,1345.08 C1122.65,1337.37 1125.95,1331.43 1128.89,1325.81 C1132.23937,1319.51941 1135.26336,1313.0609 1137.95,1306.46 C1139.23,1303.27 1140.27,1300.31 1141.14,1297.46 C1141.99849,1294.71257 1142.66674,1291.90927 1143.14,1289.07 C1143.54798,1286.61241 1143.6888,1284.11789 1143.56,1281.63 C1143.5339,1281.12084 1143.48049,1280.61344 1143.4,1280.11 C1143.31285,1279.57551 1143.18923,1279.04761 1143.03,1278.53 C1142.68519,1277.43157 1142.233,1276.36977 1141.68,1275.36 C1141.05838,1274.19927 1140.35669,1273.08323 1139.58,1272.02 C1138.81,1271.02 1137.91,1269.87 1136.83,1268.66 C1134.64251,1266.2488 1132.25757,1264.02441 1129.7,1262.01 C1127.0048,1259.86909 1124.15727,1257.92729 1121.18,1256.2 C1118.23222,1254.48155 1115.14057,1253.02272 1111.94,1251.84 C1108.98711,1250.72144 1105.90119,1249.99198 1102.76,1249.67 C1101.99903,1249.59441 1101.23471,1249.55769 1100.47,1249.56 L1100.24,1249.55 Z M1019.9,1368.55 C1019.98,1368.36 1020.07,1368.18 1020.15,1367.99 C1020.08,1368.17 1019.99,1368.36 1019.9,1368.55 Z"/>
      <path fill="url(#open4business-b)" d="M1004,1363.92 C1002.13422,1363.92339 1000.27282,1364.10082 998.44,1364.45 C996.448213,1364.82211 994.50091,1365.40194 992.63,1366.18 C990.6511,1367.02376 988.76446,1368.06929 987,1369.3 C985.19485,1370.55529 983.49581,1371.95666 981.92,1373.49 C979.039084,1376.25857 976.333822,1379.2043 973.82,1382.31 C971.29,1385.38 968.68,1388.84 965.82,1392.9 C961.23,1399.47 956.57,1406.9 951.56,1415.64 L951.4,1415.9 L951.25,1416.17 L949.34,1417.87 C947.96,1419.1 946.57,1420.34 945.2,1421.59 C943.45,1423.2 942.08,1424.53 940.88,1425.81 C939.692411,1427.01579 938.617911,1428.32795 937.67,1429.73 C936.867725,1430.96997 936.197408,1432.2905 935.67,1433.67 C935.153713,1434.96067 934.771699,1436.30107 934.53,1437.67 C934.292055,1438.98939 934.191518,1440.32988 934.23,1441.67 C934.264722,1442.99833 934.422057,1444.32061 934.7,1445.62 C935.302351,1448.35915 936.313687,1450.99199 937.7,1453.43 C939.205477,1456.12648 940.98128,1458.66286 943,1461 C945.193204,1463.56787 947.558673,1465.98345 950.08,1468.23 C952.55,1470.47 955.28,1472.71 958.43,1475.08 C961.13,1477.08 964.05,1479.15 967.36,1481.34 C972.53,1484.73 978.36,1488.2 985.04,1491.92 C987.39,1493.22 989.85,1494.54 992.57,1495.98 C995.57,1497.55 999.44,1499.6 1003.46,1501.55 C1007.48,1503.5 1010.89,1505 1014.16,1506.27 C1017.19808,1507.48122 1020.31534,1508.48355 1023.49,1509.27 C1026.23372,1509.93198 1029.03876,1510.30732 1031.86,1510.39 L1032.46,1510.39 C1034.84854,1510.39 1037.22748,1510.08779 1039.54,1509.49 C1042.07623,1508.82645 1044.50905,1507.81698 1046.77,1506.49 C1049.30986,1504.97105 1051.67709,1503.18054 1053.83,1501.15 C1056.4353,1498.71712 1058.85535,1496.09317 1061.07,1493.3 C1063.36,1490.47 1065.66,1487.3 1068.52,1483.09 L1070.77,1479.77 C1071.77,1478.24 1072.85,1476.72 1073.88,1475.19 C1076.23,1471.69 1078.27,1468.57 1080.11,1465.65 C1082.47,1461.9 1084.51,1458.46 1086.34,1455.12 C1088.25805,1451.67005 1089.99377,1448.12184 1091.54,1444.49 C1092.24,1442.82 1092.88,1441.13 1093.42,1439.49 C1093.94952,1437.91002 1094.38692,1436.30065 1094.73,1434.67 C1095.03875,1433.21809 1095.22606,1431.743 1095.29,1430.26 C1095.35518,1428.75183 1095.24104,1427.24126 1094.95,1425.76 C1094.28404,1422.44998 1092.97976,1419.30136 1091.11,1416.49 C1090.13281,1414.97313 1089.04662,1413.52932 1087.86,1412.17 C1086.75,1410.88 1085.5,1409.57 1084.03,1408.17 C1081.1753,1405.49549 1078.13796,1403.02285 1074.94,1400.77 C1071.52,1398.3 1068.01,1396.06 1065.34,1394.38 C1063.89,1393.46 1062.44,1392.57 1060.98,1391.67 C1059.52,1390.77 1057.92,1389.78 1056.4,1388.82 C1054.88,1387.86 1053.22,1386.82 1051.64,1385.73 L1050.99,1385.29 L1050.34,1384.86 L1049.68,1384.42 L1049.47,1384.28 C1049.40663,1384.21676 1049.33202,1384.16589 1049.25,1384.13 L1048.9,1383.9 L1048.7,1383.76 L1047.85,1383.19 L1047.34,1382.86 L1046.6,1382.37 L1045.92,1381.92 C1044.04,1380.66 1042.15,1379.41 1040.24,1378.19 C1035.79,1375.33 1032.05,1373.11 1028.45,1371.19 C1024.60622,1369.13549 1020.5911,1367.41902 1016.45,1366.06 C1012.573,1364.78454 1008.5301,1364.08377 1004.45,1363.98 L1004,1363.92 Z"/>
      <path fill="#F9E5C8" d="M1706.68,1080.49 C1705.97,1080.62 1705.34,1080.74 1704.68,1080.88 C1703.74,1081.1 1702.81,1081.33 1701.88,1081.58 L1701.71,1081.58 L1701.5,1081.63 C1701.37973,1081.62043 1701.25979,1081.65217 1701.16,1081.72 C1699.36,1082.24 1697.54,1082.86 1695.44,1083.65 C1693.34,1084.44 1691.36,1085.34 1690.01,1085.97 C1688.01,1086.89 1686.13,1087.97 1684.69,1088.74 C1683.25,1089.51 1681.63,1090.52 1679.62,1091.83 C1677.95,1092.92 1676.16,1094.19 1674,1095.83 C1672.28,1097.15 1670.61,1098.57 1669.5,1099.53 C1669,1099.96 1668.5,1100.41 1668.01,1100.86 L1666.66,1102.1 L1665,1103.7 C1663.43,1105.13 1661.84,1106.56 1660.25,1107.98 C1658.66,1109.4 1656.97,1110.87 1654.66,1112.85 C1651.13,1115.85 1647.39,1118.94 1643.24,1122.22 C1639.68,1125.04 1635.8,1127.98 1631.38,1131.22 C1629.49,1132.6 1627.48,1134.03 1625.23,1135.6 C1624.49,1136.12 1623.75,1136.6 1622.99,1137.13 C1621.99,1137.74 1621.07,1138.28 1620.23,1138.74 C1619.7,1139.02 1619.23,1139.27 1618.77,1139.49 C1618.02,1139.87 1617.26,1140.21 1616.49,1140.49 C1615.17,1141.08 1613.81,1141.58 1612.49,1142.04 C1611.17,1142.5 1609.62,1142.99 1608.36,1143.36 C1606.56,1143.88 1604.72,1144.3 1603.31,1144.61 L1600.71,1145.14 C1599.91,1145.3 1599.1,1145.43 1598.3,1145.57 C1596.18,1145.92 1594.3,1146.15 1592.65,1146.36 C1589.2,1146.77 1585.46,1147.07 1580.88,1147.29 C1576.83,1147.49 1572.88,1147.55 1570.31,1147.57 C1568.36,1147.57 1566.42,1147.57 1564.49,1147.57 C1562.56,1147.57 1560.6,1147.57 1558.66,1147.57 C1554.66,1147.62 1550.66,1147.77 1546.31,1148.02 C1542.12,1148.28 1537.82,1148.67 1533.17,1149.22 C1529.44,1149.67 1525.53,1150.22 1521.23,1151.04 C1517.43,1151.74 1513.54,1152.59 1509.33,1153.64 C1505.73,1154.54 1501.93,1155.64 1497.73,1157 C1493.85,1158.26 1489.8,1159.77 1485.34,1161.61 C1481.79,1163.08 1478.09,1164.78 1474.03,1166.83 C1470.61,1168.55 1467.11,1170.47 1463.03,1172.9 C1459.79,1174.81 1456.44,1176.9 1452.78,1179.39 C1449.56,1181.54 1446.08,1184.03 1442.15,1186.98 C1436.15,1191.51 1429.8,1196.72 1422.85,1202.89 C1417.52,1207.62 1411.92,1212.89 1405.23,1219.41 C1399.02,1225.49 1392.91,1231.7 1387.52,1237.18 L1384.35,1240.41 L1379.07,1245.77 C1376.24,1248.65 1373.24,1251.63 1370.17,1254.64 C1365.31,1259.38 1360.4,1264.03 1355.65,1268.53 L1352.9,1271.13 C1347.78,1275.98 1341.75,1281.73 1335.82,1287.62 C1329.73,1293.68 1324.41,1299.28 1319.56,1304.76 C1317.16,1307.47 1314.76,1310.3 1312.24,1313.41 C1309.72,1316.52 1307.33,1319.65 1304.76,1323.22 C1302.85,1325.88 1300.9,1328.77 1298.76,1332.04 C1296.62,1335.31 1294.52,1338.97 1292.41,1342.9 C1290.96,1345.59 1289.54,1348.48 1288.41,1350.81 L1288.33,1350.98 L1287.94,1351.78 C1286.33,1355.06 1284.83,1358.2 1283.48,1361.1 C1280.18,1368.2 1277.37,1374.84 1274.89,1381.41 C1273.74,1384.41 1272.65,1387.6 1271.57,1390.98 C1270.4,1394.61 1269.36,1398.38 1268.47,1402.19 C1268.09,1403.82 1267.74,1405.49 1267.41,1407.3 C1267.14,1408.77 1266.9,1410.3 1266.64,1412.3 C1266.45,1413.74 1266.31,1415.3 1266.19,1417.2 C1266.09,1418.7 1266.06,1420.3 1266.08,1422.08 C1266.08,1423.41 1266.18,1424.86 1266.36,1426.64 C1266.52016,1428.13122 1266.75714,1429.61319 1267.07,1431.08 C1267.35599,1432.48116 1267.72667,1433.8637 1268.18,1435.22 C1268.62767,1436.59477 1269.18271,1437.93222 1269.84,1439.22 C1270.28444,1440.09185 1270.78551,1440.93365 1271.34,1441.74 C1271.63,1442.18 1271.96,1442.61 1272.34,1443.02 C1272.72,1443.43 1272.84,1443.62 1273.1,1443.9 C1273.36,1444.18 1273.79,1444.62 1274.16,1444.97 C1274.53,1445.32 1274.9,1445.62 1275.28,1445.97 C1276.82722,1447.17727 1278.55961,1448.1262 1280.41,1448.78 C1281.206,1449.05673 1282.01736,1449.28712 1282.84,1449.47 C1283.80255,1449.68754 1284.7778,1449.84451 1285.76,1449.94 C1286.57,1450.01 1287.45,1450.05 1288.51,1450.05 L1288.95,1450.05 C1290.08,1450.05 1291.18,1449.93 1292.11,1449.84 C1293.3,1449.71 1294.47,1449.5 1295.36,1449.34 C1296.25,1449.18 1297.21,1448.95 1298.24,1448.68 C1299.58,1448.36 1300.91,1447.94 1302.14,1447.54 C1303.8,1447.01 1305.57,1446.34 1307.73,1445.43 C1309.55,1444.67 1311.48,1443.77 1313.79,1442.6 C1317.5276,1440.68384 1321.15343,1438.55709 1324.65,1436.23 C1327.69788,1434.22544 1330.63859,1432.06247 1333.46,1429.75 C1334.15,1429.18 1334.83,1428.59 1335.52,1427.99 C1336.9,1426.8 1338.27,1425.59 1339.64,1424.39 C1342.12,1422.20333 1344.59333,1420 1347.06,1417.78 L1350.64,1414.57 C1354.04667,1411.49667 1357.46667,1408.44 1360.9,1405.4 C1366.13,1400.77 1370.84,1396.76 1375.31,1393.13 C1380.03,1389.3 1384.77,1385.75 1389.38,1382.55 C1391.7,1380.96 1394.19,1379.34 1397.01,1377.61 C1399.45,1376.12 1402.01,1374.67 1404.81,1373.18 C1405.73,1372.7 1406.71,1372.18 1407.69,1371.72 C1408.67,1371.26 1409.94,1370.64 1411.42,1369.97 C1413.42,1369.04 1415.72,1368.11 1418.3,1367.13 C1420.45,1366.32 1422.79,1365.53 1425.46,1364.73 C1427.67,1364.06 1430.08,1363.44 1432.81,1362.83 C1433.9,1362.58 1435.04,1362.35 1436.17,1362.13 C1437.3,1361.91 1438.49,1361.73 1439.65,1361.54 C1441.78,1361.21 1444.05,1360.93 1446.81,1360.68 C1448.99,1360.48 1451.36,1360.35 1454.27,1360.26 L1457.04,1360.26 C1459.04,1360.26 1461.04,1360.26 1463.26,1360.42 L1465.41,1360.54 C1466.49,1360.61 1467.57,1360.7 1468.65,1360.79 C1471.03,1360.99 1473.27,1361.27 1475.15,1361.52 C1479.06,1362.03 1483.3,1362.77 1488.15,1363.78 C1492.09,1364.6 1496.15,1365.59 1500.98,1366.91 C1504.66,1367.91 1508.72,1369.13 1513.39,1370.65 C1515.39,1371.31667 1517.39,1371.98333 1519.39,1372.65 C1520.81,1373.15 1522.39,1373.73 1524.57,1374.57 C1527.72,1375.79 1530.99,1377.19 1534.57,1378.85 C1537.57,1380.26 1540.73,1381.85 1544.11,1383.71 C1546.89,1385.24 1549.84,1387 1553.11,1389.1 C1554.57,1390.05 1556.11,1391.05 1557.42,1391.99 C1558.73,1392.93 1560,1393.79 1561.67,1394.99 C1564.27,1396.9 1566.95,1398.99 1569.86,1401.48 C1575.14766,1405.97108 1580.15693,1410.77998 1584.86,1415.88 L1584.95,1415.94 C1586.08,1417.22 1587.22,1418.5 1588.35,1419.79 C1589.48,1421.08 1590.71,1422.55 1591.76,1423.79 C1594.06,1426.59 1596.36,1429.57 1598.76,1432.9 C1600.76,1435.6 1602.7,1438.5 1604.83,1441.77 C1605.22,1442.37 1605.6,1442.96 1605.97,1443.56 L1606.05,1443.69 C1606.54,1444.46 1607.05,1445.23 1607.53,1445.99 C1608.44896,1447.35674 1609.45084,1448.66586 1610.53,1449.91 C1611.41,1450.91 1612.33,1451.83 1613.11,1452.6 C1614.25,1453.71 1615.48,1454.73 1616.42,1455.49 C1617.68,1456.49 1619.01,1457.43 1620.03,1458.13 C1621.05,1458.83 1622.42,1459.66 1624.03,1460.56 C1625.46,1461.38 1626.91,1462.08 1628.13,1462.66 C1629.35,1463.24 1630.72,1463.81 1632.43,1464.46 C1633.77,1464.98 1635.11,1465.46 1636.25,1465.78 C1637.75,1466.27 1639.43,1466.72 1641.54,1467.22 C1644.59193,1467.92351 1647.68958,1468.41138 1650.81,1468.68 C1652.01,1468.79 1653.19,1468.84 1654.81,1468.9 L1656.27,1468.9 C1657.4,1468.9 1658.64,1468.9 1660.17,1468.78 C1661.53,1468.7 1662.96,1468.55 1664.67,1468.31 C1665.4,1468.21 1666.13,1468.07 1666.87,1467.94 C1667.4,1467.84 1667.93,1467.73 1668.45,1467.6 C1669.16,1467.44 1669.87,1467.26 1670.58,1467.07 C1671.29,1466.88 1671.98,1466.67 1672.67,1466.45 C1674.26453,1465.93617 1675.82726,1465.32844 1677.35,1464.63 C1678.77,1463.99 1680.14,1463.25 1681.41,1462.55 C1682.92199,1461.70792 1684.39052,1460.79009 1685.81,1459.8 C1687.01,1458.99 1688.3,1458.01 1689.88,1456.72 C1691.04,1455.72 1692.22,1454.72 1693.7,1453.25 C1694.7,1452.25 1695.76,1451.13 1697.11,1449.58 C1698.28,1448.24 1699.34,1446.85 1700.23,1445.67 C1701.12,1444.49 1701.9,1443.32 1702.67,1442.12 C1703.12,1441.41 1703.57,1440.7 1704,1439.99 C1704.6,1438.99 1705.18,1437.99 1705.67,1437.08 C1706.54,1435.51 1707.32,1433.92 1707.96,1432.57 C1708.72,1430.99 1709.39,1429.41 1709.96,1427.93 C1711.05,1425.31 1712.06,1422.47 1713.16,1419.01 C1714.09,1416.08 1714.97,1412.87 1715.83,1409.19 L1715.99,1408.53 L1716.14,1407.85 L1716.45,1406.52 C1716.67,1405.61 1716.91,1404.7 1717.15,1403.8 C1717.61,1402.04 1718.15,1400.11 1718.95,1397.73 C1719.31,1396.64 1719.71,1395.51 1720.11,1394.38 C1720.51,1393.25 1720.95,1392.18 1721.38,1391.08 C1722.17,1389.08 1723.07,1387.08 1724.2,1384.7 C1726.17644,1380.59797 1728.40746,1376.62355 1730.88,1372.8 C1731.65,1371.63 1732.45,1370.44 1733.27,1369.26 C1734.09,1368.08 1734.86,1367.04 1735.82,1365.76 C1737.53,1363.47 1739.47,1361.08 1741.9,1358.24 C1743.83,1356 1745.98,1353.67 1748.66,1350.89 C1749.74,1349.77 1750.84,1348.68 1751.95,1347.58 C1753.26,1346.28 1754.59,1345.01 1755.95,1343.78 C1756.62,1343.18 1757.29,1342.58 1757.95,1341.99 C1758.61,1341.4 1759.15,1340.99 1759.76,1340.47 L1760.05,1340.22 C1761.5,1339.01 1762.98,1337.87 1764.37,1336.81 C1767.79,1334.2 1771.37,1331.74 1774.16,1329.88 C1776.95,1328.02 1779.68,1326.26 1783.5,1323.88 L1785.5,1322.59 C1788.22,1320.85 1790.92,1319.13 1793.61,1317.37 C1796.82,1315.28 1799.8,1313.24 1802.72,1311.15 C1804.1,1310.15 1805.49,1309.15 1807.11,1307.88 C1808.73,1306.61 1810.22,1305.41 1812.03,1303.88 C1813.24,1302.88 1814.4,1301.77 1815.47,1300.77 C1816.89,1299.45 1818.26,1298.03 1819.29,1296.95 C1820.47,1295.7 1821.7,1294.29 1823.16,1292.51 C1823.8,1291.73 1824.4,1290.93 1825.06,1290.05 L1825.16,1289.93 C1825.81,1289.05 1826.43,1288.16 1826.99,1287.28 L1827.53,1286.44 C1827.88,1285.9 1828.21,1285.35 1828.53,1284.8 C1828.99,1284.03 1829.38,1283.27 1829.85,1282.36 C1830.25,1281.6 1830.58,1280.86 1830.97,1279.97 C1831.25,1279.33 1831.5,1278.66 1831.74,1277.97 L1831.83,1277.72 L1831.83,1277.58 C1832.28632,1276.28743 1832.66368,1274.96834 1832.96,1273.63 C1833.13,1272.89 1833.26,1272.12 1833.37,1271.37 C1833.51817,1270.37588 1833.61164,1269.37437 1833.65,1268.37 C1833.72263,1267.11772 1833.72263,1265.86228 1833.65,1264.61 C1833.52639,1263.17466 1833.31264,1261.74851 1833.01,1260.34 C1832.73,1258.98 1832.32,1257.62 1832.01,1256.71 C1831.47084,1255.058 1830.83645,1253.43862 1830.11,1251.86 C1829.51,1250.54 1828.84,1249.27 1828.33,1248.31 C1827.52,1246.78 1826.62,1245.31 1825.92,1244.18 C1825,1242.68 1824.03,1241.24 1823.2,1240.03 C1821.98,1238.25 1820.66,1236.44 1819.69,1235.12 C1817.89,1232.69 1816.03,1230.27 1814.13,1227.79 L1813.13,1226.49 C1810.89,1223.58 1808.24,1220.11 1805.6,1216.49 C1803.07,1212.99 1800.38,1209.05 1797.15,1204.1 C1794.3,1199.72 1791.62,1195.39 1789.15,1191.37 C1787.95,1189.37 1786.76,1187.45 1785.57,1185.5 L1784.91,1184.42 L1784.31,1183.42 L1782.48,1180.42 L1781.32,1178.51 C1777.97,1173.01 1775.32,1168.79 1772.81,1164.83 C1770.16,1160.67 1767.35,1156.48 1764.47,1152.36 C1763.05,1150.36 1761.55,1148.3 1760.02,1146.29 C1758.09,1143.77 1756.14,1141.41 1754.65,1139.62 C1751.35,1135.62 1747.83,1131.79 1744.79,1128.47 C1743.02,1126.53 1741.23,1124.6 1739.44,1122.68 L1738.66,1121.83 L1738.01,1121.13 C1736.89,1119.91667 1735.77333,1118.70333 1734.66,1117.49 C1732.75,1115.41 1730.86,1113.32 1728.98,1111.2 C1728.14,1110.2 1727.3,1109.29 1726.48,1108.31 C1725.9,1107.61 1725.34,1106.83 1724.89,1106.2 C1724.44,1105.57 1723.89,1104.74 1723.41,1103.99 L1723.29,1103.8 C1722.80333,1103.04 1722.32333,1102.27 1721.85,1101.49 L1721.67,1101.2 L1720.43,1099.2 L1719.98,1098.46 C1719.43,1097.55 1718.88,1096.64 1718.31,1095.75 C1717.74,1094.86 1717.14,1093.93 1716.54,1093.03 C1715.94,1092.13 1715.43,1091.41 1714.7,1090.42 C1714.15,1089.69 1713.55,1088.95 1712.76,1088.03 C1712.3,1087.5 1711.76,1087.03 1711.15,1086.33 C1710.81,1086 1710.46,1085.67 1710.15,1085.33 C1709.84,1084.99 1709.43,1084.74 1709.06,1084.46 C1708.48665,1084.03544 1707.88896,1083.64477 1707.27,1083.29 C1706.89,1083.08 1706.49,1082.88 1706.1,1082.71 L1705.1,1082.35 C1704.68,1082.22 1704.25,1082.09 1703.82,1081.99 C1704.06708,1081.92437 1704.30799,1081.83737 1704.54,1081.73 L1704.93,1081.57 C1705.46,1081.35 1706.06,1081.14 1706.69,1080.94 C1706.81276,1080.89888 1706.89133,1080.77897 1706.88,1080.65 C1706.86188,1080.51085 1706.74973,1080.40286 1706.61,1080.39 L1706.68,1080.49 Z"/>
      <path fill="url(#open4business-c)" d="M1156.28,1496.05 C1152.75,1496.05 1149.43,1496.15 1146.14,1496.36 C1139.53554,1496.70963 1132.99619,1497.84428 1126.66,1499.74 C1125.3,1500.16 1123.93,1500.66 1122.46,1501.26 C1121.17,1501.79 1119.85,1502.41 1118.46,1503.17 C1117.21514,1503.83291 1116.00978,1504.56748 1114.85,1505.37 C1113.61313,1506.22419 1112.43698,1507.16311 1111.33,1508.18 C1110.36374,1509.06774 1109.45523,1510.01634 1108.61,1511.02 C1107.68374,1512.12912 1106.84141,1513.30571 1106.09,1514.54 C1104.50614,1517.13205 1103.30064,1519.93704 1102.51,1522.87 C1102.07345,1524.51435 1101.73948,1526.18423 1101.51,1527.87 C1101.20657,1529.90835 1101.00963,1531.96114 1100.92,1534.02 C1100.92,1535.02 1100.86,1536.02 1100.84672,1536.95 C1100.84,1537.88 1100.84672,1538.83 1100.92,1539.78 C1101.03,1541.78 1101.23,1543.78 1101.56,1545.93 C1102.15915,1549.61724 1103.09301,1553.24223 1104.35,1556.76 C1105.612,1560.25194 1107.16756,1563.63069 1109,1566.86 C1110.90459,1570.24858 1113.05361,1573.49385 1115.43,1576.57 C1117.7913,1579.63227 1120.32192,1582.56017 1123.01,1585.34 C1125.62,1588.06 1128.53,1590.82 1131.9,1593.75 C1134.76,1596.24 1137.9,1598.75 1141.59,1601.57 C1147.41,1605.97 1153.87,1610.36 1161.9,1615.39 C1168.9,1619.77 1175.96,1623.9 1182.2,1627.55 L1182.88,1627.95 C1185.76,1629.64 1188.63,1631.32 1191.48,1633.03 C1196.48,1636.03 1201.32,1639.03 1205.48,1641.59 C1210.95,1644.99 1216.48,1648.5 1221.88,1651.9 L1223.01,1652.61 L1224.14,1653.33 L1235.81,1660.7 C1254.21,1672.26 1275.73,1685.52 1298.38,1696.47 C1303.58,1698.99 1309,1701.42 1314.47,1703.7 C1316.85,1704.7 1319.4,1705.7 1322.26,1706.8 L1325.61,1708.07 L1326.38,1708.36 L1327.32,1708.71 L1328.53,1709.16 C1338.53,1712.9 1346.32,1715.6 1353.69,1717.9 C1362.71639,1720.78656 1371.91861,1723.09129 1381.24,1724.8 C1385.94,1725.63 1390.63,1726.23 1395.16,1726.58 C1398,1726.8 1400.82,1726.91 1403.55,1726.91 C1405.11,1726.91 1406.75,1726.91 1408.43,1726.79 C1411.81529,1726.62715 1415.18791,1726.26317 1418.53,1725.7 C1421.69728,1725.15806 1424.82439,1724.40301 1427.89,1723.44 C1431.06833,1722.43848 1434.16152,1721.18448 1437.14,1719.69 C1440.05159,1718.22088 1442.83762,1716.51515 1445.47,1714.59 C1446.65,1713.74 1447.92,1712.73 1449.35,1711.5 C1450.78,1710.27 1452.11,1708.95 1453.24,1707.82 C1454.56,1706.48 1455.89,1705.07 1457.19,1703.63 C1458.49,1702.19 1459.89,1700.47 1461.27,1698.63 C1462.27,1697.27 1463.27,1695.86 1464.27,1694.3 C1465.4131,1692.51021 1466.43538,1690.64606 1467.33,1688.72 C1468.14599,1686.95714 1468.83767,1685.13938 1469.4,1683.28 C1469.75,1682.18 1470.01,1681.06 1470.19,1680.2 L1470.19,1680.03 C1470.54,1679.18 1470.87,1678.31 1471.19,1677.36 L1472.8,1677.36 C1473.23045,1677.35938 1473.65959,1677.31245 1474.08,1677.22 C1474.214,1677.20976 1474.33911,1677.14899 1474.43,1677.05 C1474.51698,1676.94326 1474.55991,1676.80733 1474.5514,1676.67 C1474.52222,1676.40799 1474.31252,1676.20248 1474.05,1676.18 L1473.68,1676.24 L1473.37,1676.24 C1473.06,1676.24 1472.75,1676.24 1472.45,1676.24 L1471.45,1676.24 C1471.55293,1676.02448 1471.63659,1675.80027 1471.7,1675.57 C1472.18364,1673.93061 1472.5545,1672.26004 1472.81,1670.57 C1473.06878,1668.91561 1473.20582,1667.24445 1473.22,1665.57 C1473.23407,1663.98548 1473.14052,1662.40184 1472.94,1660.83 C1472.73478,1659.23528 1472.42748,1657.65537 1472.02,1656.1 C1471.62418,1654.5762 1471.1298,1653.07972 1470.54,1651.62 C1469.96048,1650.09577 1469.29268,1648.60658 1468.54,1647.16 C1467.79,1645.76 1466.96,1644.34 1466.05,1642.95 C1465.14,1641.56 1464.14,1640.14 1462.87,1638.51 C1460.67749,1635.73754 1458.31283,1633.10568 1455.79,1630.63 C1453.3,1628.18 1450.52,1625.7 1447.26,1623.05 C1444.53,1620.82 1441.47,1618.51 1437.91,1615.99 C1431.18,1611.22 1424.44,1606.99 1418.73,1603.56 C1416.11,1601.97 1413.48,1600.4 1410.84,1598.82 L1407.32,1596.72 C1404.22,1594.87 1400.62,1592.72 1397.19,1590.5 L1395.27,1589.24 L1394.81,1588.94 L1391.51,1586.8 C1388.94,1585.14 1386.21,1583.42 1383.16,1581.54 C1378.32,1578.54 1373.01,1575.38 1366.95,1571.88 C1355.81,1565.43 1344.55,1559.32 1334.04,1553.67 L1323.21,1548 L1317.31,1544.84 L1316.63,1544.47 C1312.5,1542.27 1306.86,1539.25 1301.63,1536.35 C1298.3,1534.48 1294.98,1532.58 1291.63,1530.69 L1290.79,1530.21 L1287.14,1528.11 C1283.14,1525.83 1277.89,1522.83 1272.38,1519.85 C1266.33,1516.58 1260.79,1513.85 1255.38,1511.37 C1252.61,1510.11 1249.7,1508.88 1246.74,1507.71 C1244.05,1506.65 1241.28,1505.65 1238.49,1504.71 C1236.98,1504.22 1235.49,1503.77 1234.07,1503.36 C1232.65,1502.95 1231.22,1502.59 1229.61,1502.19 C1226.74,1501.5 1223.71,1500.91 1220.61,1500.44 C1219.27,1500.24 1217.83,1500.06 1216.06,1499.88 C1214.75,1499.76 1213.39,1499.66 1212,1499.59 L1210.16,1499.52 L1209.72,1499.52 L1209.27,1499.52 L1208.49,1499.52 L1206.22,1499.44 C1203.75,1499.31 1201.14,1499.13 1197.76,1498.84 L1190.19,1498.16 L1188.25,1497.97 C1180.35,1497.24 1173.76,1496.69 1167.25,1496.36 C1163.12,1496.15 1159.48,1496.06 1156.12,1496.06 L1156.28,1496.05 Z"/>
      <path fill="#DCEDF5" d="M1755.41 998.14C1755.3725 998.253051 1755.42358 998.376504 1755.53 998.43 1755.95 998.67 1756.38 998.91 1756.78 999.17 1756.8123 999.051533 1756.76365 998.925842 1756.66 998.86 1756.43 998.71 1756.2 998.55 1755.95 998.42L1755.64 998.25 1755.41 998.13 1755.41 998.14zM1763.92 1004.71C1763.96447 1004.75595 1764.02607 1004.78131 1764.09 1004.78 1764.15441 1004.78403 1764.2171 1004.75822 1764.26 1004.71 1764.30662 1004.67021 1764.33241 1004.61124 1764.33 1004.55 1764.32815 1004.4867 1764.30326 1004.42625 1764.26 1004.38 1764.11 1004.18 1763.95 1003.99 1763.79 1003.79L1762.94 1003.23 1761.72 1002.49C1762.54039 1003.14499 1763.28501 1003.88961 1763.94 1004.71L1763.92 1004.71z" opacity=".95"/>
      <path fill="#DCEDF5" d="M1755.41 998.13C1755.3725 998.243051 1755.42358 998.366504 1755.53 998.42 1755.91 998.64 1756.3 998.86 1756.67 999.09L1756.78 999.15C1756.80457 999.034915 1756.75716 998.91639 1756.66 998.85 1756.43 998.7 1756.2 998.54 1755.95 998.41 1755.76561 998.316678 1755.58845 998.209714 1755.42 998.09L1755.41 998.13zM1763.92 1004.71C1763.96447 1004.75595 1764.02607 1004.78131 1764.09 1004.78 1764.15441 1004.78403 1764.2171 1004.75822 1764.26 1004.71 1764.30662 1004.67021 1764.33241 1004.61124 1764.33 1004.55 1764.32815 1004.4867 1764.30326 1004.42625 1764.26 1004.38 1764.13 1004.21 1764 1004.04 1763.86 1003.88L1763.56 1003.54 1763.77 1003.79 1762.92 1003.23 1761.7 1002.49C1762.52039 1003.14499 1763.26501 1003.88961 1763.92 1004.71L1763.92 1004.71z" opacity=".95"/>
      <path fill="url(#open4business-d)" d="M1750.59,997.09 C1749.92096,997.100596 1749.25313,997.150683 1748.59,997.24 C1747.7916,997.355266 1747.00034,997.515521 1746.22,997.72 C1745.54,997.89 1744.88,998.1 1744.11,998.36 C1742.27527,998.997745 1740.4847,999.756064 1738.75,1000.63 C1736.64,1001.63 1734.56,1002.78 1732.54,1003.89 C1731.28,1004.58 1730.02,1005.26 1728.75,1005.89 C1727.14,1006.73 1725.75,1007.38 1724.46,1007.89 C1723.78,1008.17 1723.06,1008.42 1722.37,1008.65 L1721.91,1008.81 C1720.72,1009.22 1719.51,1009.61 1718.31,1010 L1717.22,1010.36 C1715.58,1010.9 1713.94,1011.43 1712.31,1011.99 C1710.05,1012.76 1708.01,1013.53 1706.07,1014.35 C1704.18575,1015.14609 1702.34932,1016.05095 1700.57,1017.06 C1698.72022,1018.1166 1696.95197,1019.30992 1695.28,1020.63 C1694.28,1021.39 1693.44,1022.19 1692.78,1022.81 C1692.12,1023.43 1691.54,1024.02 1690.94,1024.64 L1690.75,1024.84 C1689.22,1026.42 1687.75,1028.12 1686.3,1029.91 C1683.95426,1032.83386 1681.94183,1036.01015 1680.3,1039.38 C1679.55966,1040.93802 1678.91839,1042.5412 1678.38,1044.18 C1677.84166,1045.81532 1677.41731,1047.48599 1677.11,1049.18 C1676.48361,1052.65268 1676.28547,1056.18908 1676.52,1059.71 C1676.61,1061.38 1676.8,1063.16 1677.12,1065.3 C1677.41,1067.18 1677.83,1069.22 1678.43,1071.7 C1678.85,1073.43 1679.37,1075.29 1680.05,1077.54 C1680.69,1079.62 1681.41,1081.79 1682.32,1084.38 C1687.74,1099.72 1695.78,1115.38 1706.91,1132.25 C1711.37,1139.02 1716.37,1146.05 1722.65,1154.38 C1728.04,1161.52 1733.43,1168.38 1739.4,1175.9 L1740.5,1177.28 C1745.68,1183.83 1751.05,1190.6 1756.22,1197.35 C1759.12,1201.14 1761.78,1204.69 1764.35,1208.22 C1767.05,1211.92 1769.87,1215.9 1773.21,1220.76 C1780.45,1231.27 1787.21,1241.71 1792.84,1250.53 C1796.1,1255.62333 1799.34333,1260.72667 1802.57,1265.84 L1807.44,1273.52 L1808.66,1275.43 L1809.88,1277.34 C1810.47,1278.27 1811.05,1279.19 1811.62,1280.13 C1813.29,1282.92 1814.88,1285.83 1816.42,1288.64 L1817.55,1290.7 C1819.29,1293.86 1821.38,1297.57 1823.71,1301.2 C1824.77,1302.84 1825.91,1304.48 1827.12,1306.07 C1828.38616,1307.74081 1829.75198,1309.3337 1831.21,1310.84 C1832.44655,1312.11265 1833.76611,1313.30192 1835.16,1314.4 C1835.81,1314.92 1836.54,1315.4 1837.44,1316.03 C1839.76399,1317.52076 1842.29903,1318.65343 1844.96,1319.39 C1846.7506,1319.88257 1848.58094,1320.21718 1850.43,1320.39 C1851.64593,1320.51508 1852.86767,1320.57516 1854.09,1320.57031 L1855.67,1320.57031 C1857.74755,1320.4989 1859.81843,1320.29515 1861.87,1319.96 C1863.62,1319.69 1865.52,1319.29 1867.67,1318.74 C1869.47,1318.29 1871.41,1317.74 1873.61,1316.99 C1877.61391,1315.6382 1881.53991,1314.0658 1885.37,1312.28 C1888.61,1310.81 1892.02,1309.09 1896.12,1306.89 C1899.78,1304.89 1902.79,1303.22 1905.58,1301.52 C1908.94,1299.47 1912.25,1297.21 1915.45,1294.8 C1918.66523,1292.37544 1921.71842,1289.74315 1924.59,1286.92 C1927.31927,1284.24434 1929.815,1281.34046 1932.05,1278.24 C1933.05057,1276.82824 1933.97845,1275.36634 1934.83,1273.86 C1935.29,1273.05 1935.71,1272.24 1936.1,1271.45 C1936.49,1270.66 1936.93,1269.7 1937.38,1268.57 C1938.00689,1267.00674 1938.52807,1265.40313 1938.94,1263.77 C1939.42793,1261.87881 1939.74586,1259.94779 1939.89,1258 C1940.02108,1256.26914 1940.02108,1254.53086 1939.89,1252.8 C1939.73941,1250.70468 1939.40479,1248.62667 1938.89,1246.59 C1938.67,1245.72 1938.41,1244.87 1938.14,1244 C1937.87,1243.13 1937.55,1242.21 1937.14,1241 C1936.45,1239.11 1935.64,1237.14 1934.57,1234.81 C1932.80487,1231.02002 1930.80084,1227.34596 1928.57,1223.81 C1926.48,1220.5 1924.11,1217.11 1921.09,1213.14 C1918.27,1209.43 1915.34,1205.88 1912.84,1202.89 C1911.25,1200.98 1909.64,1199.08 1908.03,1197.18 C1904.03,1192.5 1900.03,1187.66 1896.15,1182.74 C1894.93,1181.17 1893.69,1179.51 1892.47,1177.82 C1891.37,1176.29 1890.3,1174.71 1889.26,1173.18 L1888.35,1171.84 C1885.61,1167.84 1882.62,1163.52 1879.2,1158.68 C1872.52,1149.25 1865.58,1139.77 1858.87,1130.61 C1853.16,1122.82 1847.27,1114.77 1841.56,1106.78 C1838.44,1102.41 1835.34,1098 1832.34,1093.66 C1830.88,1091.54667 1829.43333,1089.42667 1828,1087.3 L1827.81,1087.03 C1826.9,1085.67 1825.98,1084.32 1825.08,1082.94 C1824.33,1081.79 1823.6,1080.62 1822.87,1079.44 C1822.14,1078.26 1821.56,1077.34 1820.87,1076.28 L1819.87,1074.69 C1816.77,1069.69 1814.38,1065.85 1812.11,1062.28 C1808.74,1056.99 1805.55,1052.16 1802.38,1047.5 C1798.58,1041.93 1794.97,1036.9 1791.38,1032.11 C1787.3,1026.75 1783.47,1022.11 1779.66,1017.89 C1776.8,1014.73 1774.06,1011.98 1771.3,1009.48 C1768.9706,1007.33966 1766.48359,1005.37747 1763.86,1003.61 L1764.34,1004.22 C1764.38497,1004.26513 1764.41016,1004.32629 1764.41,1004.39 C1764.41241,1004.45124 1764.38662,1004.51021 1764.34,1004.55 C1764.29909,1004.60194 1764.2361,1004.63158 1764.17,1004.63 C1764.10707,1004.62647 1764.04717,1004.6018 1764,1004.56 C1763.34804,1003.73393 1762.60313,1002.98567 1761.78,1002.33 L1763,1003.07 L1763.85,1003.63 C1763.47749,1003.19388 1763.07304,1002.78609 1762.64,1002.41 C1761.9376,1001.79817 1761.20323,1001.22403 1760.44,1000.69 C1758.96,999.65868 1757.42798,998.704088 1755.85,997.83 C1755.80727,997.819801 1755.76273,997.819801 1755.72,997.83 C1755.62539,997.82825 1755.5373,997.878041 1755.49,997.96 C1755.66081,998.084374 1755.8414,998.194733 1756.03,998.29 C1756.27,998.42 1756.51,998.58 1756.74,998.73 C1756.83883,998.799701 1756.88614,998.921925 1756.86,999.04 C1756.45,998.78 1756.03,998.54 1755.61,998.3 C1755.50387,998.246316 1755.45617,998.120568 1755.5,998.01 L1755.04,997.78 C1754.44775,997.537115 1753.83542,997.346392 1753.21,997.21 C1752.48645,997.057176 1751.74948,996.97678 1751.01,996.97 L1750.59,997.09 Z" opacity=".95"/>
      <path fill="#161616" d="M2042.43 788.78C2042.59 789.64 2042.81 790.58 2043.1 791.67 2043.18 791.95 2043.27 792.23 2043.35 792.51 2043.43 792.79 2043.55 793.18 2043.63 793.51 2043.81 794.19 2043.94 794.88 2044.05 795.51 2044.18 796.31 2044.28 797.13 2044.38 797.98L2044.38 798.1C2044.57 798.92 2044.75 799.74 2044.93 800.56L2045.3 802.26C2045.46 802.98 2045.62 803.71 2045.79 804.42L2045.95 805.07C2045.87 804.69 2045.79 804.31 2045.72 803.92 2045.61 803.25 2045.51 802.57 2045.43 801.92 2045.35 801.27 2045.29 800.76 2045.23 800.17L2045.23 799.77C2045.07 798.19 2044.93 796.87 2044.72 795.5L2044.72 795.33 2044.72 795.22C2044.72429 795.193506 2044.72429 795.166494 2044.72 795.14 2044.72471 795.103485 2044.72471 795.066515 2044.72 795.03L2044.72 795.11 2044.72 795.01C2044.72485 795.039804 2044.72485 795.070196 2044.72 795.1L2044.36 793.67C2044.02 792.36 2043.61 791.01 2043.1 789.55 2042.91 789.01 2042.7 788.46 2042.48 787.91L2042.37 787.64 2042.37 787.48 2042.29 787.3C2042.37 787.8 2042.46 788.3 2042.55 788.8L2042.43 788.78zM1744.3 981.17L1744.14 981.71C1744.14 981.82 1744.21 981.9 1744.36 981.94 1744.4472 981.94241 1744.5268 981.890665 1744.56 981.81L1744.62 981.66 1744.7 981.51 1744.64 981.39C1744.59543 981.247984 1744.48873 981.133924 1744.35 981.08L1744.35 981.18 1744.3 981.17z" opacity=".95"/>
      <path fill="#161616" d="M2042.43 788.78C2042.59 789.64 2042.81 790.58 2043.1 791.67 2043.18 791.95 2043.27 792.23 2043.35 792.51 2043.43 792.79 2043.55 793.18 2043.63 793.51 2043.81 794.19 2043.94 794.88 2044.05 795.51 2044.18 796.31 2044.28 797.13 2044.38 797.98L2044.38 798.1C2044.57 798.92 2044.75 799.74 2044.93 800.56L2045.3 802.26C2045.46 802.98 2045.62 803.71 2045.79 804.42L2045.95 805.07C2045.87 804.69 2045.79 804.31 2045.72 803.92 2045.61 803.25 2045.51 802.57 2045.43 801.92 2045.35 801.27 2045.29 800.76 2045.23 800.17L2045.23 799.77C2045.07 798.19 2044.93 796.87 2044.72 795.5L2044.72 795.33 2044.72 795.17C2044.72 795.07 2044.72 794.97 2044.72 794.87L2044.72 795.11 2044.72 795.01C2044.72485 795.039804 2044.72485 795.070196 2044.72 795.1L2044.36 793.67C2044.02 792.36 2043.61 791.01 2043.1 789.55 2042.91 789.01 2042.7 788.46 2042.48 787.91L2042.37 787.64 2042.31 787.44 2042.24 787.28C2042.32 787.78 2042.4 788.28 2042.5 788.8L2042.43 788.78zM1744.61 980.37L1744.61 980.47 1744.53 980.47C1744.58344 980.542834 1744.66976 980.584118 1744.76 980.58 1744.79826 980.596697 1744.84174 980.596697 1744.88 980.58L1745.08 980.44C1745.08494 980.4035 1745.08494 980.3665 1745.08 980.33 1745.08 980.28 1745.01 980.24 1744.87 980.21 1744.77104 980.207163 1744.68353 980.273832 1744.66 980.37L1744.61 980.37z" opacity=".95"/>
      <path fill="#161616" d="M1744.61 980.37L1744.61 980.47 1744.53 980.47C1744.58344 980.542834 1744.66976 980.584118 1744.76 980.58 1744.79826 980.596697 1744.84174 980.596697 1744.88 980.58L1745.08 980.44C1745.08494 980.4035 1745.08494 980.3665 1745.08 980.33 1745.08 980.28 1745.01 980.24 1744.87 980.21 1744.77104 980.207163 1744.68353 980.273832 1744.66 980.37L1744.61 980.37zM1744.3 981.17L1744.14 981.71C1744.14 981.82 1744.21 981.9 1744.36 981.94 1744.4472 981.94241 1744.5268 981.890665 1744.56 981.81L1744.62 981.66 1744.7 981.51 1744.64 981.39C1744.59543 981.247984 1744.48873 981.133924 1744.35 981.08L1744.35 981.18 1744.3 981.17z" opacity=".95"/>
      <path fill="url(#open4business-e)" d="M2032.67,779.9 C2031.75376,779.910155 2030.83888,779.973596 2029.93,780.09 C2028.93,780.22 2027.81,780.41 2026.52,780.7 C2023.96433,781.296189 2021.45193,782.064611 2019,783 C2016.52,783.91 2013.92,785 2010.81,786.43 C2005.93,788.68 2000.67,791.43 1994.26,795.07 C1988.79,798.18 1983.49,801.41 1979.49,803.87 L1978.56,804.44 C1976.98667,805.406667 1975.41333,806.373333 1973.84,807.34 C1973.13,807.78 1972.41,808.21 1971.7,808.63 C1969.7,809.84 1967.64,811.05 1965.62,812.28 C1950.88,821.23 1935.96,831.03 1920,842.28 C1889,864.02 1859.81,887.21 1832.84,909.04 C1823.92,916.246667 1815.01667,923.483333 1806.13,930.75 L1800.8,935.09 C1797.28,937.963333 1793.75667,940.833333 1790.23,943.7 C1778.48,953.26 1763,965.77 1747.55,977.8 L1747.03,978.21 L1744.55,980.14 C1744.48018,980.187036 1744.4303,980.2583 1744.41,980.34 C1744.37706,980.413128 1744.37706,980.496872 1744.41,980.57 C1744.3,980.57 1744.28,980.66 1744.27,980.72 C1744.25979,980.851319 1744.23974,980.981686 1744.21,981.11 L1744.1,981.11 C1743.9542,981.133217 1743.82514,981.217315 1743.74502,981.341318 C1743.66177,981.465321 1743.64125,981.617538 1743.68,981.76 C1744.53,985.1 1745.51,988.54 1746.57,991.99 C1747.63,995.44 1748.83,998.93 1750.34,1003.06 C1752.71,1009.54 1755.56,1016.47 1759.07,1024.25 C1761.78,1030.25 1764.95,1036.83 1768.79,1044.33 C1771.79,1050.33 1775.23,1056.7 1779.47,1064.45 C1781.17,1067.57 1782.88,1070.67 1784.61,1073.78 C1786.34,1076.89 1788.24,1080.32 1790.28,1083.89 C1793.88,1090.2 1797.69,1096.61 1801.93,1103.49 C1809.69,1116.1 1818.28,1129.14 1827.48,1142.27 C1836.15,1154.65 1845.54,1167.27 1855.38,1179.82 C1864.55,1191.5 1874.29,1203.25 1884.32,1214.74 C1886.32,1217.02 1888.53,1219.53 1891.54,1222.89 L1894.38,1226.04 L1894.67,1226.35 C1895.81,1227.61 1896.94,1228.85 1898.05,1230.11 C1899.32,1231.53 1900.57,1232.97 1901.83,1234.41 L1902.27,1234.92 L1902.97,1235.72 C1904.88333,1237.92 1906.80667,1240.11333 1908.74,1242.3 C1913.23,1247.3 1917.12,1251.43 1920.96,1255.15 C1922.96,1257.05 1925.05,1258.96 1927.26,1260.84 C1929.47,1262.72 1931.58,1264.31 1933.89,1265.92 C1936.03618,1267.39418 1938.27404,1268.73022 1940.59,1269.92 C1942.83533,1271.08134 1945.1775,1272.04498 1947.59,1272.8 C1948.72364,1273.1541 1949.87526,1273.44785 1951.04,1273.68 C1952.03085,1273.88119 1953.03253,1274.02476 1954.04,1274.11 C1954.62,1274.11 1955.2,1274.19 1955.78,1274.21 L1956.49,1274.21 L1957.49,1274.21 C1958.07,1274.21 1958.65,1274.14 1959.23,1274.08 C1959.81,1274.02 1960.52,1273.93 1961.11,1273.82 C1961.7,1273.71 1962.28,1273.58 1962.87,1273.44 C1963.46,1273.3 1964.05,1273.12 1964.64,1272.94 L1964.78,1272.94 C1966.41,1272.45 1967.96,1271.94 1969.26,1271.46 C1972.26,1270.46 1975.26,1269.23 1978.96,1267.64 C1985.08238,1264.94644 1991.06347,1261.94255 1996.88,1258.64 C2002.35,1255.58 2008.18,1252.04 2015.23,1247.49 C2021.48,1243.49 2027.61,1239.29 2033.3,1235.38 L2039.21,1231.32 L2039.3,1231.26 C2048.69,1224.8 2058.41,1218.11 2068.37,1211.97 C2070.75,1210.51 2073.2,1209.06 2075.5,1207.72 C2078.59333,1205.91333 2081.67667,1204.09667 2084.75,1202.27 C2090.34,1198.94 2096.1,1195.47 2102.35,1191.66 C2112.83,1185.28 2124.2,1178.2 2138.13,1169.41 C2143.91667,1165.75 2149.69667,1162.08333 2155.47,1158.41 L2163.71,1153.17 L2167.81,1150.55 C2169.4,1149.55 2171.01,1148.55 2172.62,1147.55 C2178.53,1143.97 2184.62,1140.67 2189.82,1137.9 C2192.7,1136.37333 2195.58333,1134.85667 2198.47,1133.35 C2201.67,1131.68333 2204.86,1130.01667 2208.04,1128.35 C2208.15489,1128.30382 2208.23798,1128.20184 2208.26,1128.08 C2208.32462,1127.93347 2208.32462,1127.76653 2208.26,1127.62 C2204.56,1121.12 2200.89,1114.24 2197.02,1106.62 C2193.74,1100.11 2190.33,1093.03 2186.29,1084.35 L2186.29,1084.25 C2185.41,1082.37 2184.54,1080.47 2183.67,1078.57 L2183.06,1077.26 L2181.55,1073.98 C2179.96,1070.51 2178.35,1067.06 2176.74,1063.6 C2173.49,1056.66 2170.11,1049.6 2166.74,1042.47 C2160.07,1028.63 2153.11,1014.68 2146.07,1001.01 C2131.94,973.6 2116.82,946.3 2101.07,919.87 C2098.73,915.92 2096.35,911.99 2093.98,908.06 L2093.59,907.43 L2092.35,905.37 C2089.5,900.66 2086.64,895.69 2083.59,890.2 C2078.17,880.43 2072.93,870.12 2068.02,859.55 C2064.54,852.02 2061.2,844.27 2058.09,836.55 C2055.09,829.09 2052.19,821.2 2049.46,813.09 C2048.87333,811.35 2048.3,809.603333 2047.74,807.85 C2047.32,806.55 2047,805.26 2046.61,803.61 C2046.37,802.61 2046.16,801.61 2045.94,800.68 L2045.84,800.22 L2045.84,800.08 L2045.56,798.78 C2045.29,797.59 2045.02,796.4 2044.72,795.21 L2044.72,795.45 L2044.72,795.62 C2044.92,797 2045.06,798.31 2045.22,799.89 L2045.22,800.29 C2045.29,800.88 2045.35,801.46 2045.42,802.04 C2045.49,802.62 2045.6,803.39 2045.71,804.04 L2045.95,805.24 L2045.79,804.54 C2045.61,803.83 2045.45,803.1 2045.29,802.38 L2044.92,800.68 C2044.74,799.86 2044.56,799.04 2044.37,798.22 L2044.37,798.1 C2044.27,797.25 2044.16,796.43 2044.04,795.62 C2043.93,795.01 2043.8,794.32 2043.62,793.62 C2043.54,793.28 2043.45,792.95 2043.34,792.62 C2043.23,792.29 2043.18,792.05 2043.09,791.77 C2042.8,790.68 2042.58,789.77 2042.42,788.88 C2042.32,788.34 2042.22,787.8 2042.14,787.26 L2042.29,787.72 L2042.4,787.99 C2042.62,788.54 2042.83,789.09 2043.02,789.63 C2043.52,791.1 2043.94,792.44 2044.28,793.75 L2044.64,795.18 C2044.6126,794.753262 2044.5558,794.328922 2044.47,793.91 C2044.33,793.28 2044.16,792.66 2043.99,792.07 L2043.99,791.95 C2043.73,790.95 2043.51,790.02 2043.34,789.04 L2043.28,788.94 C2043.16,787.94 2043.05,786.83 2042.97,785.94 C2042.93474,785.218307 2042.80014,784.504922 2042.57,783.82 C2042.46897,783.555205 2042.33093,783.306062 2042.16,783.08 C2041.97546,782.848966 2041.76396,782.640822 2041.53,782.46 C2040.79214,781.947493 2039.9791,781.552782 2039.12,781.29 C2038.46,781.06 2037.83,780.87 2037.2,780.68 C2036.57,780.49 2036.2,780.39 2035.75,780.3 C2034.82687,780.125846 2033.88942,780.038797 2032.95,780.04 L2032.67,779.9 Z M1744.48,980.5 L1744.57,980.5 L1744.57,980.4 C1744.59286,980.301961 1744.67935,980.231946 1744.78,980.23 C1744.92,980.23 1744.96,980.31 1744.99,980.36 C1744.99494,980.3965 1744.99494,980.4335 1744.99,980.47 L1744.8,980.61 C1744.75801,980.625286 1744.71199,980.625286 1744.67,980.61 C1744.57333,980.609376 1744.48333,980.560626 1744.43,980.48 L1744.48,980.5 Z M1744.36,981.95 C1744.21,981.9 1744.13,981.82 1744.14,981.71 C1744.23,981.43 1744.26,981.31 1744.3,981.17 L1744.3,981.06 C1744.44913,981.113477 1744.56652,981.230866 1744.62,981.38 L1744.62,981.51 L1744.55,981.66 L1744.49,981.81 C1744.45772,981.892769 1744.37882,981.947997 1744.29,981.95 L1744.36,981.95 Z" opacity=".95"/>
      <path fill="#FFFDE0" d="M1729,1046.83 L1728.47,1046.83 C1726.49317,1046.8744 1724.53032,1047.17353 1722.63,1047.72 C1721.00392,1048.17591 1719.44661,1048.84862 1718,1049.72 C1717.54,1049.78 1717.11,1049.85 1716.69,1049.94 C1715.86905,1050.12079 1715.0708,1050.39247 1714.31,1050.75 C1712.9572,1051.39721 1711.78312,1052.36531 1710.89,1053.57 C1710.04601,1054.74662 1709.46301,1056.08991 1709.18,1057.51 C1708.86617,1059.03586 1708.79195,1060.60129 1708.96,1062.15 C1709.12282,1063.78445 1709.4959,1065.39106 1710.07,1066.93 C1710.64468,1068.50249 1711.40685,1069.99996 1712.34,1071.39 C1712.79604,1072.0695 1713.29716,1072.71762 1713.84,1073.33 C1714.37738,1073.94181 1714.95894,1074.51334 1715.58,1075.04 C1716.93606,1076.17768 1718.48807,1077.05874 1720.16,1077.64 C1721.87938,1078.26631 1723.69045,1078.60419 1725.52,1078.64 L1725.95,1078.64 C1727.67292,1078.63363 1729.38873,1078.41874 1731.06,1078 C1734.71293,1077.0873 1738.09182,1075.30696 1740.91,1072.81 C1743.60571,1070.51393 1745.48315,1067.40475 1746.26,1063.95 C1746.43137,1063.09744 1746.51514,1062.2296 1746.51022,1061.36 C1746.50249,1060.46203 1746.40195,1059.56725 1746.21,1058.69 C1745.99425,1057.75635 1745.68952,1056.84552 1745.3,1055.97 C1744.89715,1055.07265 1744.40465,1054.21831 1743.83,1053.42 C1742.71663,1051.90219 1741.31278,1050.62071 1739.7,1049.65 C1738.04981,1048.64827 1736.25061,1047.91576 1734.37,1047.48 C1732.61193,1047.05433 1730.80885,1046.8428 1729,1046.85 L1729,1046.83 Z" opacity=".95"/>
      <path fill="#F9E5C8" d="M1150.55,1120.45 C1150.55716,1120.51609 1150.58937,1120.57692 1150.64,1120.62 C1150.717,1120.6846 1150.8252,1120.69681 1150.91465,1120.65099 C1151.00411,1120.60517 1151.05743,1120.51023 1151.05,1120.41 C1151.04102,1120.34448 1151.00913,1120.28426 1150.96,1120.24 C1150.91143,1120.19503 1150.84584,1120.17317 1150.78,1120.18 C1150.64432,1120.19562 1150.54385,1120.31356 1150.55,1120.45 L1150.55,1120.45 Z" opacity=".95"/>
      <path fill="#A6D5A3" d="M1271.65,687.85 C1266.3,687.85 1260.97,687.95 1255.81,688.17 C1242.81279,688.673892 1229.86386,690.04696 1217.05,692.28 C1211.05,693.35 1205.05,694.65 1199.29,696.15 C1196.48,696.88 1193.6,697.69 1190.72,698.55 C1187.84,699.41 1184.94,700.38 1181.61,701.55 C1176.03,703.55 1170.32,705.86 1164.61,708.49 C1159.45,710.89 1154.15,713.67 1148.85,716.77 C1143.75,719.77 1138.5,723.19 1133.25,727.01 C1128.08689,730.787529 1123.11727,734.822638 1118.36,739.1 C1113.79,743.19 1109.36,747.61 1104.66,752.61 C1100.15,757.45 1095.74,762.68 1091.18,768.61 C1086.8,774.28 1082.52,780.36 1078.47,786.69 C1074.75,792.49 1071.12,798.83 1067.67,805.51 C1064.42,811.83 1061.3,818.7 1058.4,825.92 C1055.77,832.51 1053.3,839.63 1051.08,847.11 C1049.08,853.69 1047.36,860.76 1045.84,868.11 C1044.4,875.11 1043.22,882.59 1042.33,890.29 C1041.51,897.43 1040.98,904.98 1040.77,912.71 C1040.57,919.66 1040.68,926.97 1041.09,934.42 C1041.49,941.61 1042.25,949.13 1043.34,956.79 C1044.34,963.95 1045.78,971.38 1047.54,978.88 C1049.12,985.64 1051.1,992.67 1053.43,999.78 C1055.67,1006.61 1058.36,1013.68 1061.43,1020.78 C1062.73,1023.78 1064.21,1026.97 1065.97,1030.59 C1067.59,1033.9 1069.17,1036.89 1070.81,1039.72 C1071.66,1041.17 1072.52,1042.6 1073.37,1043.97 C1074.11,1045.17 1074.94,1046.45 1076.05,1048.1 C1077.9,1050.86 1079.94,1053.65 1082.27,1056.61 C1086.27914,1061.65848 1090.62222,1066.43251 1095.27,1070.9 C1100.01669,1075.48905 1105.05376,1079.76789 1110.35,1083.71 C1115.48266,1087.54035 1120.82423,1091.08248 1126.35,1094.32 C1132.07305,1097.71509 1137.96389,1100.81904 1144,1103.62 C1149.76,1106.31 1155.87,1108.85 1162.7,1111.36 C1168.7,1113.57 1175.03,1115.64 1182.12,1117.68 C1195.04581,1121.36667 1208.16591,1124.33455 1221.42,1126.57 C1224.53,1127.11 1227.69,1127.57 1231.07,1128.13 C1234.45,1128.69 1238.02,1129.13 1241.44,1129.56 C1247.72,1130.35 1254.36,1130.93 1261.15,1131.31 C1266.34,1131.6 1271.62,1131.75 1276.85,1131.75 C1284.25,1131.75 1291.85,1131.46 1299.32,1130.89 C1311.94664,1129.91028 1324.49426,1128.09295 1336.88,1125.45 C1348.83255,1122.90229 1360.60727,1119.58199 1372.13,1115.51 C1383.63993,1111.42521 1394.86481,1106.5778 1405.73,1101 C1416.21499,1095.62336 1426.32767,1089.54974 1436,1082.82 C1445.69723,1076.06266 1454.90667,1068.63095 1463.56,1060.58 C1471.95425,1052.73777 1479.77437,1044.30273 1486.96,1035.34 C1490.46,1030.97 1493.96,1026.26 1497.28,1021.34 C1500.28,1016.92 1503.2,1012.26 1506.18,1007.09 C1511.95804,997.012394 1516.898,986.476927 1520.95,975.59 C1524.97504,964.733582 1528.0924,953.561929 1530.27,942.19 C1531.36,936.56 1532.27,930.57 1532.88,924.39 C1533.48,918.62 1533.88,912.46 1533.95,906.09 C1534.05,900.3 1533.95,894.19 1533.49,887.95 C1533.03,881.71 1532.38,875.38 1531.39,868.78 C1529.34993,855.64003 1526.27026,842.682686 1522.18,830.03 C1520.11,823.55 1517.69,816.95 1514.8,809.85 C1513.56,806.85 1512.18,803.61 1510.58,800.07 C1509.58,797.91 1508.43,795.62 1506.99,793.07 C1504.2886,788.374738 1501.28215,783.861718 1497.99,779.56 C1494.24112,774.642372 1490.23556,769.925825 1485.99,765.43 C1481.86,761.02 1477.4,756.67 1472.33,752.14 C1467.53,747.84 1462.24,743.54 1456.61,739.34 C1451.32,735.41 1445.67,731.63 1439.82,728.1 L1438.21,727.1 C1436.23515,725.70413 1434.16323,724.450948 1432.01,723.35 L1431.76,723.22 C1429.23,721.85 1426.76,720.46 1424.2,719.07 C1419.47,716.46 1414.12,713.5 1408.8,710.81 C1403.64146,708.16772 1398.33234,705.830371 1392.9,703.81 C1388.24348,702.078653 1383.45003,700.740637 1378.57,699.81 C1377.76,699.44 1376.89,699.07 1375.92,698.69 C1374.2,698 1372.27,697.35 1369.86,696.62 C1365.69069,695.391456 1361.4578,694.389985 1357.18,693.62 C1352.89,692.81 1348.39,692.13 1343.02,691.49 C1335.09,690.55 1326.68,689.89 1315.74,689.36 C1312.1,689.19 1308.45,689.05 1304.8,688.92 C1302.13,688.82 1299.28,688.71 1296.48,688.55 C1287.98,688.07 1279.6,687.83 1271.56,687.83 L1271.65,687.85 Z"/>
    </g>
    <g transform="translate(1027 642)">
      <mask id="open4business-g" fill="#fff">
        <use xlink:href="#open4business-f"/>
      </mask>
      <polyline stroke="#FFF" stroke-linecap="round" stroke-linejoin="round" stroke-width="18" points="145 282 218.24 359 381 205" mask="url(#open4business-g)" opacity=".8"/>
    </g>
  </g>
</svg>
