<svg xmlns="http://www.w3.org/2000/svg" width="156" height="156" viewBox="0 0 156 156">
  <g fill="none" fill-rule="evenodd">
    <rect width="175" height="175" x="-9" y="-9" fill="#D3D5E8"/>
    <path fill="#F6F7FE" fill-rule="nonzero" d="M13.603125,81.2625 C13.565625,80.484375 13.5375,79.321875 13.5375,78.684375 C13.5375,77.7 13.51875,77.53125 13.3875,77.53125 C13.2375,77.53125 3.103125,79.471875 2.821875,79.55625 C2.709375,79.59375 2.278125,79.2375 1.303125,78.31875 C0.553125,77.60625 -0.028125,76.996875 0.009375,76.96875 C0.05625,76.93125 0.440625,76.8375 0.88125,76.753125 C2.090625,76.528125 11.4,74.7375 12.39375,74.540625 C12.871875,74.446875 13.29375,74.34375 13.321875,74.30625 C13.378125,74.25 13.153125,65.465625 13.003125,61.8 C12.95625,60.609375 12.95625,60.553125 13.134375,60.50625 C13.3125,60.459375 13.321875,60.3375 13.378125,57.4875 C13.415625,55.528125 13.40625,54.496875 13.340625,54.459375 C13.246875,54.403125 15.69375,52.828125 16.51875,52.415625 C16.846875,52.246875 16.9125,52.2375 16.9125,52.359375 C16.9125,52.471875 17.034375,52.5 17.45625,52.5 C18.215625,52.5 23.315625,52.3125 23.34375,52.284375 C23.353125,52.275 23.484375,51.478125 23.625,50.5125 L23.896875,48.75 L24.8625,48.75 L25.828125,48.75 L25.7625,49.2 C25.725,49.44375 25.603125,50.221875 25.490625,50.934375 L25.284375,52.228125 L26.08125,52.2 L26.86875,52.171875 L32.521875,48.234375 L38.165625,44.296875 L38.23125,42.421875 C38.49375,34.621875 39.09375,30.178125 40.340625,26.878125 C40.959375,25.21875 41.45625,24.346875 42.384375,23.278125 L42.9,22.6875 L42.39375,22.6875 C41.26875,22.6875 39.7125,22.284375 38.803125,21.759375 C38.55,21.609375 37.9125,21.103125 37.40625,20.64375 L36.478125,19.8 L35.578125,20.221875 C35.08125,20.45625 34.63125,20.6625 34.565625,20.690625 C34.453125,20.7375 34.1625,20.26875 34.1625,20.034375 C34.1625,19.959375 34.5375,19.734375 35.025,19.509375 L35.8875,19.125 L35.55,18.76875 C35.071875,18.2625 34.303125,17.26875 33.31875,15.890625 C32.840625,15.225 32.325,14.53125 32.15625,14.353125 C31.846875,14.025 30.253125,12.909375 30.084375,12.909375 C30.028125,12.909375 29.015625,13.51875 27.834375,14.26875 C25.134375,15.965625 24.73125,16.209375 23.821875,16.659375 L23.08125,17.015625 L22.85625,16.753125 C22.51875,16.359375 22.565625,16.171875 23.08125,15.871875 C23.325,15.73125 24.6,14.896875 25.9125,14.015625 C27.95625,12.646875 28.6875,12.225 30.928125,11.090625 C33.365625,9.8625 38.23125,7.51875 41.19375,6.140625 C41.8875,5.8125 43.771875,4.93125 45.365625,4.171875 C48.590625,2.634375 48.61875,2.625 49.8,2.953125 C50.409375,3.121875 51.103125,3.665625 51.703125,4.425 L52.0125,4.809375 L51.796875,4.978125 C51.6375,5.109375 51.43125,5.15625 51.046875,5.15625 C50.55,5.15625 50.484375,5.128125 49.884375,4.640625 C49.528125,4.359375 49.14375,4.096875 49.03125,4.06875 C48.88125,4.03125 48.140625,4.340625 46.44375,5.146875 C45.140625,5.775 44.034375,6.28125 43.9875,6.28125 C43.8,6.28125 44.015625,6.45 44.259375,6.496875 C44.7,6.58125 45.9,7.434375 46.5375,8.11875 C46.875,8.475 47.615625,9.46875 48.196875,10.3125 C48.76875,11.165625 49.40625,12.01875 49.6125,12.225 L49.9875,12.58125 L50.915625,12.159375 C51.421875,11.925 52.284375,11.521875 52.846875,11.259375 L53.85,10.790625 L54.046875,11.165625 C54.15,11.38125 54.225,11.559375 54.20625,11.578125 C54.1875,11.596875 53.41875,11.953125 52.490625,12.375 C51.5625,12.80625 50.765625,13.18125 50.728125,13.21875 C50.6625,13.275 51.440625,14.00625 52.35,14.7375 C53.315625,15.50625 54.196875,15.75 56.090625,15.75 L57.346875,15.75 L58.996875,15.1875 C59.90625,14.878125 61.190625,14.49375 61.85625,14.315625 L63.05625,14.00625 L63.609375,12.703125 C63.91875,11.990625 64.153125,11.4 64.134375,11.38125 C64.125,11.3625 63.721875,11.596875 63.2625,11.896875 C61.978125,12.721875 60.3375,13.6875 59.709375,13.978125 L59.146875,14.25 L58.940625,14.034375 C58.509375,13.6125 58.603125,13.425 59.475,12.890625 C59.915625,12.628125 60.965625,11.925 61.81875,11.34375 C62.671875,10.771875 63.684375,10.096875 64.06875,9.871875 C65.3625,9.084375 70.59375,6.50625 77.90625,3.065625 C79.70625,2.2125 81.9,1.18125 82.78125,0.759375 C83.7375,0.309375 84.515625,0 84.684375,0 C84.853125,0 85.284375,0.065625 85.640625,0.15 C86.175,0.271875 86.4,0.384375 86.859375,0.759375 C87.46875,1.275 87.928125,1.89375 87.853125,2.1 C87.7875,2.26875 86.925,2.475 86.653125,2.390625 C86.540625,2.353125 86.165625,2.090625 85.828125,1.81875 C85.44375,1.5 85.134375,1.3125 84.984375,1.3125 C84.84375,1.3125 83.8125,1.753125 82.678125,2.296875 L80.615625,3.290625 L79.903125,4.246875 C79.44375,4.85625 78.91875,5.728125 78.46875,6.646875 C78.065625,7.434375 77.75625,8.1 77.775,8.109375 C77.79375,8.128125 78.1125,7.996875 78.4875,7.828125 L79.1625,7.509375 L79.359375,7.89375 C79.4625,8.1 79.5375,8.278125 79.51875,8.296875 C79.5,8.315625 78.965625,8.56875 78.31875,8.859375 C77.671875,9.15 77.1,9.440625 77.034375,9.496875 C76.978125,9.5625 76.659375,10.05 76.33125,10.59375 C75.99375,11.1375 75.50625,11.8875 75.24375,12.2625 C74.971875,12.628125 74.75625,12.95625 74.75625,12.984375 C74.75625,13.0125 74.90625,13.03125 75.09375,13.03125 C75.58125,13.03125 77.1375,13.359375 78,13.65 C79.921875,14.2875 81.103125,15.215625 81.778125,16.603125 C82.25625,17.60625 82.5375,18.628125 82.5375,19.3875 C82.5375,20.175 82.1625,21.4875 81.646875,22.490625 C81.1875,23.38125 81.1125,23.7 80.521875,27.375 C79.96875,30.834375 79.509375,32.94375 79.0125,34.3125 C78.140625,36.740625 77.146875,38.11875 75.853125,38.71875 C75.065625,39.084375 72.946875,39.628125 71.803125,39.75 C71.2875,39.815625 70.828125,39.88125 70.78125,39.909375 C70.734375,39.946875 70.725,40.528125 70.753125,41.334375 C70.790625,42.09375 70.771875,42.99375 70.725,43.35 C70.415625,45.45 68.953125,46.575 65.85,47.1 L65.5125,47.15625 L65.409375,48.309375 C65.34375,48.9375 65.2125,49.734375 65.109375,50.0625 C64.996875,50.4 64.9125,50.68125 64.9125,50.68125 C64.9125,50.690625 65.109375,50.746875 65.34375,50.803125 C65.9625,50.9625 66.478125,51.24375 66.525,51.45 C66.65625,51.946875 65.971875,52.66875 64.725,53.353125 C64.303125,53.578125 63.825,53.859375 63.665625,53.971875 C63.20625,54.290625 62.840625,54.440625 62.08125,54.609375 C60.45,54.984375 59.240625,55.36875 59.259375,55.509375 C59.5125,57.590625 60.553125,64.66875 60.609375,64.725 C60.65625,64.78125 60.76875,64.771875 60.9,64.70625 C61.021875,64.65 62.56875,64.321875 64.35,63.984375 C67.55625,63.375 72.7875,62.3625 77.94375,61.36875 C79.415625,61.0875 82.3875,60.515625 84.553125,60.09375 C86.71875,59.671875 89.690625,59.1 91.1625,58.81875 C92.634375,58.5375 95.56875,57.965625 97.678125,57.5625 C99.796875,57.159375 102.9375,56.55 104.6625,56.2125 C106.3875,55.884375 109.921875,55.2 112.51875,54.703125 L117.234375,53.79375 L117.76875,54.290625 C118.884375,55.321875 119.94375,56.371875 119.907217,56.409375 C119.8875,56.428125 119.00625,56.615625 117.9375,56.8125 C116.86875,57.01875 113.690625,57.628125 110.86875,58.171875 C108.046875,58.715625 103.9875,59.503125 101.85,59.915625 C99.7125,60.328125 96.759375,60.9 95.2875,61.18125 C93.815625,61.4625 90.890625,62.034375 88.771875,62.4375 C86.6625,62.840625 83.728125,63.4125 82.25625,63.69375 C80.784375,63.975 77.2875,64.65 74.475,65.19375 C71.6625,65.7375 68.08125,66.43125 66.50625,66.73125 L63.646875,67.284375 L63.31875,66.975 C63.103125,66.76875 62.8875,66.65625 62.728125,66.65625 C62.484375,66.65625 62.475,66.665625 62.540625,67.059375 C62.6625,67.809375 62.64375,67.9125 62.278125,68.08125 C61.74375,68.34375 60.5625,68.465625 59.709375,68.353125 C58.753125,68.2125 58.3125,68.00625 58.275,67.66875 C58.246875,67.44375 58.2,67.40625 57.946875,67.40625 C57.646875,67.415625 57.646875,67.415625 58.340625,68.053125 L59.034375,68.7 L58.528125,68.803125 C58.246875,68.859375 56.8125,69.13125 55.33125,69.421875 C53.840625,69.703125 51.440625,70.171875 49.9875,70.453125 C48.525,70.725 45.571875,71.296875 43.425,71.71875 C41.26875,72.13125 37.74375,72.80625 35.596875,73.21875 C33.440625,73.640625 30.478125,74.2125 29.00625,74.49375 C27.534375,74.775 25.321875,75.20625 24.084375,75.440625 C22.303125,75.778125 21.80625,75.9 21.703125,76.040625 C21.6,76.190625 21.45,76.21875 20.765625,76.228125 C20.2125,76.228125 19.246875,76.36875 17.6625,76.678125 L15.365625,77.11875 L15.31875,79.678125 L15.271875,82.246875 L14.521875,82.4625 C14.109375,82.584375 13.74375,82.6875 13.715625,82.6875 C13.6875,82.6875 13.63125,82.05 13.603125,81.2625 Z M17.521875,73.546875 C20.278125,73.03125 20.165625,73.06875 20.23125,72.721875 C20.259375,72.553125 20.559375,70.63125 20.896875,68.4375 C21.234375,66.24375 21.525,64.359375 21.553125,64.246875 C21.58125,64.115625 21.675,64.03125 21.778125,64.03125 C21.91875,64.03125 21.965625,63.9375 22.0125,63.609375 C22.134375,62.8125 22.125,62.803125 20.775,62.83125 L19.584375,62.859375 L19.425,63.365625 C19.2375,63.946875 18.965625,64.284375 18.534375,64.4625 C18.16875,64.621875 17.465625,64.621875 16.959375,64.4625 C16.640625,64.359375 16.509375,64.36875 16.05,64.528125 L15.50625,64.70625 L15.50625,66.028125 C15.50625,66.759375 15.478125,68.85 15.440625,70.678125 C15.384375,73.9125 15.384375,73.9875 15.5625,73.940625 C15.65625,73.9125 16.546875,73.734375 17.521875,73.546875 Z M25.06875,72.09375 C26.4375,71.83125 28.734375,71.390625 30.178125,71.109375 C31.621875,70.828125 34.575,70.265625 36.740625,69.84375 C38.90625,69.421875 41.878125,68.85 43.35,68.56875 C44.821875,68.2875 47.75625,67.715625 49.865625,67.3125 C51.984375,66.909375 54.271875,66.459375 54.95625,66.328125 L56.203125,66.084375 L56.690625,66.50625 C57.178125,66.91875 57.1875,66.91875 57.6375,66.834375 C57.890625,66.7875 58.115625,66.73125 58.14375,66.7125 C58.1625,66.684375 58.134375,66.375 58.078125,66.009375 C58.021875,65.653125 57.975,65.315625 57.975,65.26875 C57.975,65.175 59.1,64.78125 59.38125,64.78125 C59.484375,64.78125 59.56875,64.753125 59.56875,64.715625 C59.55,64.396875 58.275,55.678125 58.246875,55.640625 C58.21875,55.621875 57.759375,55.678125 57.225,55.771875 C55.14375,56.146875 52.63125,56.3625 51.1125,56.30625 C50.325,56.278125 49.434375,56.23125 49.14375,56.19375 L48.609375,56.1375 L48.5625,56.45625 C48.50625,56.803125 48.225,60.215625 48.225,60.534375 C48.225,60.703125 48.009375,60.853125 46.959375,61.3875 L45.69375,62.025 L45.69375,60.140625 C45.69375,59.1 45.665625,57.8625 45.6375,57.403125 L45.571875,56.55 L45,56.49375 C44.1,56.390625 43.725,56.259375 43.05,55.81875 C42.178125,55.2375 41.484375,54.45 40.96875,53.446875 C40.725,52.978125 40.490625,52.59375 40.44375,52.59375 C40.396875,52.59375 37.453125,54.0375 33.909375,55.790625 C30.365625,57.553125 26.690625,59.3625 25.74375,59.821875 C24.80625,60.28125 24.009375,60.721875 23.98125,60.796875 C23.94375,60.871875 23.803125,60.9375 23.6625,60.9375 C23.325,60.9375 23.259375,61.125 23.26875,62.0625 C23.26875,62.521875 23.203125,62.953125 23.090625,63.309375 C22.85625,64.003125 22.865625,64.03125 23.19375,64.03125 C23.371875,64.03125 23.475,64.078125 23.475,64.1625 C23.475,64.284375 22.321875,71.821875 22.209375,72.4125 C22.171875,72.646875 22.18125,72.675 22.378125,72.628125 C22.490625,72.6 23.7,72.35625 25.06875,72.09375 Z M22.134375,61.959375 C22.2,61.8 22.2375,61.640625 22.21875,61.621875 C22.18125,61.584375 20.85,62.221875 20.85,62.278125 C20.85,62.2875 21.1125,62.2875 21.43125,62.278125 C21.984375,62.26875 22.0125,62.259375 22.134375,61.959375 Z M19.5375,57.28125 C23.090625,54.815625 23.00625,54.871875 23.00625,54.646875 C23.00625,54.46875 22.93125,54.46875 19.846875,54.4875 L16.6875,54.515625 L16.425,56.71875 C16.096875,59.5875 16.096875,59.446875 16.425,59.353125 C16.565625,59.30625 17.9625,58.378125 19.5375,57.28125 Z M48.178125,19.959375 C50.109375,19.040625 51.95625,18.1125 52.29375,17.896875 C52.63125,17.690625 53.3625,17.334375 53.90625,17.109375 L54.909375,16.70625 L54.403125,16.640625 C53.7375,16.546875 52.89375,16.265625 52.228125,15.909375 C51.7125,15.6375 50.484375,14.634375 49.884375,13.9875 L49.6125,13.70625 L48.7125,14.128125 C48.20625,14.3625 45.525,15.609375 42.740625,16.89375 C39.95625,18.178125 37.65,19.25625 37.6125,19.284375 C37.509375,19.340625 38.775,20.45625 39.45,20.90625 C40.3875,21.54375 41.4375,21.740625 43.6125,21.675 L44.68125,21.6375 L48.178125,19.959375 Z M42.665625,15.975 C45.853125,14.49375 48.58125,13.228125 48.721875,13.153125 L48.984375,13.021875 L48.534375,12.525 C48.290625,12.253125 47.709375,11.5125 47.240625,10.884375 C45.16875,8.04375 45.365625,8.26875 44.175,7.48125 L43.078125,6.75 L37.06875,9.58125 L31.059375,12.403125 L31.5375,12.665625 C32.8125,13.359375 33.365625,13.95 34.9125,16.21875 C35.75625,17.45625 36.7125,18.65625 36.853125,18.65625 C36.8625,18.65625 39.478125,17.446875 42.665625,15.975 Z M65.521875,13.546875 C66.4125,13.40625 66.65625,13.303125 71.146875,11.240625 C74.521875,9.684375 75.9,9 76.06875,8.8125 C76.2,8.6625 76.640625,7.89375 77.053125,7.115625 C77.465625,6.328125 78,5.353125 78.24375,4.940625 C78.4875,4.5375 78.6375,4.21875 78.571875,4.246875 C78.365625,4.340625 68.3625,9.05625 67.06875,9.675 L65.803125,10.284375 L65.503125,10.8375 C65.34375,11.1375 64.978125,11.934375 64.6875,12.590625 C64.209375,13.70625 64.190625,13.8 64.378125,13.753125 C64.490625,13.725 65.00625,13.63125 65.521875,13.546875 Z M73.3125,12.84375 C73.51875,12.75 73.8375,12.496875 74.025,12.271875 C74.38125,11.821875 75.253125,10.40625 75.20625,10.35 C75.16875,10.321875 69.31875,13.003125 69.234375,13.0875 C69.215625,13.10625 70.03125,13.096875 71.0625,13.06875 C72.534375,13.021875 73.0125,12.975 73.3125,12.84375 Z" transform="matrix(1 0 0 -1 18.056 119.813)"/>
  </g>
</svg>
