<svg xmlns="http://www.w3.org/2000/svg" width="156" height="156" viewBox="0 0 156 156">
  <g fill="none" fill-rule="evenodd">
    <rect width="175" height="175" x="-9" y="-9" fill="#D3D5E8"/>
    <path fill="#F6F7FE" fill-rule="nonzero" d="M116.0975,100.2725 C108.735,97.9325 101.5075,95.2325 94.345,92.44 C92.31,91.65 90.795,89.89 88.9525,88.68 C88.14,88.1425 87.1525,87.645 86.1825,87.5125 C82.8575,87.0525 81.3925,86.0475 80.6075,83.235 C79.5775,79.5375 78.8425,75.8425 79.7325,72.01 C79.7975,71.7225 79.8925,71.475 79.9875,71.225 C80.0825,70.9625 80.2,70.7225 80.3275,70.4875 C80.37,70.42 80.41,70.3475 80.4575,70.2825 C80.575,70.0975 80.7125,69.9175 80.8675,69.755 C80.965,69.6525 81.0875,69.56 81.205,69.4625 C81.345,69.35 81.4775,69.2275 81.6475,69.13 C81.9475,68.95 82.285,68.7875 82.685,68.655 C82.7075,68.6425 82.7225,68.6325 82.7425,68.6275 C82.9725,68.5525 83.28,68.4725 83.54,68.3925 C87.4725,67.245 95.075,65.99 99.18,64.765 C99.575,64.6475 99.9875,64.53 100.31,64.4125 C103.22,63.3475 103.395,62.4725 102.345,59.8825 C98.985,51.7275 96.5,43.425 95.69,34.71 C95.0825,28.1725 95.5825,21.45 92.825,15.1475 C91.2575,11.585 87.465,2.325 74.7325,0.6525 C71.88,0.0725 68.0125,0.2125 62.5825,1.3975 C62.575,1.3975 62.54,1.4 62.505,1.4025 C62.1775,1.4175 60.77,1.4325 60.0975,1.4625 C41.665,-0.88 34.135,10.7 32.1775,15.1475 C29.4175,21.45 29.9225,28.1725 29.3125,34.71 C28.5,43.425 26.015,51.7275 22.6575,59.8825 C21.605,62.4725 21.785,63.35 24.695,64.4125 C28.59,65.8225 38.325,67.3025 42.265,68.6275 C44.1675,69.2575 44.8775,70.335 45.2675,72.0125 C46.1625,75.845 45.4275,79.5425 44.3975,83.2375 C43.605,86.05 42.14,87.055 38.8175,87.515 C37.845,87.6475 36.86,88.145 36.045,88.6825 C34.2,89.8925 32.6875,91.6525 30.65,92.4425 C23.49,95.235 16.2625,97.935 8.8975,100.275 C-2.415,103.875 1.8325,110.1175 0,120.68 C24.7225,120.68 37.7,120.68 62.42,120.68 C62.445,120.68 62.4725,120.68 62.5,120.68 C62.53,120.68 62.5525,120.68 62.5775,120.68 C87.3,120.68 100.2775,120.68 124.9975,120.68 C123.17,110.1125 127.4175,103.8725 116.0975,100.2725 Z" transform="translate(16 35)"/>
  </g>
</svg>
